<svg width="113" height="113" viewBox="0 0 113 113" fill="none" xmlns="http://www.w3.org/2000/svg">
<g filter="url(#filter0_d)">
<circle cx="56.6665" cy="52.501" r="52" fill="white"/>
</g>
<path fill-rule="evenodd" clip-rule="evenodd" d="M65.1663 47.6418C66.4215 46.1096 67.1413 44.4169 67.1721 42.4523C67.1763 42.2386 67.3277 42.0277 67.4784 41.8177L67.4785 41.8176C67.5499 41.7181 67.6212 41.6188 67.6766 41.5194C67.9698 40.9872 68.282 40.4619 68.5943 39.9363C69.3044 38.7414 70.0154 37.5449 70.5068 36.262C71.5774 33.4635 70.9314 31.746 68.6057 29.9606C68.7533 28.0887 69.4917 26.8037 71.5466 26.433C72.5192 26.2589 73.4627 25.9214 74.4931 25.5528C74.9618 25.3852 75.4486 25.211 75.9642 25.043C74.4199 29.7196 72.9556 34.1492 71.4236 38.7826L71.7813 38.706L71.7834 38.7056C73.7768 38.2787 75.6006 37.8882 77.4408 37.4976C77.9084 38.3316 77.5454 38.7703 76.8379 39.1718L76.4155 39.4098L76.4155 39.4099C74.6046 40.43 72.7889 41.4528 71.0421 42.582C70.4576 42.9589 69.9531 43.6385 69.6885 44.2871C69.2539 45.3629 68.9006 46.472 68.538 47.61L68.5378 47.6106C68.382 48.0997 68.2245 48.5941 68.0581 49.0936L65.1663 47.6418ZM70.5129 47.3954C72.3156 48.7422 73.0724 51.6397 72.248 53.8513C71.5281 55.7727 69.8607 56.687 67.3751 56.4028C66.6602 56.3197 65.9568 56.1603 65.2537 56.001L65.2536 56.001L65.2536 56.001L65.2536 56.001C64.807 55.8998 64.3605 55.7987 63.9111 55.7171C61.3517 55.2414 59.1613 55.5997 57.6724 56.7488C58.0169 56.792 58.3123 56.8291 58.7614 56.8847C58.3768 57.6116 58.1812 58.3994 57.9916 59.1629C57.7171 60.2682 57.4552 61.3226 56.651 62.068C57.1094 62.3898 57.5988 62.7065 58.0995 63.0304C59.2519 63.7762 60.4637 64.5604 61.4932 65.5338C63.8865 67.7949 63.7389 71.1742 61.3886 73.6763C60.6835 73.4265 59.9773 73.1768 59.2704 72.9268L59.2686 72.9262C56.5833 71.9765 53.8865 71.0229 51.1937 70.0498C50.7471 69.8875 50.3211 69.6662 49.8954 69.4451C49.7052 69.3463 49.5151 69.2475 49.3233 69.154C46.5361 67.8134 45.0903 65.5647 44.8442 62.4942C44.5304 58.6083 45.2871 54.8645 46.1793 51.1578C46.2401 51.146 46.2902 51.1307 46.332 51.118C46.4003 51.0971 46.4464 51.083 46.4807 51.1022C52.5226 54.2282 58.0846 52.8135 63.3451 49.1932C64.2372 48.5816 64.914 48.5507 65.7692 49.0017C66.2738 49.2673 66.7844 49.5206 67.3013 49.7554C68.784 50.4288 69.4547 50.1631 70.0515 48.6557C70.1506 48.4031 70.2426 48.1456 70.3364 47.8835L70.3366 47.8829C70.3941 47.7222 70.4522 47.5597 70.5129 47.3954ZM64.3077 60.5608C64.703 59.3579 65.1145 58.1059 65.5541 56.7657C65.0963 56.7509 64.6526 56.7351 64.2195 56.7196L64.2185 56.7196L64.2177 56.7196C62.8414 56.6704 61.5724 56.6251 60.2998 56.6298C60.0291 56.6298 59.6169 56.9634 59.5184 57.2352C59.1186 58.3621 58.759 59.5025 58.4124 60.6015C58.2897 60.9908 58.1686 61.3748 58.0479 61.7513L59.2617 62.6414L59.2621 62.6416C60.4394 63.5051 61.5854 64.3456 62.7793 65.2171C63.2786 63.6918 63.778 62.1725 64.306 60.5659L64.3066 60.564L64.3077 60.5608ZM52.0122 78.957C52.7875 76.6465 53.5073 74.5027 54.2703 72.2354C56.1714 72.8347 57.968 73.4031 59.8876 74.0147C59.7837 74.3368 59.6821 74.6539 59.5819 74.9667C59.2018 76.1537 58.841 77.28 58.4417 78.3948C58.3556 78.6296 58.0049 78.9261 57.7711 78.9323C56.3535 78.9654 54.9287 78.9623 53.4222 78.959C52.9606 78.958 52.4913 78.957 52.0122 78.957ZM43.556 39.7004L43.5561 39.7004C44.1194 40.5711 44.6665 41.4166 45.0596 42.3292C45.7856 44.0281 46.0994 45.9433 44.672 47.4013C43.2077 48.8901 41.3865 48.2291 39.7622 47.5125C38.8085 47.0924 37.8733 46.5178 37.0858 45.8321C34.0895 43.2065 34.3848 39.197 37.7134 36.9977C39.9037 35.552 42.3094 35.3296 44.7335 36.2007C45.7856 36.5776 46.3763 36.2996 47.2007 35.6756C48.5851 34.6315 50.074 33.6369 51.6614 32.9635C54.5654 31.7279 57.4018 32.1048 59.9859 33.9952C60.5581 34.4153 61.1364 34.823 61.8747 35.0455C61.3702 34.4338 60.8657 33.8284 60.2935 33.1427C62.2254 31.3758 64.3481 30.3379 66.963 30.7765C68.8149 31.0854 69.8116 32.3333 69.7686 34.2114C69.7194 36.4787 68.5873 38.295 67.3506 40.1113C64.9572 37.739 64.262 34.9528 65.4679 32.8585C64.2989 33.1056 63.6959 33.8284 63.9482 35.1196C64.1943 36.3861 64.6004 37.6587 65.1541 38.8201C66.7169 42.113 66.2308 45.3564 63.4314 47.6731C59.6352 50.8238 55.2361 51.7073 50.4739 50.4964C49.5572 50.2616 48.6835 49.7242 47.8898 49.1743C46.9485 48.5256 46.5116 47.6793 46.6593 46.3634C46.807 44.9857 46.6101 43.503 46.2594 42.1439C45.7918 40.3646 44.5366 39.1599 42.7893 38.4865C43.0396 38.9022 43.2995 39.3039 43.556 39.7004ZM60.8396 48.2292C60.8525 48.1733 60.8639 48.1166 60.8741 48.0592C60.9248 47.7722 60.9443 47.4695 60.9633 47.1748L60.9633 47.1746C60.9712 47.0524 60.979 46.9316 60.9889 46.8139C60.9212 45.0038 60.4044 43.3913 59.0631 42.1681C57.8818 41.0932 56.7189 41.4453 56.3375 42.996L56.3237 43.0533C56.3024 43.1442 56.2831 43.2349 56.266 43.3252C55.956 44.9627 56.3439 46.5001 57.2726 47.9017L57.3036 47.9484C57.4111 48.1104 57.5215 48.2768 57.6376 48.4382C58.1358 49.132 58.739 49.7347 59.6697 49.4955C59.6989 49.4881 59.7284 49.4799 59.7582 49.4709C60.4322 49.2658 60.7107 48.7885 60.8396 48.2292ZM54.1979 43.0992L54.1979 43.0992C53.9161 42.8384 53.7003 42.6385 53.5379 42.6752C53.2887 42.7313 53.0845 42.9802 52.8792 43.2305C52.7905 43.3386 52.7017 43.4469 52.6089 43.5401C52.6993 43.6233 52.788 43.7245 52.8768 43.8258C53.0778 44.0551 53.2791 44.2847 53.501 44.3061C53.6968 44.3266 53.9142 44.1462 54.198 43.9107L54.198 43.9107C54.3424 43.7909 54.5039 43.6568 54.6885 43.5277C54.5063 43.3847 54.3433 43.2339 54.1979 43.0992ZM62.7484 41.1183L62.7481 41.1181L62.7485 41.1178C62.5274 40.9804 62.3438 40.848 62.185 40.7336L62.185 40.7336C61.88 40.5137 61.6669 40.3601 61.4565 40.3641C61.4511 40.3643 61.4456 40.3646 61.44 40.3651C61.1672 40.3831 60.6816 40.8673 60.7181 41.0504C60.7857 41.3778 61.1549 41.8226 61.4564 41.8782C61.4843 41.883 61.5128 41.8836 61.5421 41.8803C61.6761 41.8672 61.829 41.7713 62.0203 41.6328C62.0703 41.5967 62.1229 41.5577 62.1784 41.5166C62.3405 41.3964 62.5276 41.2577 62.7484 41.1183Z" fill="#F58021"/>
<defs>
<filter id="filter0_d" x="0.666504" y="0.500977" width="112" height="112" filterUnits="userSpaceOnUse" color-interpolation-filters="sRGB">
<feFlood flood-opacity="0" result="BackgroundImageFix"/>
<feColorMatrix in="SourceAlpha" type="matrix" values="0 0 0 0 0 0 0 0 0 0 0 0 0 0 0 0 0 0 127 0"/>
<feOffset dy="4"/>
<feGaussianBlur stdDeviation="2"/>
<feColorMatrix type="matrix" values="0 0 0 0 0 0 0 0 0 0 0 0 0 0 0 0 0 0 0.25 0"/>
<feBlend mode="normal" in2="BackgroundImageFix" result="effect1_dropShadow"/>
<feBlend mode="normal" in="SourceGraphic" in2="effect1_dropShadow" result="shape"/>
</filter>
</defs>
</svg>
