<svg width="113" height="113" viewBox="0 0 113 113" fill="none" xmlns="http://www.w3.org/2000/svg">
<g filter="url(#filter0_d)">
<circle cx="56.6665" cy="52.5005" r="52" fill="white"/>
</g>
<path fill-rule="evenodd" clip-rule="evenodd" d="M55.7255 23.0101C56.6666 22.9574 57.5641 23.1506 58.4878 23.4754C58.4573 23.5625 58.429 23.6481 58.4012 23.7322L58.4012 23.7323C58.3338 23.9364 58.2692 24.1318 58.1828 24.3183C57.917 24.8934 57.6469 25.4685 57.3768 26.0436C57.1066 26.6187 56.8365 27.1939 56.5707 27.769L56.57 27.7706C56.4269 28.0808 56.3572 28.2318 56.24 28.2955C56.1288 28.356 55.9749 28.3377 55.6748 28.3021L55.6209 28.2958C55.3159 28.2606 55.1329 28.1289 55.0894 27.8304C55.0709 27.7047 55.0475 27.5784 55.0241 27.4519L55.0241 27.4519L55.0241 27.4518L55.0241 27.4518L55.0241 27.4518L55.024 27.4517L55.024 27.4517L55.024 27.4517L55.024 27.4516L55.024 27.4516L55.024 27.4516C54.9592 27.1012 54.8941 26.7499 54.9325 26.408C55.0287 25.5634 55.1845 24.7242 55.3401 23.8861L55.3401 23.8861L55.3401 23.886L55.3401 23.8859L55.3402 23.8858L55.3402 23.8857L55.3402 23.8856L55.3402 23.8855L55.3402 23.8855L55.3402 23.8855L55.3402 23.8854L55.3402 23.8854C55.3819 23.6609 55.4236 23.4365 55.4641 23.212C55.4815 23.133 55.6296 23.0189 55.7255 23.0101ZM49.8533 25.8557L49.8535 25.8559L49.8535 25.856L49.8536 25.8561C50.4313 26.7219 50.9966 27.569 51.5866 28.4012C51.8045 28.7173 52.1007 28.9983 52.58 28.8051C53.312 28.5242 53.495 28.331 53.2771 27.5583C53.0164 26.6192 53.1782 25.7161 53.3406 24.8098L53.3406 24.8098C53.3573 24.7163 53.3741 24.6228 53.3904 24.5292C53.4514 24.1955 53.4427 23.8268 53.3643 23.4931C53.3294 23.3351 53.0157 23.098 52.8937 23.1243C51.5605 23.458 50.3928 24.1165 49.2774 24.9945C49.4716 25.2837 49.6632 25.5707 49.8533 25.8557ZM46.4305 32.551C47.041 33.0001 47.6532 33.4505 48.2764 33.9064C48.0672 34.9162 47.527 35.4869 46.4726 35.601C45.0174 35.7503 43.7887 35.1532 42.682 34.2576C42.621 34.205 42.5949 34.0118 42.6385 33.924C42.7024 33.7806 42.7661 33.6369 42.8298 33.4931L42.8304 33.4917L42.8312 33.4899L42.8315 33.4894L42.8322 33.4878L42.8322 33.4877L42.8322 33.4877L42.8322 33.4877L42.8322 33.4876L42.8323 33.4876L42.8323 33.4876L42.8323 33.4875L42.8323 33.4875L42.8323 33.4875L42.8323 33.4874L42.8324 33.4874L42.8324 33.4873L42.8324 33.4873L42.8324 33.4873C43.115 32.8495 43.3982 32.2103 43.7103 31.5885C43.7941 31.4135 43.9313 31.2676 44.0627 31.128L44.0628 31.1279C44.1226 31.0643 44.1813 31.0019 44.2331 30.9387C44.9725 31.4784 45.6991 32.0129 46.4281 32.5492L46.4296 32.5504L46.4299 32.5506L46.4305 32.551ZM46.8201 37.9174C45.1732 37.5048 43.5785 37.1009 41.8619 36.6619C41.8251 36.8657 41.784 37.076 41.7421 37.2909L41.7421 37.291C41.6646 37.6871 41.5842 38.099 41.5221 38.5145C41.4624 38.908 41.423 39.3048 41.3828 39.7094V39.7094C41.3585 39.9548 41.3338 40.203 41.3042 40.4549C42.681 41.1486 44.0927 41.3417 45.4869 40.5339C46.4803 39.972 46.8724 39.0413 46.8201 37.9174ZM41.3652 42.5721C41.1037 43.9594 41.3129 45.2676 41.8009 46.5408C41.8444 46.6461 41.9577 46.7603 42.0623 46.7954C44.1188 47.489 46.4367 46.1017 46.7591 44.2316C46.8026 43.9769 46.8201 43.7047 46.8026 43.4501C46.6981 42.335 46.4889 42.177 45.4084 42.335L45.0971 42.3806C44.3555 42.4894 43.6131 42.5983 42.864 42.6599C42.5349 42.684 42.1976 42.6502 41.8493 42.6152C41.6903 42.5993 41.529 42.5831 41.3652 42.5721ZM47.221 50.8065C47.9181 49.3139 47.7002 48.2427 46.5239 47.312C45.3039 48.2427 43.8923 48.5851 42.376 48.6378C42.2715 48.6378 42.0972 48.7871 42.0711 48.9012C41.8358 50.0163 42.1669 51.0085 42.7856 51.9216C42.8351 51.9937 42.9299 52.0308 43.0368 52.0727C43.0992 52.0971 43.1658 52.1231 43.23 52.1587C43.1998 52.179 43.1704 52.1992 43.1413 52.2193L43.1412 52.2193C43.0694 52.2688 42.9994 52.3169 42.925 52.3606C41.3391 53.3177 40.0581 54.5733 39.3 56.2854C38.3066 58.5419 37.9494 60.8687 38.8469 63.2657C39.0084 63.6965 39.157 64.1352 39.3054 64.5732L39.3054 64.5734L39.3055 64.5735L39.3055 64.5736L39.3056 64.5738L39.3056 64.5739L39.3057 64.5741L39.3057 64.5742L39.3058 64.5743L39.3058 64.5745L39.3058 64.5746L39.3059 64.5747L39.3059 64.5749L39.306 64.575L39.306 64.5751L39.3061 64.5753L39.3061 64.5754L39.3062 64.5756C39.4296 64.9401 39.5529 65.3041 39.6834 65.6627C40.1191 66.8743 40.154 68.1211 39.8054 69.3328C38.7772 72.8712 39.7444 76.1199 41.1125 79.3247C41.2326 79.5926 41.4286 79.8349 41.6175 80.0685L41.6266 80.0798C41.8881 80.4047 42.2279 80.51 42.6375 80.3695C43.047 80.2203 43.3433 79.9481 43.3259 79.5179C43.3084 78.9647 43.2387 78.4116 43.108 77.876C43.0078 77.4501 42.8858 77.0287 42.7638 76.6072C42.6418 76.1858 42.5198 75.7643 42.4196 75.3385C42.1408 74.1356 42.498 73.1434 43.474 72.3971C43.5156 72.3663 43.5564 72.3347 43.5968 72.3033L43.5969 72.3032L43.597 72.3031L43.5971 72.3031L43.5972 72.303L43.5972 72.3029L43.5973 72.3029L43.5973 72.3029L43.5974 72.3028L43.5976 72.3026C43.6838 72.2357 43.7686 72.1698 43.8574 72.1161C45.3301 71.2645 46.2363 69.9299 46.9857 68.446C47.195 68.0243 47.4658 67.6315 47.7362 67.2393L47.7362 67.2392C47.8599 67.0599 47.9835 66.8806 48.1011 66.6987L48.2056 66.7514C48.2579 66.9972 48.3113 67.2431 48.3647 67.4889L48.3647 67.4891C48.5248 68.2266 48.6849 68.9641 48.8156 69.7016C49.3995 72.9064 51.2817 75.3209 53.4601 77.5687C53.675 77.7938 53.9577 77.9592 54.2246 78.1153L54.2357 78.1218C54.6017 78.3413 54.9764 78.3413 55.3249 78.0516C55.6822 77.753 55.8129 77.3755 55.656 76.954C55.4992 76.5501 55.2988 76.155 55.0548 75.795C54.8017 75.4268 54.5286 75.0737 54.2555 74.7209C54.0208 74.4176 53.7862 74.1145 53.5647 73.8019C52.5277 72.3444 52.4842 71.3171 53.5037 69.8596C54.3141 68.6918 54.8718 67.4187 55.3685 66.0402C55.5071 66.1052 55.6434 66.1654 55.7768 66.2243L55.777 66.2243L55.7771 66.2244L55.7772 66.2245L55.7773 66.2245L55.7775 66.2246C56.0044 66.3248 56.2232 66.4214 56.4316 66.5319C58.5752 67.7085 59.891 69.5611 60.6753 71.8352C60.9938 72.7422 61.2683 73.6658 61.5425 74.5884L61.5425 74.5885L61.5427 74.5892C61.6135 74.8274 61.6843 75.0656 61.7558 75.3034C62.0085 76.1463 62.418 76.8926 62.9757 77.5599C63.1885 77.8128 63.401 78.0658 63.6134 78.3187L63.6135 78.3187L63.6135 78.3187L63.6135 78.3187C64.6103 79.5052 65.6053 80.6897 66.6181 81.8622C66.9057 82.1958 67.2543 82.5119 67.629 82.749C68.3086 83.1792 68.9709 83.0475 69.5983 82.4417C70.0514 82.0027 70.1299 81.4583 69.7203 80.7647C69.4854 80.3652 69.1824 80.0031 68.8843 79.6469L68.8843 79.6468L68.8842 79.6468L68.8841 79.6467L68.8837 79.6462C68.8282 79.5799 68.7729 79.5137 68.7182 79.4476C68.5439 79.2369 68.3435 79.0349 68.1344 78.8593C66.3654 77.3404 65.9297 75.3297 66.0082 73.1259C66.0208 72.7558 66.0657 72.3858 66.1093 72.0258L66.1094 72.0257C66.1258 71.8904 66.142 71.7564 66.1563 71.6244C66.4289 71.572 66.6983 71.5195 66.9618 71.4682L66.9634 71.4679C67.4489 71.3733 67.9145 71.2826 68.3435 71.203C68.506 71.5637 68.658 71.9324 68.8103 72.3017C69.14 73.1009 69.471 73.9034 69.912 74.6361C70.5607 75.7161 71.3293 76.7213 72.0977 77.7263L72.0981 77.7268L72.0982 77.7269L72.0982 77.727C72.2792 77.9636 72.4601 78.2003 72.6395 78.4379C72.9444 78.8418 73.354 79.1666 73.9117 79.0349C74.208 78.9647 74.4345 78.1569 74.2864 77.5862C74.147 77.0506 73.9814 76.5062 73.7113 76.0321C72.5087 73.8985 72.0469 71.5542 71.7245 69.1748C71.5589 67.9631 70.8444 67.4187 69.6419 67.6558C67.3937 68.1036 65.1368 68.3231 62.845 68.1211C62.6882 68.1036 62.5314 68.0685 62.3746 68.0334L62.3745 68.0333C60.7537 67.647 60.1089 66.1368 60.9454 64.6705C60.9715 64.6178 60.9977 64.5651 61.0412 64.5212C61.8203 63.7298 62.2425 62.7466 62.6665 61.7594C62.8164 61.4105 62.9665 61.061 63.1326 60.7194C63.4637 60.0521 64.0911 59.4902 64.6924 58.9985C65.4331 58.4014 66.3393 58.1029 67.2717 57.901C67.4024 57.8746 67.5941 57.7517 67.6202 57.6463C67.6464 57.5234 67.5418 57.2951 67.4373 57.2424C67.3707 57.2108 67.3038 57.1783 67.2365 57.1456C66.837 56.9512 66.4246 56.7507 65.9995 56.6981C65.3023 56.6103 64.5791 56.6278 63.8733 56.6981C63.089 56.7771 62.3919 56.5312 61.7384 56.2152C61.0412 55.8815 60.379 55.4249 59.7516 54.9684C58.0349 53.7128 56.3009 52.4923 54.3315 51.6582C52.2228 50.7539 50.0356 50.4553 47.77 50.789C47.6044 50.7714 47.4214 50.7802 47.221 50.8065ZM56.7794 49.1165C56.0823 49.5555 55.3241 49.7487 54.505 49.7487C53.7208 49.7224 52.9714 49.5643 52.3353 49.0726C51.6294 48.537 51.3593 47.7468 51.7689 46.9829C52.0303 46.5022 52.3946 46.0808 52.759 45.6593L52.7591 45.6592L52.7592 45.659L52.7593 45.6589L52.7595 45.6588L52.7596 45.6586L52.7597 45.6585L52.7598 45.6583L52.7599 45.6582L52.7601 45.658L52.7602 45.6579L52.7603 45.6578L52.7604 45.6576L52.7604 45.6576L52.7605 45.6576L52.7605 45.6576L52.7605 45.6576C52.8814 45.5177 53.0024 45.3778 53.1195 45.2357C53.1805 45.1654 53.3287 45.1391 53.4332 45.1479C55.3241 45.3323 56.7881 46.6405 57.1279 48.2912C57.2151 48.6951 57.1018 48.9146 56.7794 49.1165ZM47.3164 26.5325C48.3098 27.2876 49.704 29.0085 50.6538 30.6328L50.5558 30.7578L50.5558 30.7578L50.5558 30.7578L50.5556 30.758L50.5555 30.7581L50.5554 30.7583C50.3308 31.0445 50.1186 31.3149 49.9131 31.5987C49.7301 31.8533 49.5123 31.9147 49.1986 31.8182C47.5865 31.3001 46.4798 30.1411 45.3122 28.8943C45.9912 28.0961 46.6529 27.3154 47.3145 26.5347L47.3149 26.5342L47.3164 26.5325ZM60.9102 31.9243C61.6283 31.3011 62.5029 31.1922 63.3827 31.0826L63.3827 31.0826L63.3828 31.0826L63.3828 31.0826L63.3829 31.0826L63.3829 31.0826L63.383 31.0826L63.383 31.0826L63.383 31.0826L63.3831 31.0826L63.3831 31.0825L63.3832 31.0825C63.5816 31.0578 63.7803 31.0331 63.9775 31.0024C64.4307 30.9321 64.8838 30.8004 65.3195 30.66C65.4153 30.6248 65.5548 30.4492 65.5373 30.3614C65.4066 29.4922 65.1365 28.6756 64.4132 28.1137C64.2912 28.0171 64.0908 27.9556 63.9514 27.9732C62.8883 28.14 61.9036 28.5088 61.0235 29.1322C60.919 29.2112 60.8144 29.2902 60.7185 29.378C59.8123 30.2209 59.8733 31.178 60.9102 31.9243ZM61.2505 46.3303C60.3704 44.7499 56.5363 43.2397 55.5429 44.0914C55.5429 44.1177 55.5429 44.1616 55.5603 44.1704C56.7454 45.2065 57.5994 46.5147 58.4272 47.8405C58.6276 48.1654 58.828 48.183 59.1417 48.0776C59.8737 47.8317 60.7102 47.1469 61.2505 46.3303ZM67.1053 63.3714C66.9746 64.0474 66.7045 64.2494 66.0074 64.267C65.8849 64.244 65.7624 64.2257 65.6405 64.2075C65.3896 64.1701 65.1412 64.1331 64.9007 64.0562C64.1164 63.8192 63.7766 63.266 63.9247 62.4494C63.977 62.1509 64.0903 61.8612 64.221 61.589C64.6916 60.6319 65.4671 59.9559 66.3559 59.4115C66.6609 59.2271 67.0269 59.113 67.3755 59.0515C67.5366 59.0203 67.7153 59.0645 67.8928 59.1085C67.965 59.1264 68.0369 59.1442 68.1074 59.1569C68.0927 59.2213 68.0814 59.2892 68.07 59.3575C68.0412 59.5311 68.012 59.7069 67.9244 59.8329C67.419 60.5617 67.2709 61.3783 67.2273 62.2387C67.2099 62.6163 67.175 63.0026 67.1053 63.3714ZM65.4932 62.0895C65.1098 62.0895 64.77 62.4319 64.7787 62.8182C64.7809 62.9178 64.8036 63.0124 64.8425 63.098C64.8042 63.0129 64.7818 62.9191 64.7797 62.8203C64.7797 62.434 65.1108 62.0916 65.4942 62.0916C65.7773 62.0916 66.0241 62.2609 66.1362 62.5071C66.0246 62.2598 65.7772 62.0895 65.4932 62.0895ZM61.1718 34.3614C61.5113 34.3898 61.8486 34.4178 62.1843 34.4457L62.1844 34.4457L62.1846 34.4457L62.1847 34.4457L62.1847 34.4457L62.1848 34.4457C63.5118 34.5558 64.8122 34.6638 66.1126 34.7829C66.496 34.818 66.618 34.6688 66.6529 34.3088C66.7226 33.5361 66.4612 32.9303 65.8163 32.5088C64.7271 31.8064 62.7839 31.9293 61.7905 32.7722C61.2851 33.1937 61.0673 33.7293 61.1718 34.3614ZM60.3879 24.2554C61.4335 24.8261 62.4269 25.4056 63.124 26.3977C61.5207 27.346 59.9696 28.2679 58.4185 29.1986C58.131 28.7421 58.0961 28.4348 58.3052 27.7938C58.7028 26.5593 59.4555 25.5303 60.2185 24.4872L60.2189 24.4866L60.2195 24.4858C60.2756 24.4091 60.3318 24.3323 60.3879 24.2554ZM58.0177 42.4949C59.1046 42.8673 59.978 43.5402 60.8683 44.2261L60.8683 44.2261C61.4055 44.64 61.9488 45.0586 62.549 45.4188C62.6306 45.2893 62.7118 45.1609 62.7926 45.0333L62.7936 45.0316L62.7943 45.0306L62.7944 45.0304C63.1184 44.5184 63.4346 44.0187 63.7341 43.5134C63.7776 43.4432 63.7515 43.2413 63.6818 43.1886C62.549 42.293 61.329 41.573 59.839 41.5028C59.0983 41.4852 58.436 41.6784 58.0177 42.4949ZM66.3049 36.6652C66.2875 37.3845 66.2696 38.1212 65.8082 38.7265C65.6271 38.6665 65.448 38.6058 65.2701 38.5455C64.7974 38.3854 64.3335 38.2283 63.865 38.0943C63.0372 37.8748 62.2094 37.6729 61.3729 37.4885C61.0592 37.4182 60.9894 37.2602 61.033 36.9617C61.1463 36.1363 61.7127 35.6271 62.6712 35.5919C63.8999 35.5393 65.0327 35.9519 66.1394 36.4436C66.2178 36.4788 66.3049 36.5929 66.3049 36.6631L66.3049 36.6652ZM63.2271 63.3887C63.041 63.6178 62.8746 63.8193 62.7194 64.0071L62.7189 64.0077C62.5472 64.2155 62.3893 64.4067 62.2337 64.6003C62.1803 64.667 62.1246 64.7321 62.0691 64.7971L62.069 64.7972C61.9345 64.9547 61.8008 65.1112 61.7021 65.2852C61.3797 65.8471 61.5366 66.4617 62.1291 66.7164C62.5997 66.9183 63.1225 67.05 63.6279 67.1027C64.9786 67.252 66.3118 67.1203 67.6189 66.7252C67.5318 66.1105 67.2529 65.8296 66.6429 65.7681C66.3385 65.7407 66.0306 65.7304 65.7235 65.7201L65.7234 65.7201L65.7232 65.7201L65.723 65.7201C65.5382 65.7139 65.3536 65.7078 65.1703 65.6979C63.9852 65.6276 63.7935 65.4432 63.5582 64.2842C63.5173 64.0899 63.4372 63.8996 63.3521 63.6973C63.3103 63.5979 63.2673 63.4957 63.2271 63.3887ZM64.3261 41.922C62.9319 41.1932 61.5115 40.5611 59.9343 40.245C60.1608 39.1211 60.9015 38.6206 62.0692 38.7699C63.2456 38.9104 64.2912 39.4021 65.2498 40.0781C65.3456 40.1484 65.4676 40.3064 65.4415 40.3767C65.2498 40.8684 65.0494 41.3688 64.7966 41.8342C64.7444 41.922 64.4394 41.9835 64.3261 41.922ZM68.152 61.5286C68.152 62.4417 68.3002 62.591 68.9973 62.4593C69.2848 62.4066 69.5898 62.2837 69.8251 62.1081C70.7313 61.432 70.984 59.7989 70.3566 58.8945C70.2085 58.6838 70.0778 58.596 69.8338 58.7716C68.823 59.5179 68.1956 60.4574 68.152 61.5286Z" fill="#F58021"/>
<defs>
<filter id="filter0_d" x="0.666504" y="0.500488" width="112" height="112" filterUnits="userSpaceOnUse" color-interpolation-filters="sRGB">
<feFlood flood-opacity="0" result="BackgroundImageFix"/>
<feColorMatrix in="SourceAlpha" type="matrix" values="0 0 0 0 0 0 0 0 0 0 0 0 0 0 0 0 0 0 127 0"/>
<feOffset dy="4"/>
<feGaussianBlur stdDeviation="2"/>
<feColorMatrix type="matrix" values="0 0 0 0 0 0 0 0 0 0 0 0 0 0 0 0 0 0 0.25 0"/>
<feBlend mode="normal" in2="BackgroundImageFix" result="effect1_dropShadow"/>
<feBlend mode="normal" in="SourceGraphic" in2="effect1_dropShadow" result="shape"/>
</filter>
</defs>
</svg>
