<svg width="113" height="113" viewBox="0 0 113 113" fill="none" xmlns="http://www.w3.org/2000/svg">
<g filter="url(#filter0_d)">
<circle cx="56.6665" cy="52.5005" r="52" fill="white"/>
</g>
<path fill-rule="evenodd" clip-rule="evenodd" d="M44.9811 59.2533C41.697 60.2468 38.3873 60.094 35.0523 57.8776C34.7961 58.1998 34.5336 58.5242 34.2685 58.8518C33.6113 59.664 32.9376 60.4965 32.3027 61.3678C31.8317 62.0429 31.3926 62.7434 30.9534 63.444L30.9534 63.444C30.5142 64.1446 30.0751 64.8452 29.6041 65.5203C28.5603 67.0233 28.1784 68.6538 28.2803 70.4625C28.4075 72.7808 27.491 73.9527 25.2252 74.3603C20.5663 75.201 16.3911 71.7363 16.3656 67.0233C16.3656 66.5631 16.3574 66.1029 16.3492 65.6443C16.337 64.9606 16.3249 64.2805 16.3401 63.6096C16.3829 61.8106 17.1635 60.2456 17.9405 58.6876C18.0878 58.3924 18.2349 58.0974 18.3768 57.8012C18.7441 57.039 19.1149 56.2781 19.4857 55.517C20.8624 52.6911 22.2397 49.8642 23.4431 46.9741C25.2121 42.7384 27.8694 39.0954 30.5362 35.4395C31.0934 34.6757 31.6509 33.9113 32.2009 33.1409C32.2273 33.1079 32.2553 33.0749 32.2838 33.0415L32.284 33.0413L32.284 33.0413L32.284 33.0412L32.284 33.0412L32.284 33.0412C32.3654 32.9456 32.4498 32.8464 32.5064 32.7333C35.4851 27.307 40.7805 26.0332 46.2286 24.9632C47.5722 24.7038 48.9048 24.3788 50.2366 24.054C51.7818 23.6772 53.3258 23.3007 54.8846 23.0271C57.7359 22.5176 60.6637 22.11 63.566 22.0081C67.0029 21.8807 69.9052 23.4856 72.4765 25.702C68.5813 23.7149 64.4061 23.0271 60.0781 23.129C58.9834 23.1545 57.8887 23.2564 56.794 23.3837C55.2155 23.5621 54.5536 24.7339 54.1208 26.0841C53.0006 29.5233 53.2298 32.9116 54.4263 36.3253C54.7147 37.1455 54.8945 38.0109 55.0736 38.873L55.0736 38.8731L55.0736 38.8731L55.0736 38.8731L55.0736 38.8732C55.1949 39.4571 55.3159 40.0394 55.4701 40.6052C55.6667 41.3102 55.8586 42.0175 56.0507 42.7252L56.0508 42.7258C56.7538 45.3167 57.4581 47.9121 58.3979 50.4133C58.7797 51.4578 60.0527 52.4768 61.1474 52.8844C65.4499 54.4384 69.8543 55.2791 74.4114 53.7251C80.1396 51.7635 83.0928 45.6494 80.9288 39.9683C80.2354 38.1686 79.4129 36.4243 78.5869 34.6725L78.5868 34.6724L78.5868 34.6724C78.4423 34.366 78.2978 34.0594 78.1538 33.7523C78.0219 33.4695 77.7507 33.2426 77.4844 33.0198L77.4844 33.0198C77.3908 32.9415 77.2979 32.8637 77.2118 32.7842C76.8826 32.4716 76.5393 32.1675 76.195 31.8624C75.5012 31.2475 74.8033 30.6291 74.2077 29.931C73.3676 28.9374 73.393 27.6891 74.1313 26.6191C74.8442 25.5746 75.9898 25.3199 77.1863 25.5237C79.0448 25.8294 80.2414 26.9758 80.8524 28.6827C81.438 30.3386 80.8779 31.7652 79.4267 33.0135C81.3361 34.593 81.9726 36.8603 82.5327 39.1021C82.7447 39.951 82.8587 40.8271 82.9729 41.7052V41.7053C83.1054 42.7247 83.2383 43.7468 83.5256 44.7322C84.0052 46.364 84.5807 47.9736 85.1567 49.5849C85.651 50.9672 86.1456 52.3507 86.5806 53.7506C87.1454 55.5427 87.6656 57.3498 88.1853 59.1557L88.1855 59.1564C88.6262 60.6874 89.0666 62.2176 89.5338 63.737C89.7942 64.5838 90.1274 65.4097 90.4603 66.2348L90.4603 66.235L90.4604 66.2352L90.4605 66.2354L90.4606 66.2357C90.6484 66.7012 90.836 67.1663 91.0104 67.6347C91.5684 69.1164 92.8318 69.7836 94.084 70.4449C94.3174 70.5681 94.5503 70.6911 94.7783 70.8192C95.9494 71.4816 96.5604 72.3477 96.2549 73.7234C95.9748 75.0226 95.1347 75.8379 93.5817 75.7869C90.3994 75.6595 87.2425 75.3538 84.0857 75.0227C83.551 74.9717 82.9909 74.4112 82.6091 73.9527C80.4705 71.3796 78.3575 68.7811 76.2698 66.1826C74.8187 64.3739 73.7494 62.3868 73.1894 60.1195C72.9513 59.1865 72.466 58.3 71.9862 57.4236C71.8502 57.1753 71.7147 56.9278 71.5854 56.6803C71.4581 56.4255 71.1017 56.1962 70.8217 56.1453L70.6206 56.1054C69.0077 55.7846 67.4033 55.4654 66.01 56.8841C65.6553 57.2643 65.0738 57.468 64.5664 57.6457L64.5589 57.6483C63.6678 57.954 63.2605 58.5145 63.5914 59.3807C64.7659 62.5316 64.6772 65.7509 64.5883 68.9775V68.9776C64.5442 70.5772 64.5001 72.1786 64.6098 73.7743C64.655 74.3858 64.7405 74.9972 64.826 75.6086C64.9329 76.3729 65.0397 77.1371 65.068 77.9014C65.0935 78.4873 64.8389 79.328 64.4316 79.6337C61.0456 82.1813 57.2522 82.6144 53.357 81.2132C51.4222 80.4999 50.1238 79.0987 49.8183 76.704C49.2327 71.7363 48.4435 66.7941 47.4252 61.9028C47.0585 60.0679 46.1759 58.3157 45.3161 56.6089L45.3161 56.6088L45.316 56.6086L45.316 56.6085C45.2208 56.4196 45.1259 56.2312 45.0321 56.0434C42.588 51.1776 41.9007 46.1334 42.7662 40.7326C43.4791 36.2489 44.4465 31.969 47.4252 28.4279C48.0395 27.7046 48.7693 27.084 49.4962 26.4659L49.4963 26.4658L49.4964 26.4658L49.4964 26.4657C49.7936 26.213 50.0903 25.9607 50.3784 25.702C50.4219 25.6646 50.4685 25.6288 50.5156 25.5926C50.661 25.4808 50.8106 25.3657 50.8876 25.1925C46.9669 25.2435 43.4282 26.3389 39.9403 27.9693C36.673 29.4687 34.8006 32.1427 32.9048 34.8503L32.9047 34.8503C32.4814 35.4549 32.0568 36.0612 31.6153 36.6565C31.4371 36.9112 31.4371 37.3443 31.4626 37.701C31.8364 41.2673 33.2106 44.5162 34.5819 47.7585L34.6704 47.9676C34.9431 48.5863 35.086 49.27 35.2289 49.9537C35.2861 50.2272 35.3432 50.5006 35.4087 50.7699C35.5614 51.4578 35.7142 52.1711 35.7651 52.8844C35.7755 53.0294 35.7868 53.1754 35.7981 53.3219C35.8704 54.2568 35.9446 55.2169 35.7906 56.1198C35.4851 57.7248 35.6124 58.2088 37.2672 58.4636C37.7923 58.5161 38.3218 58.5686 38.8536 58.6214L38.8664 58.6227L38.8743 58.6235L38.8802 58.6241C40.9179 58.8263 42.9893 59.0318 44.9811 59.2533ZM57.2527 35.3348C55.7761 34.7234 55.1651 33.2712 54.9614 31.5644C54.7323 29.7047 56.4126 27.3864 58.3729 26.6986C59.9259 26.1636 62.1153 27.0297 62.9809 28.5583C63.4901 29.4754 63.6937 30.2142 62.5736 31.0039C61.3061 31.8917 60.1288 32.8955 58.8585 33.9786C58.3426 34.4184 57.8115 34.8713 57.2527 35.3348ZM62.0891 43.153C61.6308 45.1655 62.9292 46.7705 64.5077 46.6431C64.6506 46.1873 64.7872 45.7409 64.922 45.3006C65.1714 44.4858 65.4143 43.692 65.6788 42.8982C65.7488 42.6997 65.8455 42.5066 65.942 42.3139L65.9421 42.3139L65.9421 42.3138C66.0561 42.0861 66.1699 41.859 66.2388 41.6244C66.4425 40.8856 66.6716 39.9176 65.7297 39.6883C65.0423 39.5354 63.9476 39.7647 63.5148 40.2488C62.8274 41.013 62.3182 42.1085 62.0891 43.153ZM71.1768 40.3004C71.2904 40.1487 71.3951 39.9835 71.4981 39.8208C71.7412 39.4371 71.9751 39.0678 72.2969 38.9247C72.6279 38.7718 73.3408 39.0775 73.6972 39.3832C73.7757 39.4509 73.8546 39.5186 73.9337 39.5864C74.7772 40.3098 75.6378 41.0479 76.243 41.9563C76.574 42.4913 76.4467 43.4848 76.2176 44.1472C76.0394 44.6312 75.3774 45.1407 74.8683 45.2426C74.5373 45.2936 74.0027 44.6822 73.6717 44.2746C73.1116 43.5867 72.6279 42.8734 72.1442 42.1091C71.8977 41.7744 71.7121 41.391 71.4948 40.9419L71.4947 40.9419C71.3978 40.7416 71.2945 40.5282 71.1768 40.3004ZM72.5193 49.4494L72.5266 49.4449C72.5194 49.4014 72.5101 49.3558 72.5005 49.3088C72.4763 49.1905 72.4503 49.0629 72.4503 48.9353C72.3145 48.9014 72.1787 48.8561 72.0429 48.8108C71.7714 48.7202 71.4998 48.6296 71.2283 48.6296C70.1845 48.6296 69.1406 48.6551 68.1223 48.7825C67.715 48.8335 67.2312 49.1137 67.053 49.4194C66.9512 49.5977 67.2822 50.1582 67.5622 50.4129C67.7109 50.5617 67.9291 50.6149 68.1509 50.669C68.3087 50.7075 68.4684 50.7464 68.606 50.8205C68.8861 50.9734 69.3952 51.2791 69.3698 51.4065C69.2679 51.7631 69.0133 52.1198 68.7078 52.3745C68.5599 52.5061 68.3484 52.5527 68.0868 52.6104C67.9432 52.642 67.7846 52.677 67.6131 52.7312C68.6013 52.6664 69.5173 52.6015 70.4333 52.5367C70.9569 52.4996 71.4804 52.4626 72.0175 52.4255C71.7169 52.2918 71.3725 52.2513 71.0409 52.2123C70.3613 52.1323 69.7354 52.0587 69.6498 51.2027C70.6908 50.5675 71.6052 50.0083 72.5193 49.4494Z" fill="#F58021"/>
<defs>
<filter id="filter0_d" x="0.666504" y="0.500488" width="112" height="112" filterUnits="userSpaceOnUse" color-interpolation-filters="sRGB">
<feFlood flood-opacity="0" result="BackgroundImageFix"/>
<feColorMatrix in="SourceAlpha" type="matrix" values="0 0 0 0 0 0 0 0 0 0 0 0 0 0 0 0 0 0 127 0"/>
<feOffset dy="4"/>
<feGaussianBlur stdDeviation="2"/>
<feColorMatrix type="matrix" values="0 0 0 0 0 0 0 0 0 0 0 0 0 0 0 0 0 0 0.25 0"/>
<feBlend mode="normal" in2="BackgroundImageFix" result="effect1_dropShadow"/>
<feBlend mode="normal" in="SourceGraphic" in2="effect1_dropShadow" result="shape"/>
</filter>
</defs>
</svg>
