<svg width="113" height="113" viewBox="0 0 113 113" fill="none" xmlns="http://www.w3.org/2000/svg">
<g filter="url(#filter0_d)">
<circle cx="56.6665" cy="52.501" r="52" fill="white"/>
</g>
<path d="M41.5551 62.7162C41.5203 62.7776 41.4914 62.8478 41.4218 62.9705C40.6474 61.6686 40.4227 60.2287 40.1486 58.809C40.0991 58.7912 40.0408 58.7792 39.9972 58.7702C39.8294 59.2002 39.6064 59.6035 39.5056 60.0396C39.157 61.4679 39.2624 62.8985 39.6035 64.3243C40.0209 66.0172 40.4383 67.7101 40.7946 69.4056C41.0597 70.6787 41.2142 71.9746 40.9352 73.2802C40.6302 74.7176 39.9929 75.8808 38.5451 76.4276C37.8996 76.6676 37.265 76.5825 36.6793 76.2485C36.1081 75.9175 36.0339 75.3311 36.5276 74.8998C36.8208 74.6404 37.1548 74.3666 37.5153 74.2277C38.2276 73.9557 38.593 73.4447 38.6494 72.7328C38.7031 72.0738 38.7247 71.3852 38.6096 70.737C38.291 69.0036 37.9085 67.2875 37.5026 65.5742C37.0468 63.6525 36.7802 61.7318 37.1129 59.7671C37.4026 58.0601 38.141 56.6132 39.4944 55.5062C39.5931 55.4276 39.6832 55.3548 39.7819 55.2761C39.8429 55.2354 39.9011 55.2093 40.0115 55.1483C40.0967 55.4857 40.1644 55.7967 40.2408 56.1018C40.6953 53.9414 40.8293 51.6768 42.6295 50.0299C45.2696 51.5109 46.7333 53.8155 47.3225 56.7546C47.8526 53.3989 45.8535 51.083 43.9008 48.6852C44.3889 48.3975 44.851 48.1272 45.313 47.8569C45.7053 47.6332 46.0976 47.4095 46.4928 47.1711C47.3819 46.6538 47.4081 46.6363 48.0097 47.5067C48.5734 48.3387 49.0674 49.2173 49.5816 50.0696C49.6781 50.2342 49.7658 50.4046 49.9117 50.5489C49.8147 48.9982 49.1828 47.6267 48.4111 46.2339C49.2945 45.7459 50.1547 45.2607 51.0382 44.8108C51.1574 44.744 51.3992 44.8624 51.5478 44.9539C53.2295 45.9936 54.2141 47.575 54.8966 49.3834C55.1016 49.9207 55.2805 50.4754 55.5175 51.004C55.5137 48.2846 54.1463 46.0684 52.7468 43.7847C53.7491 43.1156 54.7252 42.4639 55.7624 41.7715C56.7457 42.8196 57.3281 44.1733 57.9658 45.5156C58.0273 44.4698 57.7455 43.5131 57.2399 42.6168C57.0616 42.2907 56.8745 41.9704 56.6613 41.6675C56.4014 41.2941 56.4064 40.96 56.7286 40.6305C57.3789 39.9802 58.0174 39.3122 58.6676 38.6619C61.253 40.3448 62.801 42.6439 63.3817 45.627C63.5233 44.057 63.1093 42.578 62.5412 41.1511C61.976 39.7095 61.0564 38.4918 59.9012 37.3551C61.2194 36.1571 62.4911 35.0029 63.7977 33.8253C65.003 35.2085 65.9957 36.5555 66.4712 38.2222C66.3445 36.3989 65.7526 34.7462 64.5935 33.205C65.2126 32.9062 65.756 32.607 66.3229 32.3812C66.4451 32.3379 66.6695 32.4679 66.8239 32.5683C67.5031 33.0053 68.2282 33.2462 69.0546 33.2033C68.1025 32.9994 67.5683 32.3258 67.1473 31.5384C66.8462 30.9889 67.0462 30.6646 67.6397 30.6118C68.6289 30.5112 69.6092 30.3782 70.5866 30.2218C71.2586 30.1166 71.907 29.9 72.5789 29.7949C73.5941 29.6386 74.5259 29.8688 75.467 30.3217C76.1721 30.6651 76.9988 30.7746 77.7878 30.9221C78.2682 31.0211 78.7115 31.4247 78.7301 31.9083C78.7397 32.2454 78.758 32.5766 78.7995 32.905C78.9211 33.8287 78.6408 34.6009 78.011 35.3012C77.9526 35.213 77.903 35.157 77.8708 35.0895C77.5839 34.3907 77.5897 34.3995 76.8685 34.563C76.185 34.7267 75.5279 34.9491 75.0579 35.53C74.5154 36.2101 74.4563 37.0128 74.9379 37.6071C75.3262 38.0983 76.3974 38.2354 77.0338 37.8869C77.153 37.8201 77.2721 37.7532 77.3913 37.6864C77.7103 38.4147 77.601 38.971 77.029 39.4546C76.5759 39.8334 76.0791 40.165 75.5621 40.561C74.9676 40.1948 74.3351 39.7902 73.6853 39.4354C73.0209 39.0776 72.3306 38.8134 71.4553 39.067C71.7933 39.2357 72.0468 39.3717 72.3965 39.5581C70.9546 40.1518 69.9849 41.0789 69.4472 42.5063C69.2625 41.9809 69.0837 41.4643 68.864 40.8478C68.6246 44.073 71.1118 48.4163 76.0014 49.8965C75.7746 49.9716 75.5972 50.0264 75.4169 50.0958C75.4229 50.1427 75.4201 50.1955 75.426 50.2424C75.6326 50.2317 75.8335 50.2502 76.0312 50.2072C76.7118 50.0582 77.3836 49.8768 78.07 49.7366C78.7331 49.5992 79.3331 49.7838 79.9569 50.2322C79.0766 50.8199 78.2661 51.361 77.4642 51.8963C76.7786 52.3413 76.0987 52.7951 75.4014 53.2225C75.2648 53.3009 75.0321 53.3291 74.901 53.264C72.1506 51.9202 69.2333 51.3492 66.2097 51.3199C65.2261 51.3151 64.3496 51.0734 63.5479 50.4893C63.3351 50.3388 63.0875 50.2497 62.7906 50.219C63.1204 50.5839 63.4414 50.9547 63.8324 51.3933C60.17 51.9175 56.844 53.1585 53.7876 55.1861C53.3989 54.5043 53.0336 53.8579 52.6741 53.2202C52.6421 53.2289 52.6188 53.2317 52.5868 53.2403C52.6397 53.434 52.6751 53.6393 52.7512 53.8301C53.1262 54.8136 53.05 55.7803 52.7411 56.7751C52.0337 59.0281 50.5567 60.7264 48.9748 62.3802C48.0982 63.2961 47.315 64.315 46.5434 65.3134C45.9546 66.0754 45.6484 66.9794 45.6304 67.9581C45.6308 68.1104 45.5846 68.2685 45.5531 68.4676C45.3958 68.3818 45.2646 68.3167 45.1014 68.2221C45.1162 68.3013 45.1134 68.3541 45.1309 68.3805C45.8902 69.4509 46.8261 70.1617 48.231 69.9106C48.7487 69.8194 49.2407 69.898 49.6582 70.4333C49.4665 70.5614 49.2834 70.6835 49.1091 70.7999C47.7582 71.7017 46.4014 72.5948 45.0709 73.5084C44.7658 73.7121 44.5824 73.6819 44.2967 73.4783C43.2881 72.7525 42.6628 71.7326 42.0898 70.6778C41.8793 70.2841 41.8227 69.7622 41.8303 69.2993C41.8382 67.7931 41.9305 66.2814 41.9326 64.7664C41.9396 64.0749 41.7953 63.3826 41.7267 62.6907C41.6685 62.7168 41.6162 62.7136 41.5551 62.7162ZM72.8153 31.2524C72.8068 31.3344 72.807 31.4106 72.7985 31.4926C73.2499 31.6238 73.6984 31.8076 74.1613 31.8802C74.3302 31.9074 74.5391 31.6535 74.7308 31.5255C74.5617 31.384 74.3951 31.1136 74.2293 31.1099C73.7549 31.0958 73.2808 31.1961 72.8153 31.2524Z" fill="#F58021"/>
<path d="M55.0067 61.7912C54.931 61.7909 54.7593 61.7783 54.4944 61.7771C55.2585 62.4375 56.0707 62.4678 56.8825 62.3837C57.8485 62.2857 58.8086 62.1027 59.7746 62.0047C60.345 61.9546 60.8954 62.0834 61.2548 62.6833C61.1299 62.7794 61.0195 62.8786 60.8975 62.9601C59.4504 63.9267 58.0091 64.902 56.5415 65.8568C56.341 65.9907 56.0239 66.0243 55.7822 65.9821C55.0572 65.8555 54.3495 65.6791 53.6331 65.5085C52.7944 65.3051 52.281 64.8335 52.2118 63.9125C52.1907 63.5957 52.0182 63.2782 51.8545 62.993C51.5302 62.4461 51.1622 61.9282 50.7941 61.3723C52.1446 60.1267 52.714 58.461 53.3387 56.822C53.6135 56.1166 54.0548 55.6437 54.7584 55.3392C55.3334 55.9988 55.8123 56.6843 55.6021 57.6392C55.5128 58.017 55.4177 58.386 55.3633 58.7787C55.2405 59.7516 55.1293 60.7421 55.0067 61.7912Z" fill="#F58021"/>
<path d="M59.4788 52.9895C61.2448 52.6373 62.8682 52.3167 64.5468 51.9846C64.8013 53.6983 64.3164 55.4348 65.0829 57.0484C64.8211 57.1468 64.5856 57.2278 64.3471 57.3234C64.3502 57.385 64.362 57.4408 64.365 57.5024C64.7376 57.4954 65.1248 57.5295 65.4884 57.452C66.0819 57.3229 66.6431 57.0881 67.2336 56.9355C67.9027 56.7687 68.4215 57.0585 68.8972 57.6062C68.3305 57.9847 67.7813 58.3515 67.2408 58.7126C66.2556 59.3705 65.2821 60.0462 64.2795 60.6777C64.0993 60.7853 63.7849 60.8044 63.5781 60.7389C62.748 60.4915 62.1877 59.873 61.8744 59.115C61.0459 57.1229 60.293 55.093 59.4788 52.9895Z" fill="#F58021"/>
<defs>
<filter id="filter0_d" x="0.666504" y="0.500977" width="112" height="112" filterUnits="userSpaceOnUse" color-interpolation-filters="sRGB">
<feFlood flood-opacity="0" result="BackgroundImageFix"/>
<feColorMatrix in="SourceAlpha" type="matrix" values="0 0 0 0 0 0 0 0 0 0 0 0 0 0 0 0 0 0 127 0"/>
<feOffset dy="4"/>
<feGaussianBlur stdDeviation="2"/>
<feColorMatrix type="matrix" values="0 0 0 0 0 0 0 0 0 0 0 0 0 0 0 0 0 0 0.25 0"/>
<feBlend mode="normal" in2="BackgroundImageFix" result="effect1_dropShadow"/>
<feBlend mode="normal" in="SourceGraphic" in2="effect1_dropShadow" result="shape"/>
</filter>
</defs>
</svg>
