<svg width="121" height="162" viewBox="0 0 121 162" fill="none" xmlns="http://www.w3.org/2000/svg">
<g filter="url(#filter0_d)">
<path d="M60.6123 16.562C38.3304 16.562 20.3022 33.8072 20.3022 55.0582C20.3022 76.3092 60.6123 137.211 60.6123 137.211C60.6123 137.211 100.922 76.3092 100.922 55.0582C100.922 33.8072 82.8943 16.562 60.6123 16.562Z" fill="#F58021"/>
</g>
<path d="M51.0228 76.5528C54.2844 75.7814 56.3465 73.6161 58.4355 71.3154C58.1525 71.2343 57.9368 71.1666 57.7212 71.1125C54.8505 70.3817 52.2088 69.1366 49.7828 67.445C48.2868 66.4029 47.0603 65.0902 46.1304 63.4933C46.0091 63.2903 45.9147 63.0738 45.8204 62.8573C45.7934 62.8031 45.7934 62.7355 45.7665 62.546C46.683 62.8302 47.5455 63.1009 48.3946 63.3715C48.4216 63.3445 48.4351 63.3309 48.462 63.3039C48.3677 63.2227 48.2868 63.1415 48.1925 63.0738C47.0873 62.3565 46.0091 61.6122 44.8904 60.9356C43.61 60.1507 42.2623 59.474 41.0223 58.662C39.3645 57.5658 38.192 56.0231 37.3429 54.2367C37.3025 54.1555 37.289 54.0743 37.2755 53.9931C37.262 53.9525 37.2755 53.8984 37.2755 53.7766C38.6502 54.372 39.9306 55.2111 41.521 55.0622C38.3942 53.2623 36.4534 50.7452 36.5881 46.9559C37.9224 48.431 39.2298 49.8926 40.5371 51.3541C40.5641 51.3271 40.6045 51.2865 40.6315 51.2594C40.0923 50.2038 39.4589 49.1753 39.0546 48.0656C38.6502 46.9559 38.3807 45.7514 38.2459 44.5741C38.1111 43.3967 38.2189 42.1922 38.2189 41.0013C38.2863 40.9878 38.3537 40.9878 38.4076 40.9743C39.0411 42.4088 39.6745 43.8433 40.308 45.2913C40.3754 45.2913 40.4428 45.2778 40.5102 45.2778C40.4832 42.6659 40.7662 40.1081 41.9657 37.7669C42.0197 37.7669 42.0736 37.7669 42.1275 37.7805C42.1275 38.3624 42.1544 38.9308 42.1275 39.5127C41.9792 42.3682 43.0709 44.8041 44.7017 47.0236C45.7934 48.4987 47.1412 49.7302 48.5968 50.8399C50.5106 52.3015 52.6536 53.3706 54.7965 54.4262C56.7912 55.4005 58.5433 56.7268 60.1876 58.2154C61.185 59.1221 62.2228 59.9747 63.2471 60.8544C63.5301 61.098 63.8131 61.3686 64.1366 61.6664C64.6622 60.4484 65.1474 59.3116 65.6326 58.1613C66.8052 55.4276 68.5708 53.127 70.7542 51.1376C72.4928 49.5542 74.2584 48.025 75.997 46.4552C78.3556 44.3169 79.8247 41.6644 80.2964 38.4977C80.4716 37.3745 80.3907 36.1971 80.4312 35.0603C80.4312 34.8708 80.4312 34.6678 80.4986 34.4648C81.3476 36.4136 81.5903 38.4706 81.7924 40.6089C82.628 38.9037 83.4502 37.1985 84.2858 35.4798C84.3532 35.4934 84.4206 35.5069 84.4745 35.5204C84.3801 37.2662 84.3667 39.012 84.1645 40.7442C83.9623 42.4629 83.5715 44.1545 83.2615 45.792C83.6793 45.1425 84.1645 44.3981 84.7306 43.5455C84.771 45.2101 84.7171 46.7123 84.0162 48.1333C83.3289 49.5407 82.2237 50.5963 81.0242 51.6383C81.6846 51.7737 82.2102 51.5436 82.7224 51.2865C83.2211 51.0429 83.6793 50.7452 84.2588 50.4068C84.2049 50.664 84.178 50.8399 84.1241 51.0023C83.3963 52.9781 82.2641 54.6833 80.5659 55.9419C79.5282 56.7268 78.423 57.417 77.3987 58.2019C76.7518 58.7026 76.2935 59.0139 76.2666 59.7041C76.6978 59.5552 77.1157 59.4199 77.6143 59.2575C76.7787 62.1265 74.5684 63.8858 72.641 65.9428C72.8297 66.024 72.978 66.0781 73.1262 66.1458C74.0832 66.5383 74.8918 67.1337 75.4444 68.0269C75.8622 68.69 75.9566 69.3938 75.7814 70.1651C75.7274 70.3952 75.8622 70.7065 76.0105 70.9095C76.4687 71.6132 76.5361 72.3304 76.1318 73.0612C75.7409 73.7785 75.094 74.1303 74.2449 74.1845C74.9188 72.9665 74.8918 72.6958 73.9753 72.0462C73.881 72.547 73.7867 73.0206 73.6923 73.5213C73.0858 73.0206 72.5602 72.4252 71.8998 72.0733C71.2259 71.7214 70.4307 71.6267 69.622 71.3966C69.6625 71.5726 69.6625 71.6808 69.7029 71.7756C70.2959 73.2777 70.8485 74.807 71.5224 76.2821C71.765 76.8234 72.2502 77.2835 72.695 77.6895C73.1128 78.0685 73.4093 77.9331 73.571 77.3783C73.6788 76.9858 73.7193 76.5798 73.7866 76.1874C73.854 75.8355 74.0427 75.6866 74.2853 75.7949C74.3392 76.1197 74.4066 76.3768 74.4201 76.634C74.4336 76.9046 74.4336 77.1888 74.3797 77.4459C74.3258 77.676 74.1775 77.8925 74.0697 78.1091C74.0966 78.1497 74.1371 78.1767 74.164 78.2173C74.5279 77.9737 74.9053 77.7301 75.2557 77.473C75.4309 77.3377 75.5657 77.1617 75.7274 77.0129C76.3609 76.431 76.6709 76.4716 77.1156 77.2429C76.873 77.2159 76.6574 77.1753 76.4283 77.1482C76.3878 78.1497 75.3366 78.1361 74.9053 78.8128C75.4175 78.7857 75.8757 78.7451 76.3339 78.7451C77.0348 78.7451 77.3178 79.0699 77.183 79.7872C76.9809 79.3 76.6439 79.3676 76.3205 79.503C75.6331 79.7872 74.9323 79.6924 74.2314 79.5977C73.4632 79.4894 72.7758 79.5977 72.1154 80.0578C71.6841 80.3691 71.2394 80.6668 70.6194 80.5315C70.4846 80.5044 70.242 80.951 70.0668 81.1675C69.7838 80.7886 69.7972 80.4232 70.269 80.1255C70.5655 79.936 70.9159 79.8413 71.2394 79.706C71.4415 79.6248 71.6572 79.5571 71.8324 79.4218C72.2232 79.124 72.2232 78.9346 71.8459 78.6369C70.9159 77.879 69.9859 77.1347 69.056 76.3768C68.9751 76.3092 68.8808 76.255 68.7999 76.2415C67.5734 76.1332 66.8995 75.3212 66.3874 74.3333C66.2796 74.1168 66.1987 73.8191 65.9022 74.0085C65.7404 74.1168 65.5652 74.4416 65.6192 74.604C65.9022 75.6731 66.5222 76.5122 67.4791 77.0535C67.8969 76.9858 67.9778 75.9573 68.5708 76.5798C68.5169 76.8099 68.4764 76.9452 68.4495 77.0805C68.6112 77.1076 68.7864 77.1753 68.9481 77.1617C69.2177 77.1617 69.4873 77.1076 69.7568 77.0805C69.7703 77.1347 69.7838 77.2023 69.7972 77.2565C69.6086 77.3512 69.4199 77.4459 69.1638 77.5813C70.4577 77.6489 70.4577 77.6489 70.5116 78.3391C70.0938 77.9331 69.6894 78.2579 69.2851 78.3121C68.3686 78.4203 67.7352 78.8534 67.3982 79.7601C67.2904 80.0443 66.9939 80.2473 66.7243 80.5586C66.7378 80.5992 66.7782 80.7345 66.8052 80.8833C66.2256 80.6803 66.0909 80.3962 66.3739 79.8819C66.5895 79.4894 66.8726 79.124 67.1287 78.7451C67.3578 78.4068 67.3578 78.1226 66.9265 77.9331C66.2256 77.6219 65.6326 77.1212 64.8105 77.04C64.5005 77.0129 64.2309 76.5934 63.921 76.3227C63.7727 76.5663 63.5705 76.8505 63.4088 77.1753C62.9371 78.1361 62.1419 78.718 61.1445 78.9887C58.0042 79.8548 55.0391 79.3676 52.2762 77.6489C51.818 77.3783 51.481 76.9587 51.0228 76.5528Z" fill="#20113D"/>
<defs>
<filter id="filter0_d" x="0.302246" y="0.562012" width="120.62" height="160.649" filterUnits="userSpaceOnUse" color-interpolation-filters="sRGB">
<feFlood flood-opacity="0" result="BackgroundImageFix"/>
<feColorMatrix in="SourceAlpha" type="matrix" values="0 0 0 0 0 0 0 0 0 0 0 0 0 0 0 0 0 0 127 0"/>
<feOffset dy="4"/>
<feGaussianBlur stdDeviation="10"/>
<feColorMatrix type="matrix" values="0 0 0 0 0.12549 0 0 0 0 0.0666667 0 0 0 0 0.239216 0 0 0 1 0"/>
<feBlend mode="normal" in2="BackgroundImageFix" result="effect1_dropShadow"/>
<feBlend mode="normal" in="SourceGraphic" in2="effect1_dropShadow" result="shape"/>
</filter>
</defs>
</svg>
