<svg width="62" height="50" viewBox="0 0 62 50" fill="none" xmlns="http://www.w3.org/2000/svg">
<path d="M20.4828 42.9468C20.7228 43.4734 21.0915 43.2231 21.4773 43.2144C22.0946 43.1972 22.4719 42.7828 23.0292 42.5411C22.5405 42.3944 22.1289 42.2649 21.6917 42.1268C21.5545 42.4117 21.4087 42.7224 21.2544 43.0418C21.2115 43.0418 21.1601 43.0418 21.1172 43.0418C21.0658 42.8087 20.9972 42.5757 20.9801 42.3426C20.9629 42.0664 20.8686 41.9283 20.5771 41.9196C20.4142 41.911 20.2513 41.8074 20.0284 41.7211C19.8655 42.1527 19.6768 42.6361 19.4539 43.2317C19.0767 42.5757 19.1453 41.9628 19.1796 41.3672C18.6823 41.0823 18.6823 41.0823 18.3736 42.0232C18.3136 41.8765 18.2107 41.7297 18.2021 41.583C18.1679 41.2204 18.0221 40.996 17.6363 40.8924C17.3276 40.7975 17.2247 40.832 17.2162 41.1687C17.2076 41.5657 17.1647 41.9714 17.0961 42.3685C17.0704 42.5498 16.9589 42.7224 16.8904 42.9037C16.8475 42.9037 16.8046 42.9037 16.7703 42.9037C16.7189 42.7397 16.6589 42.5757 16.6074 42.4117C16.4617 41.9196 16.3331 41.419 16.1787 40.927C16.1187 40.7284 16.0244 40.6162 15.7672 40.7025C15.5957 40.763 15.3899 40.7112 15.107 40.7112C15.0384 40.9183 14.9355 41.2032 14.8327 41.488C14.7898 41.4967 14.7383 41.5053 14.6955 41.5139C14.6097 41.2636 14.5326 41.0133 14.4297 40.763C14.3697 40.6162 14.2839 40.4867 14.2068 40.3486C14.1125 40.4867 14.0267 40.6335 13.9324 40.7716C13.8981 40.832 13.8638 40.8924 13.7781 41.0564C13.6066 40.7198 13.478 40.4522 13.3322 40.1673C12.1662 40.1242 12.552 41.1687 12.2862 41.7556C12.2434 41.7643 12.2005 41.7729 12.1491 41.7815C12.0547 41.5139 11.9176 41.2636 11.8833 40.9874C11.8404 40.6594 11.909 40.3314 11.9004 39.9947C11.9004 39.8825 11.8233 39.7789 11.7804 39.6667C11.6603 39.7271 11.4803 39.753 11.4374 39.8393C11.3345 40.0983 11.2831 40.3831 11.1202 40.6853C11.0602 40.4436 10.9744 40.2019 10.9573 39.9602C10.9059 39.2178 10.863 38.4841 10.8373 37.7418C10.803 36.9476 11.0773 36.5678 11.8318 36.283C12.1148 36.1708 12.372 35.9722 12.6635 35.86C12.9035 35.7651 13.2036 35.6442 13.4351 35.7046C14.0524 35.8514 14.6612 36.0499 15.2442 36.3002C15.7243 36.5074 16.1873 36.6283 16.7189 36.6369C17.2162 36.6455 17.7134 36.8268 18.1936 36.9994C18.5451 37.1289 18.8366 37.2239 19.2053 37.0253C19.3939 36.9304 19.7197 36.9649 19.9341 37.0599C20.4485 37.2756 20.9543 37.2325 21.4859 37.1548C22.3176 37.0426 23.1492 36.9994 23.9895 36.9045C24.2381 36.8786 24.4953 36.8182 24.7182 36.7146C25.0869 36.5419 25.447 36.3348 25.7899 36.1103C26.0043 35.9636 26.1758 35.7392 26.3815 35.5752C26.8617 35.1781 27.4018 35.1349 27.9934 35.2989C28.1992 35.3594 28.4478 35.2644 28.6793 35.2471C28.8165 35.2385 28.9622 35.2212 29.0994 35.2126C29.5281 35.1781 29.9568 35.1436 30.3941 35.1177C30.7627 35.0918 31.14 34.9968 31.4829 35.0745C32.2289 35.2471 32.7433 34.8242 33.2663 34.453C33.3692 34.3839 33.3949 33.9696 33.292 33.866C32.7776 33.3395 32.8205 32.7698 33.0177 32.1483C33.2406 31.4405 33.6264 30.8794 34.338 30.6118C34.9468 30.3787 35.1354 30.0248 34.9896 29.3947C34.9725 29.3343 34.9296 29.2738 34.8782 29.2307C34.6124 28.989 34.3552 28.73 34.0637 28.5229C33.9608 28.4538 33.7636 28.4711 33.6264 28.5229C33.5407 28.5488 33.4292 28.7128 33.4463 28.7991C33.5492 29.4292 33.0519 29.8263 32.8633 30.3528C32.6747 29.9471 32.3918 29.5673 32.4946 29.1012C32.5632 28.7818 32.4175 28.6092 32.1603 28.5833C31.9974 28.566 31.8002 28.7128 31.6458 28.8164C31.4829 28.9286 31.32 29.058 31.1914 29.2134C31.0628 29.3688 30.9685 29.5587 30.8228 29.7918C30.6256 29.4033 30.7713 29.0321 30.8056 28.6869C30.8313 28.4538 30.9857 28.2294 31.0285 27.9963C31.0543 27.8496 31.02 27.6597 30.9342 27.5388C30.8914 27.4784 30.677 27.5216 30.5484 27.5561C30.274 27.6338 30.0083 27.7287 29.7082 27.8323C29.5453 27.323 29.9054 27.0123 30.1969 26.7102C30.497 26.3994 30.8656 26.1491 31.2943 25.8038C31.1314 25.7175 31.0028 25.6571 30.7885 25.5448C31.2257 25.424 31.5087 25.3032 31.8087 25.2773C32.2117 25.2514 32.306 24.9838 32.3575 24.6903C32.5632 23.4214 33.0948 22.3079 33.8407 21.2893C34.1065 20.9268 34.4838 20.6505 34.7924 20.3225C34.9382 20.1758 35.1097 20.0031 35.1611 19.8219C35.5383 18.3976 36.5243 17.543 37.7675 16.9043C37.8018 16.887 37.8447 16.8697 37.8618 16.8611C37.7418 15.7476 37.6303 14.6427 37.5103 13.5206C36.7987 13.1408 36.4643 12.3639 35.9842 11.7078C35.9413 11.6474 35.8984 11.5697 35.8384 11.5352C35.2383 11.1554 34.5438 10.8619 34.0465 10.3785C33.5664 9.91241 32.9919 9.76566 32.4346 9.52397C31.9631 9.3168 31.4915 9.10964 31.0371 8.86794C30.8399 8.76436 30.6856 8.57446 30.4712 8.38455C30.1797 8.29823 29.8025 8.21192 29.451 8.07381C28.7908 7.81485 28.1649 7.48683 27.4961 7.27103C26.9903 7.10703 26.433 7.08976 25.91 6.96892C25.6956 6.91712 25.4984 6.78765 25.3012 6.68406C25.2327 6.64954 25.1641 6.58911 25.0955 6.58911C24.3753 6.56322 23.5951 6.70133 22.9349 6.48553C22.0775 6.20067 21.1687 6.46827 20.3713 6.08846C19.4025 5.62234 18.3993 5.88129 17.4134 5.81224C17.3019 5.80361 17.1733 5.84676 17.0704 5.81224C15.9044 5.40654 14.8069 5.91582 13.6752 6.02804C13.3837 6.05393 13.0836 6.03667 12.7835 6.0453C12.6721 6.0453 12.5606 6.06256 12.4491 6.07983C11.5146 6.24383 10.5715 6.40784 9.64551 6.58911C9.34543 6.64954 9.04534 6.76175 8.75384 6.86533C8.05079 7.10703 7.31344 7.24514 6.62754 7.58178C5.4615 8.16012 4.19258 8.5313 3.06084 9.19596C2.3235 9.62755 1.53471 9.9642 0.745919 10.3008C0.531574 10.3958 0.24864 10.3267 0 10.3267C0.0943116 10.1023 0.145755 9.82609 0.308657 9.67071C0.505854 9.47218 0.805936 9.36859 1.046 9.20459C1.15746 9.1269 1.28607 9.01469 1.32894 8.89384C1.44897 8.56583 1.63759 8.35866 2.00627 8.32413C2.1263 8.3155 2.26348 8.19465 2.33207 8.09107C2.55499 7.71989 2.8122 7.44367 3.18945 7.5041C3.42951 7.2883 3.62671 7.12429 3.81533 6.95165C3.90965 6.86533 3.98681 6.77038 4.07255 6.67543C4.12399 6.61501 4.15829 6.50279 4.22688 6.4769C4.79275 6.21794 5.35862 5.97624 5.92449 5.71729C6.04452 5.65686 6.17313 5.58781 6.27601 5.51012C6.74757 5.15621 7.33059 4.97494 7.71641 4.45702C7.81929 4.31028 8.22226 4.36207 8.48805 4.3707C8.75384 4.3707 8.90816 4.28438 9.08821 4.06859C9.26826 3.85279 9.57692 3.68015 9.85128 3.61973C10.2371 3.54204 10.6315 3.68878 10.9402 3.22266C11.0688 3.02412 11.5403 3.06728 11.8575 2.97233C12.0204 2.92917 12.2691 2.87738 12.3205 2.75653C12.552 2.25588 12.9636 2.32493 13.3751 2.30767C13.6237 2.29904 13.881 2.21272 14.1296 2.16093C14.4297 2.1005 14.7383 1.96239 15.0298 1.97966C15.3214 2.00555 15.5271 1.97966 15.7072 1.74659C15.75 1.6948 15.8186 1.62575 15.8787 1.62575C16.5989 1.59985 17.199 0.952456 17.9878 1.21141C18.0735 1.23731 18.1936 1.15962 18.2879 1.12509C18.9481 0.883401 19.5997 0.624442 20.2599 0.408644C20.4399 0.34822 20.6714 0.365485 20.8514 0.425909C21.3059 0.572652 21.6745 0.425908 22.0861 0.244637C22.3176 0.141054 22.6176 0.184214 22.8834 0.166951C23.1406 0.149687 23.3979 0.149686 23.6551 0.132422C23.7065 0.132422 23.7665 0.0719993 23.818 0.0806312C24.7354 0.330957 25.7299 -0.385494 26.6216 0.322324C26.7245 0.408644 26.9817 0.365485 27.136 0.29643C27.4961 0.141055 27.8048 0.0202071 28.1649 0.330957C28.2678 0.417276 28.5078 0.339589 28.6879 0.34822C28.9537 0.365484 29.2109 0.382748 29.4767 0.417276C29.8196 0.460436 30.1626 0.572651 30.5055 0.564019C30.8914 0.555387 31.2172 0.589915 31.5258 0.866137C31.7059 1.02151 32.0145 1.08194 32.2717 1.09057C32.709 1.0992 33.1205 1.0733 33.4378 1.46174C33.4721 1.5049 33.5664 1.51353 33.635 1.5049C33.7036 1.5049 33.8064 1.43585 33.8407 1.46174C34.2609 1.81565 34.8096 1.72933 35.2811 1.9106C35.5898 2.03145 35.8556 2.24725 36.1471 2.40262C36.2242 2.44578 36.3443 2.43715 36.43 2.40262C36.8073 2.27314 37.0388 2.44578 37.1845 2.7738C37.3217 3.08455 37.5189 3.23129 37.8704 3.23992C38.0419 3.24855 38.3163 3.36077 38.3677 3.49888C38.5134 3.87005 38.7621 3.93911 39.105 3.93911C39.2079 3.93911 39.3194 4.00816 39.4223 4.05995C40.8627 4.84546 42.3031 5.6396 43.752 6.40784C45.3296 7.24514 46.5299 8.5054 47.696 9.81746C48.3562 10.5684 48.9906 11.3367 49.7194 12.0531C49.5736 11.7942 49.3936 11.5525 49.2821 11.2763C49.1964 11.0777 49.1021 10.7842 49.1878 10.6375C49.5136 10.0764 49.8737 9.52397 50.2853 9.02332C50.5167 8.7471 50.8683 8.6953 51.2198 8.94563C51.3484 9.04058 51.537 9.06648 51.7085 9.09237C52.0686 9.1528 52.403 9.18733 52.5487 9.62755C52.5916 9.75703 52.9088 9.81746 53.106 9.86062C53.6805 9.97283 53.8605 10.0678 54.032 10.4217C53.3547 10.7238 53.389 10.7324 53.8948 11.3539C54.8465 12.5193 55.4638 13.8227 55.2066 15.3937C55.1895 15.5145 55.2581 15.6699 55.3181 15.7908C55.7382 16.5763 55.7296 17.3618 55.2838 18.13C54.9322 18.7342 54.6407 19.3989 53.8605 19.6147C55.2581 23.4559 55.2495 27.2712 53.8948 31.1211C54.898 31.2937 55.661 31.8203 56.3126 32.5367C56.3298 32.554 56.3555 32.5799 56.3726 32.5971C56.8956 33.3826 57.4529 34.125 58.096 34.8242C58.4132 35.1695 58.5161 35.791 58.5761 36.3002C58.6533 37.0081 58.6018 37.7331 58.5933 38.4582C58.5847 39.0884 58.8162 39.4336 59.382 39.6581C59.7078 39.7875 60.0251 39.9515 60.3252 40.1328C60.4881 40.2364 60.6081 40.4263 60.7453 40.573C60.7196 40.5989 60.7024 40.6335 60.6767 40.6594C60.5052 40.6248 60.3423 40.5989 60.1194 40.5558C60.1537 40.6507 60.1537 40.7198 60.188 40.7371C60.5567 41.0133 60.9253 41.2895 61.3111 41.5485C61.8341 41.911 61.7055 42.498 61.8427 43.0245C61.3969 42.6274 60.6767 42.99 60.3337 42.3858C60.2909 42.3081 60.0079 42.3771 59.9393 42.3771C59.8879 43.1454 59.845 43.8618 59.8022 44.5696C59.7679 44.5869 59.725 44.5955 59.6907 44.6128C59.4163 44.2848 59.142 43.9568 58.859 43.6374C58.7733 43.5424 58.5847 43.413 58.559 43.4389C58.4389 43.5338 58.2846 43.6978 58.3017 43.81C58.3446 44.1035 58.216 44.2157 57.9845 44.3366C57.8473 44.4056 57.753 44.5696 57.6416 44.6991C57.5387 44.82 57.4444 44.9581 57.3501 45.0876C57.3072 45.0789 57.2643 45.0703 57.2215 45.0617C57.2043 44.8459 57.17 44.6301 57.1614 44.4143C57.1443 44.1035 57.1614 43.7928 57.1443 43.482C57.1186 43.1367 56.9128 43.0504 56.6299 43.249C56.5613 43.3007 56.4927 43.3698 56.4155 43.3784C55.9354 43.4647 55.9268 43.4648 55.7639 43.9568C55.6782 43.8014 55.6096 43.7151 55.5753 43.6029C55.4381 43.0936 55.6953 42.3858 56.1412 42.1095C56.6127 41.8247 56.6813 40.996 56.4412 40.6076C56.1669 40.1673 55.8754 39.7444 55.6096 39.3042C55.3867 38.933 55.2838 38.5618 55.4295 38.1129C55.5839 37.6296 55.3181 37.2584 54.8294 37.1289C54.0577 36.9304 53.2947 36.7232 52.4887 36.4988C52.1715 36.9563 51.8285 37.4656 51.4684 37.9662C50.551 39.2351 49.4107 40.1932 47.8503 40.5644C47.6531 40.6076 47.4731 40.763 47.3016 40.8752C47.0272 41.0564 46.77 41.2809 46.4013 41.1341C46.3413 41.1082 46.2127 41.1773 46.1613 41.2463C44.0092 44.1294 41.2999 46.3047 37.9133 47.5218C36.49 48.031 35.0239 48.4022 33.5492 48.7389C33.0348 48.8511 32.4518 48.6957 31.9116 48.6008C31.6887 48.5576 31.5258 48.5144 31.3286 48.6698C29.6053 49.9905 27.7105 50.2495 25.6528 49.6625C24.3667 49.2999 23.0806 49.2309 21.7688 49.6107C21.3744 49.7229 20.92 49.6193 20.4999 49.6193C19.6854 49.6107 18.8795 49.6021 18.065 49.6021C17.9964 49.6021 17.9192 49.6193 17.8592 49.6538C16.8561 50.2581 15.7672 49.8783 14.7126 49.9214C13.5294 49.9732 12.6035 49.3258 11.7632 48.5576C11.446 48.2641 11.4889 47.8498 11.8575 47.4613C11.9433 47.3664 12.0033 47.2196 12.0204 47.0902C12.0805 46.6758 12.1148 46.2529 12.1576 45.8299C12.2176 45.8213 12.2777 45.8126 12.3291 45.804C12.3891 45.9853 12.432 46.1838 12.5177 46.3564C12.612 46.5377 12.7492 46.8398 12.8778 46.8485C13.1265 46.8571 13.4523 46.7794 13.4523 46.3737C13.4523 46.2183 13.5552 46.063 13.7181 45.8817C13.8038 46.0716 13.881 46.2615 13.9667 46.4687C14.3268 46.1924 14.7126 45.9507 15.0213 45.6314C15.167 45.476 15.1585 45.1739 15.2185 44.9408C15.3128 44.5955 15.3214 44.2071 15.75 43.9136C15.7929 44.5265 15.8272 45.0703 15.8701 45.6055C15.9301 45.6227 15.9815 45.64 16.0416 45.6486C16.1702 45.4069 16.2902 45.1566 16.4617 44.8286C16.5731 45.0962 16.6503 45.2861 16.736 45.4846C16.8904 45.4846 17.0361 45.4846 17.1819 45.4846C17.2762 45.2084 17.3619 44.9494 17.4905 44.5524C17.6106 44.7941 17.6449 44.9408 17.7306 45.0358C17.8249 45.1393 17.9707 45.2602 18.0993 45.2602C18.3136 45.2688 18.4765 45.1566 18.4679 44.889C18.4594 44.7164 18.5022 44.5351 18.5194 44.2934C18.7594 44.4402 18.9223 44.5437 19.0938 44.656C19.1881 44.4833 19.2824 44.3193 19.3939 44.1208C20.1655 44.5265 19.7026 43.7151 19.8397 43.5511C20.1141 43.5683 20.3284 43.5856 20.5342 43.5942C20.4485 43.413 20.4656 43.1799 20.4828 42.9468ZM35.787 25.3204C35.7527 25.3118 35.7184 25.3032 35.6927 25.2859C35.1954 25.6398 34.6981 26.0023 34.1494 26.3908C34.2694 26.7361 34.3637 27.1159 34.5438 27.4525C34.741 27.8323 35.0153 28.169 34.8696 28.6437C34.8439 28.7387 34.9039 28.8681 34.9296 28.9804C35.2125 27.746 35.4955 26.5375 35.787 25.3204Z" fill="#F58021"/>
</svg>
