<svg width="113" height="113" viewBox="0 0 113 113" fill="none" xmlns="http://www.w3.org/2000/svg">
<g filter="url(#filter0_d)">
<circle cx="56.6665" cy="52.501" r="52" fill="#F58021"/>
</g>
<path d="M46.5827 68.7651C46.8069 69.2569 47.1513 69.0231 47.5117 69.015C48.0883 68.9989 48.4406 68.6119 48.9612 68.3861C48.5047 68.249 48.1203 68.1281 47.7119 67.9991C47.5837 68.2652 47.4476 68.5554 47.3035 68.8537C47.2634 68.8537 47.2154 68.8537 47.1753 68.8537C47.1273 68.6361 47.0632 68.4184 47.0472 68.2007C47.0312 67.9427 46.9431 67.8137 46.6708 67.8056C46.5186 67.7975 46.3665 67.7008 46.1583 67.6202C46.0061 68.0233 45.8299 68.4748 45.6217 69.0311C45.2693 68.4184 45.3334 67.8459 45.3654 67.2896C44.9009 67.0235 44.9009 67.0235 44.6126 67.9023C44.5566 67.7653 44.4605 67.6282 44.4525 67.4911C44.4204 67.1525 44.2843 66.9429 43.9239 66.8461C43.6356 66.7574 43.5395 66.7897 43.5315 67.1041C43.5235 67.475 43.4835 67.854 43.4194 68.2249C43.3954 68.3942 43.2913 68.5554 43.2272 68.7247C43.1871 68.7247 43.1471 68.7247 43.1151 68.7247C43.067 68.5716 43.011 68.4184 42.9629 68.2652C42.8268 67.8056 42.7066 67.338 42.5625 66.8784C42.5064 66.6929 42.4183 66.5881 42.1781 66.6688C42.0179 66.7252 41.8257 66.6768 41.5614 66.6768C41.4974 66.8703 41.4013 67.1364 41.3052 67.4025C41.2651 67.4105 41.2171 67.4186 41.177 67.4266C41.097 67.1928 41.0249 66.959 40.9288 66.7252C40.8727 66.5881 40.7926 66.4672 40.7206 66.3382C40.6325 66.4672 40.5524 66.6043 40.4643 66.7333C40.4323 66.7897 40.4002 66.8461 40.3202 66.9993C40.16 66.6849 40.0399 66.4349 39.9037 66.1689C38.8146 66.1286 39.1749 67.1041 38.9267 67.6524C38.8866 67.6605 38.8466 67.6685 38.7986 67.6766C38.7105 67.4267 38.5823 67.1928 38.5503 66.9348C38.5103 66.6284 38.5743 66.3221 38.5663 66.0076C38.5663 65.9028 38.4942 65.806 38.4542 65.7012C38.3421 65.7577 38.1739 65.7819 38.1339 65.8625C38.0378 66.1044 37.9897 66.3704 37.8376 66.6526C37.7815 66.4269 37.7014 66.2011 37.6854 65.9754C37.6373 65.282 37.5973 64.5966 37.5733 63.9033C37.5412 63.1615 37.7975 62.8067 38.5022 62.5407C38.7665 62.4358 39.0068 62.2504 39.2791 62.1456C39.5033 62.0569 39.7836 61.944 39.9998 62.0005C40.5764 62.1375 41.145 62.323 41.6896 62.5568C42.1381 62.7503 42.5705 62.8632 43.067 62.8712C43.5315 62.8793 43.996 63.0486 44.4445 63.2099C44.7728 63.3308 45.0451 63.4195 45.3895 63.234C45.5656 63.1454 45.87 63.1776 46.0702 63.2663C46.5507 63.4679 47.0232 63.4275 47.5197 63.355C48.2965 63.2502 49.0733 63.2099 49.8581 63.1212C50.0904 63.097 50.3306 63.0405 50.5388 62.9438C50.8832 62.7825 51.2196 62.589 51.5399 62.3794C51.7401 62.2423 51.9003 62.0327 52.0925 61.8795C52.5409 61.5086 53.0455 61.4683 53.598 61.6215C53.7902 61.6779 54.0225 61.5893 54.2387 61.5731C54.3668 61.5651 54.503 61.5489 54.6311 61.5409C55.0315 61.5086 55.432 61.4764 55.8404 61.4522C56.1847 61.428 56.5371 61.3393 56.8575 61.4119C57.5542 61.5731 58.0347 61.1781 58.5232 60.8314C58.6193 60.7669 58.6433 60.3799 58.5472 60.2831C58.0667 59.7913 58.1068 59.2591 58.291 58.6786C58.4992 58.0175 58.8595 57.4934 59.5242 57.2435C60.0928 57.0258 60.269 56.6952 60.1329 56.1066C60.1169 56.0502 60.0768 55.9937 60.0288 55.9534C59.7805 55.7277 59.5403 55.4858 59.268 55.2923C59.1719 55.2278 58.9877 55.2439 58.8595 55.2923C58.7795 55.3165 58.6754 55.4697 58.6914 55.5503C58.7875 56.1389 58.323 56.5098 58.1468 57.0016C57.9706 56.6226 57.7063 56.2679 57.8024 55.8325C57.8665 55.5342 57.7304 55.3729 57.4901 55.3487C57.338 55.3326 57.1538 55.4697 57.0096 55.5664C56.8575 55.6712 56.7053 55.7922 56.5852 55.9373C56.465 56.0824 56.377 56.2598 56.2408 56.4775C56.0566 56.1147 56.1928 55.768 56.2248 55.4455C56.2488 55.2278 56.393 55.0182 56.433 54.8005C56.457 54.6634 56.425 54.486 56.3449 54.3731C56.3049 54.3167 56.1047 54.357 55.9845 54.3893C55.7283 54.4618 55.48 54.5505 55.1997 54.6473C55.0476 54.1716 55.3839 53.8813 55.6562 53.5991C55.9365 53.3089 56.2808 53.075 56.6813 52.7525C56.5291 52.6719 56.409 52.6155 56.2088 52.5107C56.6172 52.3978 56.8815 52.2849 57.1618 52.2607C57.5382 52.2365 57.6263 51.9866 57.6743 51.7125C57.8665 50.5272 58.363 49.4871 59.0598 48.5357C59.308 48.1971 59.6604 47.9391 59.9487 47.6327C60.0848 47.4957 60.245 47.3344 60.293 47.1651C60.6454 45.8347 61.5664 45.0365 62.7276 44.4399C62.7596 44.4238 62.7997 44.4076 62.8157 44.3996C62.7036 43.3595 62.5995 42.3275 62.4873 41.2793C61.8226 40.9246 61.5103 40.1989 61.0619 39.5862C61.0218 39.5297 60.9818 39.4572 60.9257 39.4249C60.3651 39.0701 59.7164 38.796 59.252 38.3445C58.8035 37.9091 58.2669 37.772 57.7464 37.5463C57.3059 37.3528 56.8655 37.1593 56.441 36.9335C56.2568 36.8368 56.1127 36.6594 55.9125 36.482C55.6402 36.4014 55.2878 36.3208 54.9595 36.1918C54.3428 35.9499 53.7582 35.6435 53.1336 35.4419C52.6611 35.2887 52.1405 35.2726 51.652 35.1597C51.4518 35.1114 51.2676 34.9904 51.0834 34.8937C51.0193 34.8614 50.9553 34.805 50.8912 34.805C50.2185 34.7808 49.4897 34.9098 48.8731 34.7082C48.0723 34.4422 47.2234 34.6921 46.4786 34.3373C45.5736 33.902 44.6367 34.1438 43.7157 34.0793C43.6116 34.0713 43.4915 34.1116 43.3954 34.0793C42.3062 33.7004 41.2812 34.1761 40.224 34.2809C39.9518 34.3051 39.6715 34.289 39.3912 34.297C39.2871 34.297 39.183 34.3132 39.0789 34.3293C38.2059 34.4825 37.325 34.6357 36.4601 34.805C36.1798 34.8614 35.8995 34.9662 35.6272 35.063C34.9706 35.2887 34.2818 35.4177 33.6412 35.7322C32.552 36.2724 31.3668 36.6191 30.3097 37.2399C29.621 37.643 28.8842 37.9575 28.1474 38.2719C27.9472 38.3606 27.6829 38.2961 27.4507 38.2961C27.5388 38.0865 27.5868 37.8285 27.739 37.6834C27.9232 37.4979 28.2035 37.4012 28.4277 37.248C28.5318 37.1754 28.6519 37.0706 28.692 36.9577C28.8041 36.6513 28.9803 36.4578 29.3246 36.4256C29.4368 36.4175 29.5649 36.3046 29.629 36.2079C29.8372 35.8612 30.0774 35.6032 30.4298 35.6596C30.654 35.4581 30.8382 35.3049 31.0144 35.1436C31.1025 35.063 31.1746 34.9743 31.2547 34.8856C31.3027 34.8292 31.3347 34.7244 31.3988 34.7002C31.9274 34.4583 32.4559 34.2325 32.9845 33.9906C33.0966 33.9342 33.2167 33.8697 33.3128 33.7971C33.7533 33.4666 34.2978 33.2973 34.6582 32.8135C34.7543 32.6764 35.1307 32.7248 35.379 32.7329C35.6272 32.7329 35.7714 32.6522 35.9396 32.4507C36.1077 32.2491 36.396 32.0878 36.6523 32.0314C37.0127 31.9588 37.3811 32.0959 37.6694 31.6605C37.7895 31.4751 38.23 31.5154 38.5263 31.4267C38.6784 31.3864 38.9107 31.338 38.9587 31.2251C39.175 30.7575 39.5594 30.822 39.9438 30.8059C40.176 30.7978 40.4162 30.7172 40.6485 30.6688C40.9288 30.6124 41.2171 30.4834 41.4894 30.4995C41.7617 30.5237 41.9539 30.4995 42.122 30.2818C42.1621 30.2334 42.2261 30.1689 42.2822 30.1689C42.9549 30.1447 43.5155 29.54 44.2523 29.7819C44.3323 29.8061 44.4445 29.7335 44.5326 29.7013C45.1492 29.4755 45.7578 29.2337 46.3745 29.0321C46.5427 28.9756 46.7589 28.9918 46.9271 29.0482C47.3515 29.1853 47.6959 29.0482 48.0803 28.8789C48.2965 28.7821 48.5768 28.8225 48.825 28.8063C49.0653 28.7902 49.3055 28.7902 49.5458 28.7741C49.5939 28.7741 49.6499 28.7176 49.698 28.7257C50.5549 28.9595 51.4838 28.2903 52.3167 28.9515C52.4128 29.0321 52.6531 28.9918 52.7972 28.9273C53.1336 28.7821 53.4219 28.6693 53.7582 28.9595C53.8543 29.0401 54.0785 28.9676 54.2467 28.9756C54.495 28.9918 54.7352 29.0079 54.9835 29.0401C55.3038 29.0805 55.6242 29.1853 55.9445 29.1772C56.3049 29.1692 56.6092 29.2014 56.8975 29.4594C57.0657 29.6045 57.354 29.661 57.5942 29.669C58.0027 29.6771 58.3871 29.6529 58.6834 30.0157C58.7154 30.056 58.8035 30.0641 58.8676 30.056C58.9316 30.056 59.0277 29.9915 59.0598 30.0157C59.4522 30.3463 59.9647 30.2657 60.4052 30.435C60.6935 30.5479 60.9417 30.7494 61.214 30.8946C61.2861 30.9349 61.3982 30.9268 61.4783 30.8946C61.8307 30.7736 62.0469 30.9349 62.183 31.2413C62.3112 31.5315 62.4954 31.6686 62.8237 31.6767C62.9839 31.6847 63.2401 31.7895 63.2882 31.9185C63.4243 32.2652 63.6566 32.3297 63.9769 32.3297C64.073 32.3297 64.1771 32.3942 64.2732 32.4426C65.6186 33.1763 66.964 33.9181 68.3174 34.6357C69.791 35.4177 70.9122 36.5949 72.0013 37.8204C72.6179 38.5219 73.2106 39.2395 73.8913 39.9087C73.7551 39.6668 73.587 39.441 73.4828 39.183C73.4028 38.9976 73.3147 38.7234 73.3948 38.5864C73.6991 38.0623 74.0354 37.5463 74.4198 37.0787C74.6361 36.8207 74.9644 36.7723 75.2927 37.0061C75.4129 37.0948 75.5891 37.119 75.7492 37.1432C76.0856 37.1996 76.3979 37.2318 76.534 37.643C76.5741 37.764 76.8704 37.8204 77.0546 37.8607C77.5911 37.9656 77.7593 38.0542 77.9195 38.3848C77.2868 38.667 77.3189 38.6751 77.7914 39.2556C78.6803 40.344 79.2569 41.5615 79.0166 43.0289C79.0006 43.1418 79.0647 43.2869 79.1208 43.3998C79.5132 44.1335 79.5052 44.8672 79.0887 45.5848C78.7604 46.1492 78.4881 46.77 77.7593 46.9716C79.0647 50.5595 79.0567 54.1232 77.7914 57.7192C78.7283 57.8804 79.4411 58.3722 80.0497 59.0414C80.0657 59.0576 80.0898 59.0818 80.1058 59.0979C80.5943 59.8316 81.1148 60.525 81.7155 61.1781C82.0118 61.5006 82.1079 62.0811 82.1639 62.5568C82.236 63.2179 82.188 63.8952 82.18 64.5725C82.1719 65.161 82.3882 65.4835 82.9167 65.6932C83.221 65.8141 83.5173 65.9673 83.7976 66.1366C83.9498 66.2334 84.0619 66.4107 84.1901 66.5478C84.166 66.572 84.15 66.6043 84.126 66.6284C83.9658 66.5962 83.8137 66.572 83.6054 66.5317C83.6375 66.6204 83.6375 66.6849 83.6695 66.701C84.0139 66.959 84.3582 67.217 84.7186 67.4589C85.2071 67.7975 85.087 68.3458 85.2151 68.8376C84.7987 68.4667 84.126 68.8054 83.8057 68.241C83.7656 68.1684 83.5013 68.2329 83.4373 68.2329C83.3892 68.9505 83.3492 69.6197 83.3091 70.2808C83.2771 70.297 83.2371 70.305 83.205 70.3212C82.9488 70.0148 82.6925 69.7084 82.4282 69.4101C82.3481 69.3214 82.1719 69.2004 82.1479 69.2246C82.0358 69.3133 81.8916 69.4665 81.9077 69.5713C81.9477 69.8455 81.8276 69.9503 81.6114 70.0631C81.4832 70.1277 81.3951 70.2808 81.291 70.4018C81.1949 70.5147 81.1068 70.6437 81.0187 70.7646C80.9787 70.7565 80.9387 70.7485 80.8986 70.7404C80.8826 70.5389 80.8506 70.3373 80.8426 70.1357C80.8265 69.8455 80.8426 69.5552 80.8265 69.2649C80.8025 68.9424 80.6103 68.8618 80.346 69.0473C80.282 69.0956 80.2179 69.1601 80.1458 69.1682C79.6974 69.2488 79.6893 69.2488 79.5372 69.7084C79.4571 69.5633 79.393 69.4826 79.361 69.3778C79.2329 68.9021 79.4731 68.241 79.8896 67.983C80.33 67.7169 80.3941 66.9429 80.1698 66.5801C79.9136 66.1689 79.6413 65.7738 79.393 65.3626C79.1848 65.0159 79.0887 64.6692 79.2249 64.2499C79.369 63.7984 79.1207 63.4517 78.6643 63.3308C77.9435 63.1454 77.2308 62.9519 76.478 62.7422C76.1817 63.1695 75.8613 63.6452 75.525 64.1129C74.6681 65.2981 73.603 66.1931 72.1454 66.5397C71.9613 66.5801 71.7931 66.7252 71.6329 66.83C71.3766 66.9993 71.1364 67.209 70.792 67.0719C70.736 67.0477 70.6159 67.1122 70.5678 67.1767C68.5577 69.8696 66.027 71.9014 62.8637 73.0383C61.5343 73.514 60.1649 73.8607 58.7875 74.1751C58.307 74.2799 57.7624 74.1348 57.2579 74.0461C57.0497 74.0058 56.8975 73.9655 56.7133 74.1106C55.1036 75.3442 53.3338 75.5861 51.4118 75.0378C50.2105 74.6992 49.0092 74.6347 47.784 74.9895C47.4156 75.0943 46.9911 74.9975 46.5987 74.9975C45.8379 74.9895 45.0851 74.9814 44.3243 74.9814C44.2603 74.9814 44.1882 74.9975 44.1321 75.0298C43.1952 75.5942 42.1781 75.2394 41.1931 75.2797C40.0879 75.3281 39.223 74.7234 38.4382 74.0058C38.1419 73.7317 38.1819 73.3447 38.5263 72.9818C38.6064 72.8932 38.6624 72.7561 38.6784 72.6352C38.7345 72.2481 38.7665 71.8531 38.8066 71.458C38.8626 71.4499 38.9187 71.4419 38.9667 71.4338C39.0228 71.6031 39.0628 71.7886 39.1429 71.9498C39.231 72.1191 39.3591 72.4013 39.4793 72.4094C39.7115 72.4175 40.0158 72.3449 40.0158 71.9659C40.0158 71.8208 40.1119 71.6757 40.2641 71.5064C40.3442 71.6838 40.4162 71.8611 40.4963 72.0546C40.8327 71.7966 41.1931 71.5709 41.4814 71.2726C41.6175 71.1274 41.6095 70.8452 41.6656 70.6275C41.7536 70.305 41.7617 69.9422 42.1621 69.6681C42.2021 70.2405 42.2342 70.7485 42.2742 71.2484C42.3303 71.2645 42.3783 71.2806 42.4344 71.2887C42.5545 71.0629 42.6666 70.8291 42.8268 70.5227C42.9309 70.7727 43.003 70.95 43.083 71.1355C43.2272 71.1355 43.3633 71.1355 43.4995 71.1355C43.5876 70.8775 43.6677 70.6356 43.7878 70.2647C43.8999 70.4905 43.9319 70.6275 44.012 70.7162C44.1001 70.813 44.2362 70.9259 44.3564 70.9259C44.5566 70.9339 44.7087 70.8291 44.7007 70.5792C44.6927 70.4179 44.7328 70.2486 44.7488 70.0228C44.973 70.1599 45.1252 70.2567 45.2853 70.3615C45.3734 70.2002 45.4615 70.047 45.5656 69.8616C46.2864 70.2405 45.8539 69.4826 45.9821 69.3294C46.2383 69.3456 46.4386 69.3617 46.6308 69.3698C46.5507 69.2004 46.5667 68.9827 46.5827 68.7651ZM60.8777 52.301C60.8456 52.293 60.8136 52.2849 60.7896 52.2688C60.3251 52.5994 59.8606 52.938 59.3481 53.3008C59.4602 53.6233 59.5483 53.9781 59.7164 54.2925C59.9006 54.6473 60.1569 54.9617 60.0208 55.4052C59.9967 55.4939 60.0528 55.6148 60.0768 55.7196C60.3411 54.5666 60.6054 53.4379 60.8777 52.301Z" fill="#20113D"/>
<defs>
<filter id="filter0_d" x="0.666504" y="0.500977" width="112" height="112" filterUnits="userSpaceOnUse" color-interpolation-filters="sRGB">
<feFlood flood-opacity="0" result="BackgroundImageFix"/>
<feColorMatrix in="SourceAlpha" type="matrix" values="0 0 0 0 0 0 0 0 0 0 0 0 0 0 0 0 0 0 127 0"/>
<feOffset dy="4"/>
<feGaussianBlur stdDeviation="2"/>
<feColorMatrix type="matrix" values="0 0 0 0 0 0 0 0 0 0 0 0 0 0 0 0 0 0 0.25 0"/>
<feBlend mode="normal" in2="BackgroundImageFix" result="effect1_dropShadow"/>
<feBlend mode="normal" in="SourceGraphic" in2="effect1_dropShadow" result="shape"/>
</filter>
</defs>
</svg>
