<svg width="40" height="50" viewBox="0 0 40 50" fill="none" xmlns="http://www.w3.org/2000/svg">
<path fill-rule="evenodd" clip-rule="evenodd" d="M27.9604 20.9566C29.1243 19.5358 29.7919 17.9661 29.8204 16.1443C29.8243 15.9461 29.9647 15.7505 30.1044 15.5558C30.1707 15.4635 30.2369 15.3713 30.2883 15.2792C30.5601 14.7857 30.8496 14.2986 31.1392 13.8112L31.1393 13.8111C31.7978 12.7031 32.4571 11.5935 32.9128 10.4038C33.9056 7.80861 33.3065 6.21595 31.1498 4.56027C31.2867 2.82439 31.9714 1.63276 33.877 1.28902C34.779 1.12758 35.6539 0.814603 36.6094 0.47283C37.0441 0.317326 37.4955 0.155862 37.9736 0C36.5415 4.33684 35.1836 8.44452 33.7629 12.7413L34.0908 12.6711L34.0909 12.671L34.0916 12.6709C35.9421 12.2746 37.6349 11.9121 39.3429 11.5496C39.7766 12.323 39.44 12.7298 38.7838 13.1022L38.3921 13.3229L38.392 13.323L38.3919 13.323L38.3919 13.323C36.7127 14.269 35.029 15.2175 33.4092 16.2646C32.8672 16.614 32.3993 17.2442 32.154 17.8458C31.751 18.8434 31.4233 19.8718 31.0871 20.9272C30.9425 21.3809 30.7964 21.8396 30.642 22.3029L27.9604 20.9566ZM32.9184 20.7283C34.5901 21.9772 35.2919 24.6641 34.5273 26.7151C33.8598 28.4968 32.3136 29.3447 30.0085 29.0811C29.3456 29.004 28.6933 28.8563 28.0413 28.7085L28.0413 28.7085L28.0412 28.7085L28.0412 28.7085C27.627 28.6147 27.213 28.5209 26.7963 28.4452C24.4228 28.0041 22.3916 28.3364 21.0109 29.402C21.3304 29.4421 21.6043 29.4764 22.0208 29.528C21.6641 30.2021 21.4827 30.9326 21.3069 31.6406C21.0524 32.6656 20.8095 33.6434 20.0638 34.3346C20.4888 34.633 20.9427 34.9267 21.4069 35.2271C22.4756 35.9187 23.5994 36.6459 24.554 37.5486C26.7735 39.6454 26.6366 42.7791 24.457 45.0994C23.8034 44.8678 23.1487 44.6363 22.4933 44.4045L22.4926 44.4043C20.0019 43.5235 17.5006 42.6389 15.003 41.7365C14.5888 41.586 14.1938 41.3807 13.799 41.1756L13.7988 41.1755C13.6225 41.0839 13.4463 40.9924 13.2685 40.9057C10.6839 39.6626 9.34307 37.5772 9.11484 34.7299C8.82386 31.1264 9.52564 27.6546 10.3529 24.2172C10.4093 24.2063 10.4558 24.1921 10.4946 24.1803C10.5579 24.161 10.6007 24.1479 10.6325 24.1657C16.2354 27.0645 21.3932 25.7526 26.2714 22.3954C27.0987 21.8282 27.7263 21.7996 28.5194 22.2178C28.9872 22.4642 29.4608 22.699 29.9401 22.9167C31.3151 23.5412 31.937 23.2949 32.4905 21.897C32.5823 21.6628 32.6676 21.4242 32.7545 21.1812L32.7545 21.1812L32.7546 21.1811L32.7547 21.1809L32.7547 21.1807L32.7548 21.1805L32.7549 21.1802C32.8082 21.0312 32.862 20.8806 32.9184 20.7283ZM27.1637 32.9375C27.5304 31.8218 27.912 30.6606 28.3198 29.4175C27.8947 29.4038 27.4827 29.3891 27.0806 29.3747C25.8042 29.3291 24.6274 29.2871 23.4473 29.2915C23.1962 29.2915 22.8139 29.6008 22.7227 29.8529C22.3519 30.8979 22.0184 31.9554 21.697 32.9746L21.6968 32.9754C21.5831 33.3361 21.4708 33.692 21.359 34.0408L22.484 34.8657L22.4851 34.8665L22.488 34.8687C23.5787 35.6686 24.6404 36.4473 25.7466 37.2548C26.2096 35.8405 26.6725 34.4319 27.1621 32.9423L27.1637 32.9375ZM15.762 49.9962C16.4809 47.8536 17.1484 45.8656 17.8559 43.7631C19.6189 44.3188 21.2849 44.8459 23.0651 45.413C22.9687 45.7117 22.8745 46.0057 22.7816 46.2958C22.4291 47.3965 22.0945 48.4411 21.7243 49.4749C21.6444 49.6926 21.3192 49.9676 21.1023 49.9733C19.7878 50.004 18.4665 50.0011 17.0695 49.9981C16.6414 49.9972 16.2062 49.9962 15.762 49.9962ZM7.92028 13.5924L7.92029 13.5924C8.44268 14.3998 8.95002 15.1839 9.31459 16.0302C9.98784 17.6057 10.2788 19.3816 8.95514 20.7337C7.59722 22.1144 5.90838 21.5014 4.40211 20.8368C3.51775 20.4472 2.65051 19.9144 1.9202 19.2785C-0.858398 16.8437 -0.584535 13.1256 2.50216 11.0861C4.53334 9.74549 6.76421 9.53925 9.01219 10.347C9.98784 10.6965 10.5356 10.4387 11.3001 9.86007C12.5839 8.89187 13.9646 7.9695 15.4366 7.34505C18.1296 6.19925 20.7599 6.54872 23.1562 8.30179C23.6868 8.69136 24.2232 9.06947 24.9078 9.27571C24.44 8.70854 23.9721 8.14711 23.4415 7.51119C25.233 5.8727 27.2015 4.91023 29.6263 5.31699C31.3437 5.60344 32.268 6.76069 32.228 8.5023C32.1824 10.6048 31.1326 12.2892 29.9858 13.9735C27.7663 11.7735 27.1216 9.18978 28.2399 7.24765C27.1558 7.47681 26.5967 8.14711 26.8306 9.34446C27.0588 10.5189 27.4354 11.6991 27.9489 12.7761C29.3981 15.8297 28.9474 18.8374 26.3513 20.9858C22.831 23.9075 18.7516 24.7268 14.3355 23.6039C13.4853 23.3862 12.6752 22.8878 11.9391 22.3779C11.0662 21.7764 10.6611 20.9915 10.798 19.7712C10.935 18.4936 10.7524 17.1187 10.4272 15.8583C9.99355 14.2084 8.82961 13.0912 7.20924 12.4668C7.44133 12.8522 7.68236 13.2247 7.92028 13.5924ZM22.9451 22.6529C22.9217 22.66 22.8985 22.6665 22.8756 22.6725C22.0207 22.8989 21.4627 22.3613 21.0032 21.7293C20.8865 21.5691 20.7761 21.4028 20.6689 21.2411L20.6688 21.2411L20.6401 21.1977C19.7215 19.8113 19.3735 18.2817 19.7728 16.6489C19.7756 16.6376 19.7785 16.6263 19.7814 16.615C19.7839 16.6054 19.7864 16.5959 19.7889 16.5864C20.1582 15.2013 21.2211 14.8985 22.3006 15.8808C23.5444 17.0152 24.0236 18.5104 24.0864 20.189C24.0772 20.2983 24.07 20.4104 24.0627 20.5238V20.5238C24.033 20.9847 24.002 21.4671 23.8325 21.8646C23.6807 22.2209 23.4178 22.5091 22.9451 22.6529ZM18.2438 17.1416C18.0748 17.009 17.9237 16.8691 17.7889 16.7443C17.5275 16.5023 17.3274 16.317 17.1768 16.351C16.9457 16.403 16.7563 16.6339 16.5659 16.866L16.5659 16.866C16.4837 16.9662 16.4013 17.0667 16.3153 17.1531C16.3992 17.2303 16.4814 17.3241 16.5637 17.418C16.7501 17.6307 16.9368 17.8436 17.1426 17.8635C17.3241 17.8824 17.5257 17.7152 17.7889 17.4967L17.789 17.4967C17.9228 17.3856 18.0726 17.2613 18.2438 17.1416ZM25.718 14.9073L25.7178 14.9072L25.7184 14.9068C25.5133 14.7793 25.3431 14.6566 25.1959 14.5505L25.1958 14.5505L25.1958 14.5504C24.913 14.3465 24.7154 14.2041 24.5202 14.2079C24.5148 14.208 24.5092 14.2083 24.5035 14.2089C24.2503 14.2268 23.8014 14.6748 23.8352 14.8443C23.898 15.1479 24.2403 15.5604 24.5199 15.612C24.5464 15.6165 24.5735 15.6169 24.6015 15.6137C24.7463 15.5986 24.9149 15.4799 25.1358 15.3163L25.1894 15.2766C25.3398 15.1652 25.5132 15.0366 25.718 14.9073Z" fill="#F58021"/>
</svg>
