<svg width="113" height="113" viewBox="0 0 113 113" fill="none" xmlns="http://www.w3.org/2000/svg">
<g filter="url(#filter0_d)">
<circle cx="56.6665" cy="52.501" r="52" fill="#F58021"/>
</g>
<path d="M42.7325 72.0057C42.4637 70.6213 42.377 69.2456 42.6198 67.8699C43.0014 65.6845 44.0854 63.8995 45.8285 62.5674C46.6957 61.9056 47.693 61.4181 48.6296 60.8434C49.2453 60.469 49.9044 60.1381 50.4334 59.668C51.8296 58.4054 53.1651 57.082 54.5266 55.7846C55.3331 55.0184 56.1309 54.2435 56.9895 53.4163C56.4084 53.3728 55.8881 53.3641 55.3765 53.2857C54.8648 53.2074 54.3531 53.0768 53.9802 52.5544C54.1624 52.5456 54.2924 52.5369 54.4225 52.5369C55.7927 52.4934 56.4865 51.7968 56.5125 50.4647C56.5298 49.8204 56.3737 49.1673 56.287 48.523C55.8968 45.7977 56.5732 43.3424 58.1689 41.1308C58.2729 40.9828 58.3857 40.8261 58.5157 40.6432C58.0735 40.591 57.6746 40.5735 57.293 40.4865C56.9201 40.3994 56.5732 40.2427 56.209 40.1208C56.2176 40.0773 56.2263 40.0337 56.235 39.9989C56.5212 39.9379 56.8073 39.8857 57.0849 39.816C59.1315 39.2762 60.6317 38.0834 61.5423 36.133C61.9239 35.3232 62.3575 34.5309 62.8431 33.7821C63.7017 32.4674 64.9244 31.6315 66.442 31.231C66.5808 31.1961 66.7109 31.1526 66.893 31.1004C66.6155 30.9349 66.3466 30.8217 66.1472 30.6302C65.9737 30.4647 65.887 30.2122 65.809 29.9249C66.5288 30.1687 67.0404 29.8291 67.5607 29.5244C68.4453 29.002 69.3645 28.6102 70.4225 28.6537C71.7233 28.7146 72.712 29.3677 73.5358 30.3341C73.6485 30.4647 73.7526 30.6041 73.8654 30.7521C74.5678 30.2384 75.2702 30.3777 75.9206 30.813C76.2849 31.0568 76.571 31.4225 76.9179 31.7098C77.4729 32.18 78.0106 32.6937 78.6263 33.0855C78.9299 33.2771 79.3721 33.2423 79.8231 33.3293C80.1179 34.1739 79.667 34.7834 78.1667 35.3668C78.5396 36.0198 78.9125 36.6728 79.2854 37.3258C79.5629 37.8047 79.7797 38.2749 79.6149 38.8844C79.5456 39.163 79.7277 39.5722 79.9098 39.8422C80.3781 40.5213 80.9071 41.1569 81.4101 41.8099C81.6702 42.1582 81.9217 42.5152 82.1732 42.8635C82.416 43.2031 82.416 43.5339 82.1645 43.8648C81.8437 44.274 81.5662 44.7355 81.1759 45.0663C80.5949 45.5539 80.1179 46.1112 79.6323 46.6946C78.9559 47.513 77.9846 47.5478 77.1868 46.8339C76.9873 46.651 76.7705 46.4508 76.6491 46.2157C76.3716 45.6584 75.8946 45.4495 75.3483 45.3014C74.828 45.1621 74.3076 45.0402 73.8046 44.8661C73.3884 44.7181 72.9981 44.5178 72.5992 44.335C72.5299 44.6049 72.5559 44.8313 72.9028 45.0663C73.4057 45.3972 73.9434 45.6671 74.4984 45.9196C74.7412 46.0328 74.88 46.1373 74.9667 46.4072C75.3483 47.6697 75.7559 48.9235 76.1721 50.1686C76.5797 51.3963 76.6144 52.6588 76.571 53.9388C76.519 55.3754 76.2849 56.7598 75.8513 58.1181C75.5391 59.0846 75.1922 59.7115 74.7499 60.1468C74.4551 59.3719 74.1689 58.6057 73.874 57.8482C73.8307 57.8569 73.7873 57.8656 73.7439 57.8743C73.8133 58.6405 73.8567 59.4067 73.9607 60.173C74.4377 63.5339 75.1662 66.8512 76.1374 70.1076C76.2675 70.5256 76.5017 70.9348 76.7532 71.2918C77.2215 71.9535 77.8979 72.1799 78.687 72.1102C79.5976 72.0319 80.0746 72.3105 80.2827 73.1986C80.4388 73.8777 80.4475 74.5917 80.5255 75.3231C77.8632 75.3231 75.3309 75.3231 72.7033 75.3231C72.6252 74.3131 72.5732 73.3031 72.4518 72.3018C72.3911 71.7619 72.313 71.196 72.0702 70.7258C71.5326 69.6984 70.8995 68.7319 70.2838 67.748C69.4079 66.3549 68.5147 64.9705 67.6388 63.5948C65.861 64.3349 64.0139 65.1098 62.1147 65.8934C62.054 66.3897 61.9846 66.9992 61.9152 67.6C61.8198 68.4533 61.4036 69.115 60.7185 69.5852C59.964 70.0989 59.1662 70.5343 58.3857 71.0044C58.1775 71.135 57.9694 71.2744 57.7613 71.405C57.7786 71.4572 57.7873 71.5094 57.8046 71.5617C58.0648 71.5965 58.3336 71.6662 58.5851 71.6488C59.5911 71.5791 60.5971 71.4833 61.6117 71.3963C61.8545 71.3788 62.0973 71.3527 62.3488 71.3527C64.6296 71.344 66.0778 72.9896 65.809 75.3318C65.6702 75.3405 65.5315 75.3492 65.3927 75.3492C58.0388 75.3492 50.6762 75.3579 43.3222 75.3492C42.5764 75.3492 41.8046 75.3144 41.0848 75.1315C40.4951 74.9835 39.8447 74.6962 39.4198 74.2696C37.7287 72.5804 36.8442 70.5604 37.616 68.1486C38.093 66.6684 38.7521 65.2404 39.3851 63.8125C39.8014 62.8721 40.2697 61.9579 40.4344 60.9218C40.7293 59.102 39.9401 57.4564 38.3965 56.6902C37.3992 56.1939 35.7428 56.9601 35.5174 58.031C35.4913 58.1616 35.5607 58.388 35.6561 58.449C36.4106 58.9279 36.7661 59.6418 36.9309 60.4864C37.1564 61.6619 36.9309 63.5164 36.4539 64.4394C36.2111 64.065 35.9683 63.6906 35.7255 63.3162C35.8556 64.8834 35.2312 66.1024 34.2773 67.1908C34.2252 67.1734 34.1819 67.1734 34.1732 67.1647C33.809 66.1808 33.1325 65.4494 32.352 64.7789C31.9705 64.4481 31.6756 64.0214 31.3374 63.6296C31.2333 63.8299 31.0859 64.1172 30.9385 64.4046C30.4962 64.0214 30.2187 63.2204 30.3401 62.4368C30.5222 61.2875 31.0079 60.3123 32.1613 59.816C32.274 59.7637 32.3607 59.5896 32.4128 59.4503C32.9678 57.9875 33.8003 56.7337 35.1705 55.924C36.2805 55.2622 37.5119 55.0097 38.7954 55.21C39.9922 55.3928 40.738 56.1765 41.1629 57.2822C41.7699 58.8582 41.7353 60.4864 41.3624 62.0798C41.0935 63.2465 40.6686 64.3784 40.2176 65.4929C39.8274 66.4768 39.4025 67.4433 39.281 68.5142C39.0729 70.5691 40.5992 72.1625 42.7325 72.0057Z" fill="#20113D"/>
<defs>
<filter id="filter0_d" x="0.666504" y="0.500977" width="112" height="112" filterUnits="userSpaceOnUse" color-interpolation-filters="sRGB">
<feFlood flood-opacity="0" result="BackgroundImageFix"/>
<feColorMatrix in="SourceAlpha" type="matrix" values="0 0 0 0 0 0 0 0 0 0 0 0 0 0 0 0 0 0 127 0"/>
<feOffset dy="4"/>
<feGaussianBlur stdDeviation="2"/>
<feColorMatrix type="matrix" values="0 0 0 0 0 0 0 0 0 0 0 0 0 0 0 0 0 0 0.25 0"/>
<feBlend mode="normal" in2="BackgroundImageFix" result="effect1_dropShadow"/>
<feBlend mode="normal" in="SourceGraphic" in2="effect1_dropShadow" result="shape"/>
</filter>
</defs>
</svg>
