<svg width="56" height="50" viewBox="0 0 56 50" fill="none" xmlns="http://www.w3.org/2000/svg">
<path d="M13.298 46.4163C13.0102 44.9342 12.9173 43.4613 13.1773 41.9885C13.5858 39.6488 14.7463 37.7378 16.6125 36.3116C17.5409 35.6031 18.6086 35.0811 19.6113 34.4659C20.2705 34.0651 20.9761 33.7108 21.5425 33.2075C23.0373 31.8558 24.467 30.4389 25.9247 29.05C26.7881 28.2297 27.6423 27.4 28.5615 26.5145C27.9394 26.4679 27.3823 26.4585 26.8346 26.3746C26.2868 26.2908 25.739 26.1509 25.3398 25.5916C25.5348 25.5823 25.674 25.573 25.8133 25.573C27.2802 25.5264 28.023 24.7806 28.0508 23.3544C28.0694 22.6646 27.9023 21.9655 27.8094 21.2757C27.3916 18.358 28.1158 15.7293 29.8241 13.3615C29.9355 13.2031 30.0562 13.0353 30.1955 12.8395C29.722 12.7836 29.2949 12.765 28.8864 12.6717C28.4872 12.5785 28.1158 12.4107 27.7259 12.2802C27.7351 12.2336 27.7444 12.187 27.7537 12.1497C28.0601 12.0845 28.3665 12.0285 28.6636 11.954C30.8547 11.376 32.4609 10.0989 33.4357 8.01088C33.8443 7.14396 34.3085 6.29569 34.8284 5.49402C35.7475 4.08644 37.0566 3.19156 38.6814 2.76276C38.83 2.72548 38.9692 2.67887 39.1642 2.62294C38.8671 2.44583 38.5793 2.32464 38.3657 2.11957C38.18 1.94245 38.0872 1.67212 38.0036 1.36451C38.7743 1.62552 39.322 1.26197 39.8791 0.935708C40.8261 0.376406 41.8102 -0.043071 42.9429 0.00353753C44.3356 0.0687895 45.394 0.767918 46.276 1.80263C46.3967 1.94245 46.5081 2.0916 46.6288 2.25007C47.3808 1.70009 48.1329 1.84924 48.8292 2.31532C49.2192 2.57633 49.5255 2.96784 49.8969 3.27546C50.4911 3.77883 51.0667 4.32881 51.7259 4.74829C52.0509 4.95336 52.5244 4.91608 53.0072 5.0093C53.3228 5.9135 52.8401 6.56602 51.2339 7.19057C51.6331 7.8897 52.0323 8.58883 52.4315 9.28796C52.7286 9.80065 52.9607 10.304 52.7843 10.9565C52.7101 11.2548 52.905 11.693 53.1 11.9819C53.6014 12.709 54.1677 13.3895 54.7062 14.0886C54.9847 14.4615 55.254 14.8437 55.5232 15.2166C55.7832 15.5801 55.7832 15.9343 55.5139 16.2886C55.1704 16.7267 54.8733 17.2207 54.4555 17.575C53.8335 18.097 53.3228 18.6936 52.8029 19.3181C52.0787 20.1944 51.0389 20.2316 50.1847 19.4673C49.9712 19.2715 49.7391 19.0571 49.6091 18.8054C49.312 18.2088 48.8014 17.9851 48.2164 17.8266C47.6594 17.6775 47.1023 17.547 46.5638 17.3606C46.1182 17.2021 45.7004 16.9877 45.2733 16.7919C45.199 17.0809 45.2269 17.3233 45.5983 17.575C46.1367 17.9292 46.7124 18.2182 47.3066 18.4885C47.5665 18.6097 47.7151 18.7215 47.8079 19.0105C48.2164 20.3621 48.6528 21.7045 49.0985 23.0375C49.5348 24.3518 49.572 25.7035 49.5255 27.0738C49.4698 28.6119 49.2192 30.094 48.7549 31.5482C48.4207 32.5829 48.0493 33.2541 47.5758 33.7202C47.2602 32.8905 46.9538 32.0702 46.6381 31.2592C46.5917 31.2685 46.5453 31.2779 46.4988 31.2872C46.5731 32.1075 46.6195 32.9278 46.7309 33.7481C47.2416 37.3463 48.0215 40.8979 49.0613 44.3842C49.2006 44.8316 49.4513 45.2697 49.7205 45.6519C50.2219 46.3604 50.946 46.6028 51.7909 46.5282C52.7658 46.4443 53.2764 46.7426 53.4992 47.6934C53.6664 48.4205 53.6756 49.1849 53.7592 49.9679C50.9089 49.9679 48.1979 49.9679 45.3847 49.9679C45.3012 48.8866 45.2454 47.8053 45.1155 46.7333C45.0505 46.1553 44.9669 45.5494 44.707 45.046C44.1313 43.9461 43.4536 42.9114 42.7944 41.858C41.8567 40.3665 40.9004 38.8844 39.9626 37.4116C38.0594 38.2039 36.0818 39.0335 34.0485 39.8725C33.9835 40.4038 33.9092 41.0563 33.835 41.6995C33.7328 42.6131 33.2872 43.3215 32.5537 43.8249C31.746 44.3749 30.8918 44.841 30.0562 45.3443C29.8334 45.4841 29.6106 45.6333 29.3878 45.7731C29.4063 45.8291 29.4156 45.885 29.4342 45.9409C29.7127 45.9782 30.0005 46.0528 30.2698 46.0341C31.3468 45.9596 32.4237 45.857 33.51 45.7638C33.77 45.7452 34.0299 45.7172 34.2992 45.7172C36.741 45.7079 38.2915 47.4697 38.0036 49.9772C37.8551 49.9865 37.7065 49.9959 37.558 49.9959C29.6849 49.9959 21.8024 50.0052 13.9293 49.9959C13.1308 49.9959 12.3045 49.9586 11.5339 49.7628C10.9026 49.6043 10.2063 49.2967 9.75134 48.84C7.94089 47.0315 6.99389 44.8689 7.82019 42.2868C8.33083 40.7021 9.03645 39.1734 9.71421 37.6446C10.1599 36.6378 10.6612 35.6591 10.8376 34.5498C11.1533 32.6016 10.3084 30.8397 8.65579 30.0194C7.58809 29.4881 5.81477 30.3084 5.57338 31.455C5.54553 31.5948 5.6198 31.8372 5.72193 31.9024C6.52967 32.4151 6.91033 33.1795 7.08673 34.0837C7.32812 35.3421 7.08673 37.3277 6.57609 38.3158C6.31613 37.9149 6.05617 37.5141 5.79621 37.1133C5.93547 38.7912 5.267 40.0962 4.24572 41.2614C4.19001 41.2428 4.14359 41.2428 4.13431 41.2335C3.74436 40.1801 3.02018 39.3971 2.18459 38.6793C1.77608 38.3251 1.46041 37.8683 1.09832 37.4488C0.986907 37.6632 0.829074 37.9709 0.67124 38.2785C0.197737 37.8683 -0.0993631 37.0107 0.030618 36.1718C0.225589 34.9413 0.745514 33.8973 1.98033 33.3659C2.10103 33.31 2.19387 33.1236 2.24958 32.9744C2.84378 31.4084 3.73508 30.066 5.20201 29.1991C6.3904 28.4907 7.70878 28.2203 9.08287 28.4347C10.3641 28.6305 11.1626 29.4695 11.6175 30.6533C12.2674 32.3405 12.2303 34.0837 11.831 35.7896C11.5432 37.0387 11.0883 38.2505 10.6055 39.4437C10.1877 40.497 9.73277 41.5317 9.60279 42.6783C9.37997 44.8782 11.014 46.5841 13.298 46.4163Z" fill="#F58021"/>
</svg>
