<svg width="121" height="121" viewBox="0 0 121 121" fill="none" xmlns="http://www.w3.org/2000/svg">
<circle cx="60.6665" cy="60.501" r="58.5" stroke="white" stroke-width="3"/>
<g filter="url(#filter0_d)">
<circle cx="60.6665" cy="60.501" r="52" fill="white"/>
</g>
<mask id="path-3-inside-1" fill="white">
<path fill-rule="evenodd" clip-rule="evenodd" d="M48.9811 67.2543C45.697 68.2478 42.3873 68.095 39.0523 65.8786C38.7961 66.2008 38.5336 66.5252 38.2685 66.8528C37.6113 67.6649 36.9376 68.4974 36.3027 69.3687C35.8317 70.0438 35.3926 70.7444 34.9534 71.445L34.9534 71.445C34.5142 72.1456 34.0751 72.8462 33.6041 73.5213C32.5603 75.0243 32.1784 76.6547 32.2803 78.4635C32.4075 80.7818 31.491 81.9536 29.2252 82.3613C24.5663 83.2019 20.3911 79.7373 20.3656 75.0243C20.3656 74.5641 20.3574 74.1039 20.3492 73.6453C20.337 72.9616 20.3249 72.2815 20.3401 71.6106C20.3829 69.8115 21.1635 68.2465 21.9405 66.6886C22.0878 66.3934 22.2349 66.0984 22.3768 65.8022C22.7441 65.04 23.1149 64.279 23.4857 63.518C24.8624 60.6921 26.2397 57.8652 27.4431 54.9751C29.2121 50.7394 31.8694 47.0964 34.5362 43.4404C35.0934 42.6766 35.6509 41.9123 36.2009 41.1418C36.2273 41.1089 36.2553 41.0759 36.2838 41.0425L36.284 41.0423L36.284 41.0422L36.284 41.0422L36.284 41.0422L36.284 41.0422C36.3654 40.9466 36.4498 40.8474 36.5064 40.7342C39.4851 35.308 44.7805 34.0342 50.2286 32.9642C51.5722 32.7048 52.9048 32.3798 54.2366 32.055C55.7818 31.6782 57.3258 31.3017 58.8846 31.0281C61.7359 30.5185 64.6637 30.1109 67.566 30.009C71.0029 29.8817 73.9052 31.4866 76.4765 33.703C72.5813 31.7159 68.4061 31.0281 64.0781 31.13C62.9834 31.1554 61.8887 31.2573 60.794 31.3847C59.2155 31.563 58.5536 32.7349 58.1208 34.0851C57.0006 37.5243 57.2298 40.9126 58.4263 44.3263C58.7147 45.1464 58.8945 46.0119 59.0736 46.874L59.0736 46.874L59.0736 46.8741L59.0736 46.8741L59.0736 46.8742C59.1949 47.458 59.3159 48.0404 59.4701 48.6062C59.6667 49.3112 59.8586 50.0185 60.0507 50.7261L60.0508 50.7267C60.7538 53.3177 61.4581 55.9131 62.3979 58.4143C62.7797 59.4587 64.0527 60.4778 65.1474 60.8854C69.4499 62.4394 73.8543 63.2801 78.4114 61.7261C84.1396 59.7645 87.0928 53.6503 84.9288 47.9693C84.2354 46.1696 83.4129 44.4253 82.5869 42.6735L82.5868 42.6734L82.5868 42.6733C82.4423 42.367 82.2978 42.0604 82.1538 41.7533C82.0219 41.4705 81.7507 41.2435 81.4844 41.0208L81.4844 41.0208C81.3908 40.9425 81.2979 40.8647 81.2118 40.7852C80.8826 40.4726 80.5393 40.1684 80.195 39.8634C79.5012 39.2485 78.8033 38.6301 78.2077 37.9319C77.3676 36.9384 77.393 35.6901 78.1313 34.6201C78.8442 33.5756 79.9898 33.3209 81.1863 33.5247C83.0448 33.8304 84.2414 34.9768 84.8524 36.6836C85.438 38.3395 84.8779 39.7662 83.4267 41.0145C85.3361 42.594 85.9726 44.8613 86.5327 47.1031C86.7447 47.9519 86.8587 48.828 86.9729 49.7062V49.7062C87.1054 50.7257 87.2383 51.7478 87.5256 52.7332C88.0052 54.365 88.5807 55.9746 89.1567 57.5858C89.651 58.9682 90.1456 60.3517 90.5806 61.7516C91.1454 63.5437 91.6656 65.3508 92.1853 67.1567L92.1855 67.1574C92.6262 68.6884 93.0666 70.2186 93.5338 71.738C93.7942 72.5847 94.1274 73.4107 94.4603 74.2358L94.4603 74.236L94.4604 74.2361L94.4605 74.2363L94.4606 74.2367C94.6484 74.7021 94.836 75.1673 95.0104 75.6357C95.5684 77.1174 96.8318 77.7846 98.084 78.4458C98.3174 78.5691 98.5503 78.6921 98.7783 78.8202C99.9494 79.4825 100.56 80.3487 100.255 81.7244C99.9748 83.0236 99.1347 83.8388 97.5817 83.7879C94.3994 83.6605 91.2425 83.3548 88.0857 83.0236C87.551 82.9727 86.9909 82.4122 86.6091 81.9537C84.4705 79.3806 82.3575 76.7821 80.2698 74.1836C78.8187 72.3749 77.7494 70.3878 77.1894 68.1204C76.9513 67.1875 76.466 66.3009 75.9862 65.4246C75.8502 65.1763 75.7147 64.9288 75.5854 64.6812C75.4581 64.4265 75.1017 64.1972 74.8217 64.1462L74.6206 64.1064C73.0077 63.7855 71.4033 63.4664 70.01 64.885C69.6553 65.2653 69.0738 65.469 68.5664 65.6467L68.5589 65.6493C67.6678 65.955 67.2605 66.5155 67.5914 67.3816C68.7659 70.5326 68.6772 73.7518 68.5883 76.9785V76.9786C68.5442 78.5782 68.5001 80.1795 68.6098 81.7753C68.655 82.3867 68.7405 82.9981 68.826 83.6096C68.9329 84.3738 69.0397 85.1381 69.068 85.9024C69.0935 86.4883 68.8389 87.329 68.4316 87.6347C65.0456 90.1822 61.2522 90.6153 57.357 89.2142C55.4222 88.5009 54.1238 87.0997 53.8183 84.705C53.2327 79.7373 52.4435 74.795 51.4252 69.9037C51.0585 68.0689 50.1759 66.3167 49.3161 64.6099L49.3161 64.6097L49.316 64.6096L49.316 64.6095C49.2208 64.4206 49.1259 64.2322 49.0321 64.0444C46.588 59.1785 45.9007 54.1344 46.7662 48.7335C47.4791 44.2499 48.4465 39.97 51.4252 36.4289C52.0395 35.7056 52.7693 35.085 53.4962 34.4669L53.4963 34.4668L53.4964 34.4667L53.4964 34.4667C53.7936 34.214 54.0903 33.9617 54.3784 33.703C54.4219 33.6656 54.4685 33.6298 54.5156 33.5936C54.661 33.4818 54.8106 33.3667 54.8876 33.1935C50.9669 33.2444 47.4282 34.3399 43.9403 35.9703C40.673 37.4697 38.8006 40.1437 36.9048 42.8513L36.9047 42.8513C36.4814 43.4559 36.0568 44.0622 35.6153 44.6575C35.4371 44.9122 35.4371 45.3453 35.4626 45.702C35.8364 49.2683 37.2106 52.5172 38.5819 55.7595L38.6704 55.9686C38.9431 56.5873 39.086 57.271 39.2289 57.9547C39.2861 58.2281 39.3432 58.5016 39.4087 58.7709C39.5614 59.4588 39.7142 60.1721 39.7651 60.8854C39.7755 61.0304 39.7868 61.1764 39.7981 61.3229C39.8704 62.2578 39.9446 63.2178 39.7906 64.1208C39.4851 65.7257 39.6124 66.2098 41.2672 66.4645C41.7923 66.5171 42.3218 66.5696 42.8536 66.6224L42.8664 66.6237L42.8743 66.6245L42.8802 66.625C44.9179 66.8273 46.9893 67.0328 48.9811 67.2543ZM61.2527 43.3358C59.7761 42.7243 59.1651 41.2722 58.9614 39.5654C58.7323 37.7057 60.4126 35.3874 62.3729 34.6995C63.9259 34.1646 66.1153 35.0307 66.9809 36.5593C67.4901 37.4764 67.6937 38.2152 66.5736 39.0049C65.3061 39.8927 64.1288 40.8965 62.8585 41.9796C62.3426 42.4194 61.8115 42.8723 61.2527 43.3358ZM66.0891 51.1539C65.6308 53.1665 66.9292 54.7715 68.5077 54.6441C68.6506 54.1883 68.7872 53.7418 68.922 53.3015C69.1714 52.4868 69.4143 51.693 69.6788 50.8992C69.7488 50.7007 69.8455 50.5076 69.942 50.3149L69.9421 50.3149L69.9421 50.3148C70.0561 50.0871 70.1699 49.86 70.2388 49.6254C70.4425 48.8866 70.6716 47.9185 69.7297 47.6893C69.0423 47.5364 67.9476 47.7657 67.5148 48.2497C66.8274 49.014 66.3182 50.1094 66.0891 51.1539ZM75.1768 48.3014C75.2904 48.1497 75.3951 47.9845 75.4981 47.8218C75.7412 47.4381 75.9751 47.0688 76.2969 46.9257C76.6279 46.7728 77.3408 47.0785 77.6972 47.3842C77.7757 47.4519 77.8546 47.5196 77.9337 47.5874C78.7772 48.3108 79.6378 49.0488 80.243 49.9573C80.574 50.4922 80.4467 51.4858 80.2176 52.1482C80.0394 52.6322 79.3774 53.1417 78.8683 53.2436C78.5373 53.2945 78.0027 52.6831 77.6717 52.2755C77.1116 51.5877 76.6279 50.8744 76.1442 50.1101C75.8977 49.7754 75.7121 49.3919 75.4948 48.9429L75.4947 48.9428C75.3978 48.7426 75.2945 48.5292 75.1768 48.3014ZM76.5193 57.4503L76.5266 57.4458C76.5194 57.4023 76.5101 57.3568 76.5005 57.3097C76.4763 57.1915 76.4503 57.0639 76.4503 56.9363C76.3145 56.9024 76.1787 56.8571 76.0429 56.8118C75.7714 56.7212 75.4998 56.6306 75.2283 56.6306C74.1845 56.6306 73.1406 56.6561 72.1223 56.7835C71.715 56.8344 71.2312 57.1147 71.053 57.4204C70.9512 57.5987 71.2822 58.1591 71.5622 58.4139C71.7109 58.5627 71.9291 58.6159 72.1509 58.67C72.3087 58.7084 72.4684 58.7474 72.606 58.8215C72.8861 58.9744 73.3952 59.2801 73.3698 59.4075C73.2679 59.7641 73.0133 60.1208 72.7078 60.3755C72.5599 60.5071 72.3484 60.5537 72.0868 60.6114C71.9432 60.643 71.7846 60.678 71.6131 60.7322C72.6013 60.6673 73.5173 60.6025 74.4333 60.5377C74.9569 60.5006 75.4804 60.4635 76.0175 60.4265C75.7169 60.2928 75.3725 60.2523 75.0409 60.2133C74.3613 60.1333 73.7354 60.0597 73.6498 59.2037C74.6908 58.5685 75.6052 58.0093 76.5193 57.4503Z"/>
</mask>
<path fill-rule="evenodd" clip-rule="evenodd" d="M48.9811 67.2543C45.697 68.2478 42.3873 68.095 39.0523 65.8786C38.7961 66.2008 38.5336 66.5252 38.2685 66.8528C37.6113 67.6649 36.9376 68.4974 36.3027 69.3687C35.8317 70.0438 35.3926 70.7444 34.9534 71.445L34.9534 71.445C34.5142 72.1456 34.0751 72.8462 33.6041 73.5213C32.5603 75.0243 32.1784 76.6547 32.2803 78.4635C32.4075 80.7818 31.491 81.9536 29.2252 82.3613C24.5663 83.2019 20.3911 79.7373 20.3656 75.0243C20.3656 74.5641 20.3574 74.1039 20.3492 73.6453C20.337 72.9616 20.3249 72.2815 20.3401 71.6106C20.3829 69.8115 21.1635 68.2465 21.9405 66.6886C22.0878 66.3934 22.2349 66.0984 22.3768 65.8022C22.7441 65.04 23.1149 64.279 23.4857 63.518C24.8624 60.6921 26.2397 57.8652 27.4431 54.9751C29.2121 50.7394 31.8694 47.0964 34.5362 43.4404C35.0934 42.6766 35.6509 41.9123 36.2009 41.1418C36.2273 41.1089 36.2553 41.0759 36.2838 41.0425L36.284 41.0423L36.284 41.0422L36.284 41.0422L36.284 41.0422L36.284 41.0422C36.3654 40.9466 36.4498 40.8474 36.5064 40.7342C39.4851 35.308 44.7805 34.0342 50.2286 32.9642C51.5722 32.7048 52.9048 32.3798 54.2366 32.055C55.7818 31.6782 57.3258 31.3017 58.8846 31.0281C61.7359 30.5185 64.6637 30.1109 67.566 30.009C71.0029 29.8817 73.9052 31.4866 76.4765 33.703C72.5813 31.7159 68.4061 31.0281 64.0781 31.13C62.9834 31.1554 61.8887 31.2573 60.794 31.3847C59.2155 31.563 58.5536 32.7349 58.1208 34.0851C57.0006 37.5243 57.2298 40.9126 58.4263 44.3263C58.7147 45.1464 58.8945 46.0119 59.0736 46.874L59.0736 46.874L59.0736 46.8741L59.0736 46.8741L59.0736 46.8742C59.1949 47.458 59.3159 48.0404 59.4701 48.6062C59.6667 49.3112 59.8586 50.0185 60.0507 50.7261L60.0508 50.7267C60.7538 53.3177 61.4581 55.9131 62.3979 58.4143C62.7797 59.4587 64.0527 60.4778 65.1474 60.8854C69.4499 62.4394 73.8543 63.2801 78.4114 61.7261C84.1396 59.7645 87.0928 53.6503 84.9288 47.9693C84.2354 46.1696 83.4129 44.4253 82.5869 42.6735L82.5868 42.6734L82.5868 42.6733C82.4423 42.367 82.2978 42.0604 82.1538 41.7533C82.0219 41.4705 81.7507 41.2435 81.4844 41.0208L81.4844 41.0208C81.3908 40.9425 81.2979 40.8647 81.2118 40.7852C80.8826 40.4726 80.5393 40.1684 80.195 39.8634C79.5012 39.2485 78.8033 38.6301 78.2077 37.9319C77.3676 36.9384 77.393 35.6901 78.1313 34.6201C78.8442 33.5756 79.9898 33.3209 81.1863 33.5247C83.0448 33.8304 84.2414 34.9768 84.8524 36.6836C85.438 38.3395 84.8779 39.7662 83.4267 41.0145C85.3361 42.594 85.9726 44.8613 86.5327 47.1031C86.7447 47.9519 86.8587 48.828 86.9729 49.7062V49.7062C87.1054 50.7257 87.2383 51.7478 87.5256 52.7332C88.0052 54.365 88.5807 55.9746 89.1567 57.5858C89.651 58.9682 90.1456 60.3517 90.5806 61.7516C91.1454 63.5437 91.6656 65.3508 92.1853 67.1567L92.1855 67.1574C92.6262 68.6884 93.0666 70.2186 93.5338 71.738C93.7942 72.5847 94.1274 73.4107 94.4603 74.2358L94.4603 74.236L94.4604 74.2361L94.4605 74.2363L94.4606 74.2367C94.6484 74.7021 94.836 75.1673 95.0104 75.6357C95.5684 77.1174 96.8318 77.7846 98.084 78.4458C98.3174 78.5691 98.5503 78.6921 98.7783 78.8202C99.9494 79.4825 100.56 80.3487 100.255 81.7244C99.9748 83.0236 99.1347 83.8388 97.5817 83.7879C94.3994 83.6605 91.2425 83.3548 88.0857 83.0236C87.551 82.9727 86.9909 82.4122 86.6091 81.9537C84.4705 79.3806 82.3575 76.7821 80.2698 74.1836C78.8187 72.3749 77.7494 70.3878 77.1894 68.1204C76.9513 67.1875 76.466 66.3009 75.9862 65.4246C75.8502 65.1763 75.7147 64.9288 75.5854 64.6812C75.4581 64.4265 75.1017 64.1972 74.8217 64.1462L74.6206 64.1064C73.0077 63.7855 71.4033 63.4664 70.01 64.885C69.6553 65.2653 69.0738 65.469 68.5664 65.6467L68.5589 65.6493C67.6678 65.955 67.2605 66.5155 67.5914 67.3816C68.7659 70.5326 68.6772 73.7518 68.5883 76.9785V76.9786C68.5442 78.5782 68.5001 80.1795 68.6098 81.7753C68.655 82.3867 68.7405 82.9981 68.826 83.6096C68.9329 84.3738 69.0397 85.1381 69.068 85.9024C69.0935 86.4883 68.8389 87.329 68.4316 87.6347C65.0456 90.1822 61.2522 90.6153 57.357 89.2142C55.4222 88.5009 54.1238 87.0997 53.8183 84.705C53.2327 79.7373 52.4435 74.795 51.4252 69.9037C51.0585 68.0689 50.1759 66.3167 49.3161 64.6099L49.3161 64.6097L49.316 64.6096L49.316 64.6095C49.2208 64.4206 49.1259 64.2322 49.0321 64.0444C46.588 59.1785 45.9007 54.1344 46.7662 48.7335C47.4791 44.2499 48.4465 39.97 51.4252 36.4289C52.0395 35.7056 52.7693 35.085 53.4962 34.4669L53.4963 34.4668L53.4964 34.4667L53.4964 34.4667C53.7936 34.214 54.0903 33.9617 54.3784 33.703C54.4219 33.6656 54.4685 33.6298 54.5156 33.5936C54.661 33.4818 54.8106 33.3667 54.8876 33.1935C50.9669 33.2444 47.4282 34.3399 43.9403 35.9703C40.673 37.4697 38.8006 40.1437 36.9048 42.8513L36.9047 42.8513C36.4814 43.4559 36.0568 44.0622 35.6153 44.6575C35.4371 44.9122 35.4371 45.3453 35.4626 45.702C35.8364 49.2683 37.2106 52.5172 38.5819 55.7595L38.6704 55.9686C38.9431 56.5873 39.086 57.271 39.2289 57.9547C39.2861 58.2281 39.3432 58.5016 39.4087 58.7709C39.5614 59.4588 39.7142 60.1721 39.7651 60.8854C39.7755 61.0304 39.7868 61.1764 39.7981 61.3229C39.8704 62.2578 39.9446 63.2178 39.7906 64.1208C39.4851 65.7257 39.6124 66.2098 41.2672 66.4645C41.7923 66.5171 42.3218 66.5696 42.8536 66.6224L42.8664 66.6237L42.8743 66.6245L42.8802 66.625C44.9179 66.8273 46.9893 67.0328 48.9811 67.2543ZM61.2527 43.3358C59.7761 42.7243 59.1651 41.2722 58.9614 39.5654C58.7323 37.7057 60.4126 35.3874 62.3729 34.6995C63.9259 34.1646 66.1153 35.0307 66.9809 36.5593C67.4901 37.4764 67.6937 38.2152 66.5736 39.0049C65.3061 39.8927 64.1288 40.8965 62.8585 41.9796C62.3426 42.4194 61.8115 42.8723 61.2527 43.3358ZM66.0891 51.1539C65.6308 53.1665 66.9292 54.7715 68.5077 54.6441C68.6506 54.1883 68.7872 53.7418 68.922 53.3015C69.1714 52.4868 69.4143 51.693 69.6788 50.8992C69.7488 50.7007 69.8455 50.5076 69.942 50.3149L69.9421 50.3149L69.9421 50.3148C70.0561 50.0871 70.1699 49.86 70.2388 49.6254C70.4425 48.8866 70.6716 47.9185 69.7297 47.6893C69.0423 47.5364 67.9476 47.7657 67.5148 48.2497C66.8274 49.014 66.3182 50.1094 66.0891 51.1539ZM75.1768 48.3014C75.2904 48.1497 75.3951 47.9845 75.4981 47.8218C75.7412 47.4381 75.9751 47.0688 76.2969 46.9257C76.6279 46.7728 77.3408 47.0785 77.6972 47.3842C77.7757 47.4519 77.8546 47.5196 77.9337 47.5874C78.7772 48.3108 79.6378 49.0488 80.243 49.9573C80.574 50.4922 80.4467 51.4858 80.2176 52.1482C80.0394 52.6322 79.3774 53.1417 78.8683 53.2436C78.5373 53.2945 78.0027 52.6831 77.6717 52.2755C77.1116 51.5877 76.6279 50.8744 76.1442 50.1101C75.8977 49.7754 75.7121 49.3919 75.4948 48.9429L75.4947 48.9428C75.3978 48.7426 75.2945 48.5292 75.1768 48.3014ZM76.5193 57.4503L76.5266 57.4458C76.5194 57.4023 76.5101 57.3568 76.5005 57.3097C76.4763 57.1915 76.4503 57.0639 76.4503 56.9363C76.3145 56.9024 76.1787 56.8571 76.0429 56.8118C75.7714 56.7212 75.4998 56.6306 75.2283 56.6306C74.1845 56.6306 73.1406 56.6561 72.1223 56.7835C71.715 56.8344 71.2312 57.1147 71.053 57.4204C70.9512 57.5987 71.2822 58.1591 71.5622 58.4139C71.7109 58.5627 71.9291 58.6159 72.1509 58.67C72.3087 58.7084 72.4684 58.7474 72.606 58.8215C72.8861 58.9744 73.3952 59.2801 73.3698 59.4075C73.2679 59.7641 73.0133 60.1208 72.7078 60.3755C72.5599 60.5071 72.3484 60.5537 72.0868 60.6114C71.9432 60.643 71.7846 60.678 71.6131 60.7322C72.6013 60.6673 73.5173 60.6025 74.4333 60.5377C74.9569 60.5006 75.4804 60.4635 76.0175 60.4265C75.7169 60.2928 75.3725 60.2523 75.0409 60.2133C74.3613 60.1333 73.7354 60.0597 73.6498 59.2037C74.6908 58.5685 75.6052 58.0093 76.5193 57.4503Z" fill="#20113D"/>
<path d="M39.0523 65.8786L39.6057 65.0457L38.8409 64.5375L38.2695 65.2563L39.0523 65.8786ZM48.9811 67.2543L49.2707 68.2114L49.0916 66.2604L48.9811 67.2543ZM38.2685 66.8528L39.0459 67.4819L39.0459 67.4819L38.2685 66.8528ZM36.3027 69.3687L35.4945 68.7798L35.4885 68.7881L35.4826 68.7966L36.3027 69.3687ZM34.9534 71.445L34.1061 70.9138L34.0935 70.934L34.0819 70.9547L34.9534 71.445ZM34.9534 71.445L35.8007 71.9761L35.8133 71.956L35.825 71.9353L34.9534 71.445ZM33.6041 73.5213L32.784 72.9491L32.7827 72.9509L33.6041 73.5213ZM32.2803 78.4635L33.2788 78.4087L33.2787 78.4073L32.2803 78.4635ZM29.2252 82.3613L29.0482 81.3771L29.0476 81.3771L29.2252 82.3613ZM20.3656 75.0243H19.3656L19.3656 75.0297L20.3656 75.0243ZM20.3492 73.6453L21.3491 73.6275L21.3491 73.6275L20.3492 73.6453ZM20.3401 71.6106L19.3404 71.5868L19.3404 71.5879L20.3401 71.6106ZM21.9405 66.6886L21.0457 66.2422L21.0457 66.2422L21.9405 66.6886ZM22.3768 65.8022L21.476 65.368L21.475 65.3701L22.3768 65.8022ZM23.4857 63.518L24.3847 63.956L24.3847 63.956L23.4857 63.518ZM27.4431 54.9751L26.5203 54.5897L26.5199 54.5907L27.4431 54.9751ZM34.5362 43.4404L33.7283 42.8511L33.7283 42.8511L34.5362 43.4404ZM36.2009 41.1418L35.4198 40.5174L35.4028 40.5387L35.387 40.5609L36.2009 41.1418ZM36.2838 41.0425L35.5238 40.3926L35.5223 40.3943L36.2838 41.0425ZM36.284 41.0423L35.544 40.3696L35.5338 40.3808L35.5239 40.3924L36.284 41.0423ZM36.284 41.0422L37.0239 41.7149L37.0414 41.6956L37.0579 41.6755L36.284 41.0422ZM36.284 41.0422L35.5769 40.3351L35.5416 40.3704L35.5101 40.409L36.284 41.0422ZM36.284 41.0422L36.9911 41.7493L37.0232 41.7172L37.0522 41.6824L36.284 41.0422ZM36.284 41.0422L35.5226 40.3939L35.5158 40.402L36.284 41.0422ZM36.5064 40.7342L35.6298 40.253L35.6205 40.27L35.6118 40.2873L36.5064 40.7342ZM50.2286 32.9642L50.039 31.9823L50.0359 31.9829L50.2286 32.9642ZM54.2366 32.055L53.9997 31.0835L53.9997 31.0835L54.2366 32.055ZM58.8846 31.0281L59.0575 32.013L59.0605 32.0125L58.8846 31.0281ZM67.566 30.009L67.6011 31.0084L67.603 31.0083L67.566 30.009ZM76.4765 33.703L76.0221 34.5938L77.1294 32.9455L76.4765 33.703ZM64.0781 31.13L64.1014 32.1297L64.1017 32.1297L64.0781 31.13ZM60.794 31.3847L60.9062 32.3784L60.9095 32.378L60.794 31.3847ZM58.1208 34.0851L59.0716 34.3948L59.0731 34.3904L58.1208 34.0851ZM58.4263 44.3263L57.4826 44.6571L57.4829 44.658L58.4263 44.3263ZM59.0736 46.874L58.0945 47.0774L58.1064 47.1347L58.1249 47.1902L59.0736 46.874ZM59.0736 46.874L60.0351 46.5993L60.0292 46.5784L60.0223 46.5578L59.0736 46.874ZM59.0736 46.8742L60.0527 46.6708L60.0453 46.6348L60.0352 46.5994L59.0736 46.8742ZM59.4701 48.6062L58.5053 48.8691L58.5069 48.8748L59.4701 48.6062ZM60.0507 50.7261L61.0169 50.4685L61.0158 50.4643L60.0507 50.7261ZM60.0508 50.7267L59.0846 50.9844L59.0857 50.9886L60.0508 50.7267ZM62.3979 58.4143L63.3371 58.0709L63.334 58.0625L62.3979 58.4143ZM65.1474 60.8854L64.7984 61.8226L64.8077 61.8259L65.1474 60.8854ZM78.4114 61.7261L78.7341 62.6726L78.7353 62.6721L78.4114 61.7261ZM84.9288 47.9693L85.8633 47.6133L85.8619 47.6098L84.9288 47.9693ZM82.5869 42.6735L83.4914 42.247L83.4788 42.2204L83.4648 42.1946L82.5869 42.6735ZM82.5868 42.6734L81.673 43.0796L81.6895 43.1166L81.7089 43.1523L82.5868 42.6734ZM82.5868 42.6733L83.5006 42.2672L83.4961 42.257L83.4913 42.2468L82.5868 42.6733ZM82.1538 41.7533L81.2475 42.1759L81.2484 42.1778L82.1538 41.7533ZM81.4844 41.0208L82.1261 40.2538L82.1057 40.2367L82.0844 40.2208L81.4844 41.0208ZM81.4844 41.0208L80.8427 41.7877L80.8631 41.8048L80.8844 41.8208L81.4844 41.0208ZM81.2118 40.7852L80.5233 41.5105L80.5333 41.5198L81.2118 40.7852ZM80.195 39.8634L79.5318 40.6118L79.5318 40.6118L80.195 39.8634ZM78.2077 37.9319L77.4441 38.5776L77.4469 38.5809L78.2077 37.9319ZM78.1313 34.6201L78.9544 35.1881L78.9573 35.1838L78.1313 34.6201ZM81.1863 33.5247L81.0184 34.5105L81.024 34.5114L81.1863 33.5247ZM84.8524 36.6836L85.7952 36.3502L85.7939 36.3466L84.8524 36.6836ZM83.4267 41.0145L82.7746 40.2564L81.8759 41.0294L82.7893 41.785L83.4267 41.0145ZM86.5327 47.1031L87.5029 46.8607L87.5028 46.8607L86.5327 47.1031ZM86.9729 49.7062H87.9729V49.6414L87.9645 49.5772L86.9729 49.7062ZM86.9729 49.7062H85.9729V49.771L85.9812 49.8352L86.9729 49.7062ZM87.5256 52.7332L86.5655 53.013L86.5661 53.0152L87.5256 52.7332ZM89.1567 57.5858L88.2151 57.9225L88.2151 57.9225L89.1567 57.5858ZM90.5806 61.7516L89.6256 62.0483L89.6268 62.0522L90.5806 61.7516ZM92.1853 67.1567L93.1469 66.8819L93.1463 66.8801L92.1853 67.1567ZM92.1855 67.1574L91.224 67.4321L91.2245 67.434L92.1855 67.1574ZM93.5338 71.738L94.4896 71.4441L94.4896 71.4441L93.5338 71.738ZM94.4603 74.2358L95.4032 73.9029L95.3959 73.8821L95.3876 73.8616L94.4603 74.2358ZM94.4605 74.2363L93.5175 74.5692L93.5278 74.5984L93.5399 74.6269L94.4605 74.2363ZM94.4606 74.2367L95.388 73.8626L95.3847 73.8544L95.3812 73.8462L94.4606 74.2367ZM95.0104 75.6357L94.0733 75.9846L94.0746 75.9881L95.0104 75.6357ZM98.084 78.4458L97.617 79.3301L97.617 79.3301L98.084 78.4458ZM98.7783 78.8202L99.2706 77.9497L99.2681 77.9483L98.7783 78.8202ZM100.255 81.7244L99.2787 81.5076L99.2773 81.5137L100.255 81.7244ZM97.5817 83.7879L97.5417 84.7871L97.5489 84.7874L97.5817 83.7879ZM88.0857 83.0236L88.19 82.029L88.1805 82.0281L88.0857 83.0236ZM86.6091 81.9537L85.84 82.5928L85.8406 82.5936L86.6091 81.9537ZM80.2698 74.1836L79.4898 74.8094L79.4903 74.8099L80.2698 74.1836ZM77.1894 68.1204L78.1602 67.8806L78.1583 67.8732L77.1894 68.1204ZM75.9862 65.4246L76.8634 64.9444L76.8634 64.9444L75.9862 65.4246ZM75.5854 64.6812L74.6909 65.1282L74.6949 65.1363L74.6991 65.1443L75.5854 64.6812ZM74.8217 64.1462L74.6272 65.1271L74.6349 65.1287L74.6427 65.1301L74.8217 64.1462ZM74.6206 64.1064L74.4255 65.0872L74.4261 65.0873L74.6206 64.1064ZM70.01 64.885L69.2965 64.1843L69.2875 64.1935L69.2787 64.203L70.01 64.885ZM68.5664 65.6467L68.8967 66.5906L68.8969 66.5905L68.5664 65.6467ZM68.5589 65.6493L68.8834 66.5952L68.8892 66.5932L68.5589 65.6493ZM67.5914 67.3816L68.5285 67.0324L68.5256 67.0247L67.5914 67.3816ZM68.5883 76.9785L67.5887 76.951L67.5883 76.9647V76.9785H68.5883ZM68.5883 76.9786L69.5879 77.0062L69.5883 76.9924V76.9786H68.5883ZM68.6098 81.7753L67.6121 81.8439L67.6125 81.8491L68.6098 81.7753ZM68.826 83.6096L69.8164 83.4711L69.8164 83.4711L68.826 83.6096ZM69.068 85.9024L68.0687 85.9394L68.069 85.9458L69.068 85.9024ZM68.4316 87.6347L67.8313 86.8349L67.8303 86.8356L68.4316 87.6347ZM57.357 89.2142L57.0111 90.1525L57.0186 90.1551L57.357 89.2142ZM53.8183 84.705L52.8251 84.8221L52.8263 84.8316L53.8183 84.705ZM51.4252 69.9037L50.4445 70.0997L50.4462 70.1076L51.4252 69.9037ZM49.3161 64.6099L48.4217 65.0571L48.423 65.0597L49.3161 64.6099ZM49.316 64.6095L50.2104 64.1623L50.2091 64.1596L49.316 64.6095ZM49.0321 64.0444L49.9266 63.5974L49.9257 63.5955L49.0321 64.0444ZM46.7662 48.7335L47.7536 48.8918L47.7538 48.8906L46.7662 48.7335ZM51.4252 36.4289L50.663 35.7815L50.6599 35.7852L51.4252 36.4289ZM53.4962 34.4669L52.8526 33.7015L52.8484 33.7051L53.4962 34.4669ZM53.4963 34.4668L52.8615 33.694L52.8527 33.7014L53.4963 34.4668ZM53.4964 34.4667L52.8757 33.6827L52.8686 33.6883L52.8617 33.694L53.4964 34.4667ZM53.4964 34.4667L54.1171 35.2508L54.1309 35.2399L54.1442 35.2285L53.4964 34.4667ZM54.3784 33.703L53.7273 32.9439L53.7187 32.9514L53.7102 32.959L54.3784 33.703ZM54.5156 33.5936L55.1252 34.3863L55.1252 34.3863L54.5156 33.5936ZM54.8876 33.1935L55.8015 33.5994L56.4349 32.1733L54.8746 32.1936L54.8876 33.1935ZM43.9403 35.9703L44.3574 36.8792L44.3638 36.8762L43.9403 35.9703ZM36.9048 42.8513L37.7135 43.4394L37.7188 43.4322L37.7239 43.4248L36.9048 42.8513ZM36.9047 42.8513L36.096 42.2631L36.0907 42.2704L36.0856 42.2777L36.9047 42.8513ZM35.6153 44.6575L34.8121 44.0617L34.8039 44.0729L34.7959 44.0843L35.6153 44.6575ZM35.4626 45.702L34.4651 45.7732L34.4663 45.7897L34.468 45.8062L35.4626 45.702ZM38.5819 55.7595L39.503 55.37L39.5029 55.3699L38.5819 55.7595ZM38.6704 55.9686L37.7493 56.3581L37.7523 56.3651L37.7554 56.372L38.6704 55.9686ZM39.2289 57.9547L38.2501 58.1592L38.2501 58.1593L39.2289 57.9547ZM39.4087 58.7709L40.3849 58.5541L40.3827 58.5444L40.3804 58.5347L39.4087 58.7709ZM39.7651 60.8854L40.7626 60.8142L40.7626 60.8142L39.7651 60.8854ZM39.7981 61.3229L40.7951 61.2458L40.7951 61.2458L39.7981 61.3229ZM39.7906 64.1208L40.7729 64.3078L40.7747 64.2984L40.7763 64.289L39.7906 64.1208ZM41.2672 66.4645L41.115 67.4529L41.1412 67.4569L41.1676 67.4596L41.2672 66.4645ZM42.8536 66.6224L42.9526 65.6273L42.9523 65.6273L42.8536 66.6224ZM42.8664 66.6237L42.7673 67.6188L42.7674 67.6188L42.8664 66.6237ZM42.8743 66.6245L42.7754 67.6196L42.7755 67.6196L42.8743 66.6245ZM42.8802 66.625L42.7813 67.6201L42.7814 67.6202L42.8802 66.625ZM58.9614 39.5654L59.9544 39.4469L59.9539 39.4431L58.9614 39.5654ZM61.2527 43.3358L60.8701 44.2597L61.4271 44.4903L61.8911 44.1054L61.2527 43.3358ZM62.3729 34.6995L62.0472 33.7541L62.0418 33.7559L62.3729 34.6995ZM66.9809 36.5593L67.8552 36.0738L67.8511 36.0665L66.9809 36.5593ZM66.5736 39.0049L67.1473 39.824L67.1498 39.8222L66.5736 39.0049ZM62.8585 41.9796L63.5073 42.7405L63.5073 42.7405L62.8585 41.9796ZM68.5077 54.6441L68.5881 55.6408L69.2602 55.5866L69.4619 54.9432L68.5077 54.6441ZM66.0891 51.1539L67.0642 51.376L67.0659 51.3682L66.0891 51.1539ZM68.922 53.3015L67.9658 53.0089L67.9658 53.0089L68.922 53.3015ZM69.6788 50.8992L68.7357 50.5666L68.7328 50.5748L68.73 50.5831L69.6788 50.8992ZM69.942 50.3149L70.8361 50.7628L70.8549 50.7252L70.8705 50.6863L69.942 50.3149ZM69.9421 50.3148L69.048 49.867L69.0292 49.9045L69.0136 49.9434L69.9421 50.3148ZM70.2388 49.6254L71.1983 49.9074L71.2006 49.8993L71.2029 49.8912L70.2388 49.6254ZM69.7297 47.6893L69.9662 46.7176L69.9565 46.7153L69.9467 46.7131L69.7297 47.6893ZM67.5148 48.2497L68.2583 48.9184L68.2602 48.9163L67.5148 48.2497ZM75.4981 47.8218L74.6533 47.2867L74.6533 47.2867L75.4981 47.8218ZM75.1768 48.3014L74.3766 47.7016L74.0005 48.2034L74.2884 48.7605L75.1768 48.3014ZM76.2969 46.9257L76.7033 47.8394L76.7098 47.8365L76.7162 47.8335L76.2969 46.9257ZM77.6972 47.3842L78.3499 46.6267L78.3482 46.6252L77.6972 47.3842ZM77.9337 47.5874L78.5847 46.8283L78.5847 46.8283L77.9337 47.5874ZM80.243 49.9573L81.0935 49.4312L81.0846 49.4168L81.0753 49.4028L80.243 49.9573ZM80.2176 52.1482L81.156 52.4937L81.1594 52.4844L81.1626 52.4751L80.2176 52.1482ZM78.8683 53.2436L79.0204 54.232L79.0426 54.2285L79.0645 54.2242L78.8683 53.2436ZM77.6717 52.2755L78.448 51.6452L78.4471 51.6441L77.6717 52.2755ZM76.1442 50.1101L76.9892 49.5753L76.9703 49.5455L76.9494 49.5172L76.1442 50.1101ZM75.4948 48.9429L74.5868 49.362L74.5907 49.3703L74.5947 49.3786L75.4948 48.9429ZM75.4947 48.9428L76.4027 48.5238L76.3989 48.5154L76.3948 48.5072L75.4947 48.9428ZM76.5266 57.4458L77.048 58.2991L77.6239 57.9473L77.5131 57.2816L76.5266 57.4458ZM76.5193 57.4503L75.9979 56.597L75.9976 56.5972L76.5193 57.4503ZM76.5005 57.3097L77.4803 57.1097L77.4803 57.1096L76.5005 57.3097ZM76.4503 56.9363H77.4503V56.1557L76.693 55.9662L76.4503 56.9363ZM76.0429 56.8118L76.3594 55.8632L76.3593 55.8632L76.0429 56.8118ZM72.1223 56.7835L72.2464 57.7757L72.2464 57.7757L72.1223 56.7835ZM71.053 57.4204L70.1891 56.9167L70.1846 56.9245L71.053 57.4204ZM71.5622 58.4139L72.2695 57.707L72.2527 57.6902L72.2351 57.6742L71.5622 58.4139ZM72.1509 58.67L72.3877 57.6984L72.3877 57.6984L72.1509 58.67ZM72.606 58.8215L73.0851 57.9437L73.0804 57.9412L72.606 58.8215ZM73.3698 59.4075L74.3313 59.682L74.3425 59.6431L74.3504 59.6034L73.3698 59.4075ZM72.7078 60.3755L72.0674 59.6075L72.0551 59.6177L72.0432 59.6283L72.7078 60.3755ZM72.0868 60.6114L72.3021 61.5879L72.3021 61.5879L72.0868 60.6114ZM71.6131 60.7322L71.3118 59.7787L71.6786 61.73L71.6131 60.7322ZM74.4333 60.5377L74.504 61.5352L74.504 61.5352L74.4333 60.5377ZM76.0175 60.4265L76.0863 61.4241L76.4238 59.5128L76.0175 60.4265ZM75.0409 60.2133L75.1577 59.2201L75.1577 59.2201L75.0409 60.2133ZM73.6498 59.2037L73.129 58.35L72.5923 58.6775L72.6548 59.3031L73.6498 59.2037ZM38.4988 66.7115C42.1196 69.1177 45.7469 69.2775 49.2707 68.2114L48.6916 66.2971C45.6471 67.2181 42.6551 67.0722 39.6057 65.0457L38.4988 66.7115ZM39.0459 67.4819C39.3105 67.1548 39.5757 66.8271 39.8351 66.5009L38.2695 65.2563C38.0165 65.5746 37.7568 65.8955 37.4912 66.2237L39.0459 67.4819ZM37.1109 69.9577C37.7285 69.1101 38.3862 68.2971 39.0459 67.4819L37.4912 66.2237C36.8364 67.0328 36.1468 67.8847 35.4945 68.7798L37.1109 69.9577ZM35.8007 71.9761C36.2421 71.272 36.6683 70.5924 37.1229 69.9409L35.4826 68.7966C34.9952 69.4952 34.5431 70.2168 34.1061 70.9138L35.8007 71.9761ZM35.825 71.9353L35.825 71.9352L34.0819 70.9547L34.0818 70.9548L35.825 71.9353ZM34.4242 74.0934C34.9117 73.3948 35.3638 72.6732 35.8007 71.9761L34.1061 70.9139C33.6647 71.618 33.2385 72.2976 32.784 72.9491L34.4242 74.0934ZM33.2787 78.4073C33.1876 76.7902 33.5257 75.3874 34.4255 74.0917L32.7827 72.9509C31.5949 74.6613 31.1692 76.5193 31.2818 78.5197L33.2787 78.4073ZM29.4023 83.3455C30.6624 83.1188 31.7306 82.6477 32.4374 81.7456C33.1426 80.8453 33.3492 79.6925 33.2788 78.4087L31.2818 78.5183C31.3386 79.5528 31.1506 80.145 30.863 80.5122C30.5768 80.8774 30.0538 81.1961 29.0482 81.3771L29.4023 83.3455ZM19.3656 75.0297C19.3944 80.3669 24.1355 84.2958 29.4028 83.3454L29.0476 81.3771C24.997 82.1081 21.3877 79.1077 21.3656 75.0189L19.3656 75.0297ZM19.3494 73.6631C19.3576 74.1232 19.3656 74.5745 19.3656 75.0243H21.3656C21.3656 74.5537 21.3572 74.0846 21.3491 73.6275L19.3494 73.6631ZM19.3404 71.5879C19.3246 72.2825 19.3372 72.983 19.3494 73.6631L21.3491 73.6275C21.3368 72.9401 21.3252 72.2805 21.3399 71.6333L19.3404 71.5879ZM21.0457 66.2422C20.2852 67.767 19.3894 69.529 19.3404 71.5868L21.3399 71.6344C21.3765 70.0941 22.0418 68.7261 22.8354 67.1349L21.0457 66.2422ZM21.475 65.3701C21.3371 65.658 21.1935 65.9458 21.0457 66.2422L22.8354 67.1349C22.9821 66.8409 23.1327 66.5388 23.2787 66.2343L21.475 65.3701ZM22.5867 63.08C22.2161 63.8407 21.8444 64.6036 21.476 65.368L23.2777 66.2363C23.6439 65.4764 24.0137 64.7173 24.3847 63.956L22.5867 63.08ZM26.5199 54.5907C25.3297 57.4491 23.9657 60.2496 22.5867 63.08L24.3847 63.956C25.7592 61.1345 27.1497 58.2813 28.3663 55.3595L26.5199 54.5907ZM33.7283 42.8511C31.0727 46.4918 28.3421 50.2276 26.5203 54.5897L28.3659 55.3604C30.082 51.2512 32.6662 47.701 35.3441 44.0298L33.7283 42.8511ZM35.387 40.5609C34.8405 41.3264 34.286 42.0866 33.7283 42.8511L35.3441 44.0298C35.9008 43.2667 36.4614 42.4982 37.0148 41.7228L35.387 40.5609ZM35.5223 40.3943C35.4958 40.4255 35.4575 40.4703 35.4198 40.5174L36.982 41.7663C36.997 41.7474 37.0149 41.7263 37.0453 41.6907L35.5223 40.3943ZM35.5239 40.3924L35.5238 40.3926L37.0438 41.6923L37.044 41.6922L35.5239 40.3924ZM35.544 40.3696L35.544 40.3696L37.0239 41.7149L37.0239 41.7149L35.544 40.3696ZM35.5101 40.409L35.51 40.409L37.0579 41.6755L37.058 41.6754L35.5101 40.409ZM35.5769 40.3351L35.5769 40.3351L36.9911 41.7493L36.9911 41.7493L35.5769 40.3351ZM35.5158 40.402L35.5158 40.402L37.0522 41.6824L37.0523 41.6824L35.5158 40.402ZM35.6118 40.2873C35.6195 40.272 35.6216 40.2721 35.6059 40.293C35.5884 40.3162 35.5665 40.3424 35.5226 40.3939L37.0455 41.6904C37.1122 41.6121 37.2808 41.4217 37.4009 41.1812L35.6118 40.2873ZM50.0359 31.9829C44.6202 33.0465 38.8565 34.3748 35.6298 40.253L37.383 41.2154C40.1136 36.2411 44.9407 35.0218 50.4213 33.9455L50.0359 31.9829ZM53.9997 31.0835C52.6639 31.4092 51.3548 31.7283 50.039 31.9823L50.4182 33.9461C51.7895 33.6813 53.1457 33.3503 54.4736 33.0265L53.9997 31.0835ZM58.7117 30.0431C57.1153 30.3234 55.5395 30.708 53.9997 31.0835L54.4736 33.0265C56.0241 32.6484 57.5364 32.28 59.0575 32.013L58.7117 30.0431ZM67.5309 29.0097C64.5621 29.1139 61.5826 29.5301 58.7087 30.0436L59.0605 32.0125C61.8892 31.507 64.7653 31.108 67.6011 31.0084L67.5309 29.0097ZM77.1294 32.9455C74.4683 30.6518 71.3259 28.869 67.5289 29.0097L67.603 31.0083C70.6799 30.8943 73.3421 32.3215 75.8236 34.4604L77.1294 32.9455ZM64.1017 32.1297C68.3072 32.0307 72.3091 32.6996 76.0221 34.5938L76.9309 32.8122C72.8536 30.7322 68.505 30.0255 64.0546 30.1302L64.1017 32.1297ZM60.9095 32.378C61.9911 32.2522 63.0512 32.1541 64.1014 32.1297L64.0549 30.1302C62.9156 30.1567 61.7863 30.2625 60.6784 30.3914L60.9095 32.378ZM59.0731 34.3904C59.2754 33.7592 59.4994 33.2802 59.7855 32.9481C60.0439 32.648 60.3764 32.4383 60.9062 32.3784L60.6817 30.391C59.6331 30.5095 58.8454 30.9748 58.2701 31.6429C57.7224 32.2788 57.399 33.0608 57.1685 33.7799L59.0731 34.3904ZM59.37 43.9955C58.2324 40.7499 58.0311 37.5895 59.0716 34.3948L57.17 33.7754C55.9701 37.4591 56.2271 41.0752 57.4826 44.6571L59.37 43.9955ZM60.0527 46.6706C59.876 45.8203 59.684 44.8884 59.3697 43.9946L57.4829 44.658C57.7454 45.4045 57.9129 46.2035 58.0945 47.0774L60.0527 46.6706ZM60.0223 46.5578L60.0223 46.5578L58.1249 47.1902L58.1249 47.1903L60.0223 46.5578ZM60.0351 46.5994L60.0351 46.5993L58.1121 47.1488L58.1121 47.1488L60.0351 46.5994ZM60.0351 46.5994L60.0351 46.5994L58.1121 47.1488L58.1121 47.1488L60.0351 46.5994ZM60.0352 46.5994L60.0351 46.5994L58.1121 47.1488L58.1121 47.1489L60.0352 46.5994ZM60.4349 48.3432C60.2902 47.8121 60.1751 47.26 60.0527 46.6708L58.0945 47.0776C58.2147 47.6561 58.3417 48.2688 58.5053 48.8691L60.4349 48.3432ZM61.0158 50.4643C60.8239 49.7572 60.6311 49.0465 60.4334 48.3375L58.5069 48.8748C58.7024 49.5758 58.8934 50.2798 59.0856 50.988L61.0158 50.4643ZM61.0171 50.4691L61.0169 50.4685L59.0844 50.9838L59.0846 50.9844L61.0171 50.4691ZM63.334 58.0625C62.4136 55.6131 61.7211 53.0637 61.0159 50.4649L59.0857 50.9886C59.7866 53.5717 60.5025 56.2132 61.4618 58.766L63.334 58.0625ZM65.4963 59.9482C65.0725 59.7904 64.5826 59.4995 64.1607 59.1333C63.7297 58.7594 63.4487 58.3764 63.3371 58.0709L61.4587 58.7576C61.7288 59.4966 62.2753 60.1453 62.8499 60.644C63.4336 61.1504 64.1276 61.5727 64.7985 61.8225L65.4963 59.9482ZM78.0886 60.7796C73.8473 62.2259 69.7039 61.4679 65.4871 59.9449L64.8077 61.8259C69.196 63.4109 73.8612 64.3342 78.7341 62.6726L78.0886 60.7796ZM83.9943 48.3252C85.9526 53.4665 83.2919 58.9977 78.0874 60.78L78.7353 62.6721C84.9872 60.5312 88.2329 53.8342 85.8633 47.6133L83.9943 48.3252ZM81.6824 43.1C82.511 44.8573 83.3175 46.5688 83.9956 48.3288L85.8619 47.6098C85.1532 45.7704 84.3148 43.9932 83.4914 42.247L81.6824 43.1ZM81.7089 43.1523L81.709 43.1523L83.4648 42.1946L83.4647 42.1946L81.7089 43.1523ZM81.673 43.0795L81.673 43.0796L83.5006 42.2673L83.5006 42.2672L81.673 43.0795ZM81.2484 42.1778C81.3929 42.4861 81.5379 42.7936 81.6823 43.0998L83.4913 42.2468C83.3468 41.9403 83.2027 41.6347 83.0592 41.3288L81.2484 42.1778ZM80.8427 41.7877C80.9833 41.9053 81.0785 41.9861 81.1554 42.0646C81.191 42.1008 81.2143 42.1285 81.2295 42.1488C81.2444 42.1688 81.2483 42.1776 81.2475 42.1759L83.0601 41.3306C82.8158 40.8068 82.345 40.437 82.1261 40.2538L80.8427 41.7877ZM80.8844 41.8208L80.8844 41.8208L82.0844 40.2208L82.0844 40.2208L80.8844 41.8208ZM80.5333 41.5198C80.6405 41.6188 80.7527 41.7124 80.8427 41.7877L82.1261 40.2538C82.0289 40.1725 81.9552 40.1106 81.8903 40.0506L80.5333 41.5198ZM79.5318 40.6118C79.8783 40.9188 80.2086 41.2117 80.5233 41.5104L81.9003 40.06C81.5565 39.7336 81.2003 39.418 80.8582 39.1149L79.5318 40.6118ZM77.4469 38.5809C78.0955 39.3412 78.8473 40.0052 79.5318 40.6118L80.8582 39.1149C80.155 38.4918 79.511 37.9189 78.9685 37.2829L77.4469 38.5809ZM77.3082 34.0522C76.3504 35.4402 76.2725 37.1921 77.4441 38.5776L78.9713 37.2862C78.4626 36.6847 78.4356 35.9399 78.9544 35.1881L77.3082 34.0522ZM81.3543 32.5389C79.9237 32.2952 78.3136 32.579 77.3053 34.0564L78.9573 35.1838C79.3747 34.5722 80.0559 34.3465 81.0184 34.5105L81.3543 32.5389ZM85.7939 36.3466C85.0763 34.342 83.6097 32.9099 81.3487 32.5379L81.024 34.5114C82.4799 34.7509 83.4065 35.6115 83.9109 37.0207L85.7939 36.3466ZM84.0789 41.7726C84.8941 41.0712 85.5262 40.2631 85.8487 39.328C86.1772 38.3753 86.1563 37.3715 85.7952 36.3502L83.9096 37.017C84.134 37.6517 84.1258 38.1891 83.958 38.6758C83.784 39.1801 83.4104 39.7094 82.7746 40.2564L84.0789 41.7726ZM87.5028 46.8607C86.9492 44.6447 86.2574 42.0582 84.0641 40.2439L82.7893 41.785C84.4149 43.1297 84.996 45.0779 85.5625 47.3455L87.5028 46.8607ZM87.9645 49.5772C87.8516 48.7092 87.7313 47.7752 87.5029 46.8607L85.5625 47.3455C85.7582 48.1287 85.8657 48.9469 85.9812 49.8351L87.9645 49.5772ZM87.9729 49.7062V49.7062H85.9729V49.7062H87.9729ZM88.4856 52.4534C88.2237 51.5547 88.0988 50.6099 87.9645 49.5773L85.9812 49.8352C86.1121 50.8414 86.253 51.941 86.5655 53.013L88.4856 52.4534ZM90.0984 57.2492C89.5206 55.6333 88.9551 54.0507 88.485 52.4512L86.5661 53.0152C87.0552 54.6792 87.6407 56.3158 88.2151 57.9225L90.0984 57.2492ZM91.5356 61.4548C91.0933 60.0315 90.5914 58.6282 90.0984 57.2492L88.2151 57.9225C88.7105 59.3082 89.198 60.6719 89.6256 62.0483L91.5356 61.4548ZM93.1463 66.8801C92.6271 65.0762 92.1036 63.2571 91.5343 61.451L89.6268 62.0522C90.1873 63.8304 90.704 65.6254 91.2243 67.4333L93.1463 66.8801ZM93.1471 66.8827L93.1468 66.8819L91.2238 67.4314L91.224 67.4321L93.1471 66.8827ZM94.4896 71.4441C94.0255 69.9347 93.5876 68.4133 93.1465 66.8808L91.2245 67.434C91.6648 68.9635 92.1077 70.5024 92.578 72.0319L94.4896 71.4441ZM95.3876 73.8616C95.052 73.0298 94.7354 72.2433 94.4896 71.4441L92.578 72.0319C92.8529 72.9262 93.2027 73.7916 93.5329 74.6099L95.3876 73.8616ZM95.4033 73.9031L95.4032 73.9029L93.5173 74.5686L93.5173 74.5688L95.4033 73.9031ZM95.4034 73.9033L95.4033 73.9031L93.5173 74.5688L93.5174 74.569L95.4034 73.9033ZM95.4034 73.9035L95.4034 73.9033L93.5174 74.569L93.5175 74.5692L95.4034 73.9035ZM95.3812 73.8462L95.381 73.8458L93.5399 74.6269L93.54 74.6273L95.3812 73.8462ZM95.9476 75.2868C95.7677 74.8036 95.5749 74.3259 95.388 73.8626L93.5332 74.6108C93.7218 75.0784 93.9044 75.531 94.0733 75.9846L95.9476 75.2868ZM98.551 77.5616C97.2491 76.8741 96.3516 76.3596 95.9463 75.2833L94.0746 75.9881C94.7852 77.8752 96.4145 78.6951 97.617 79.3301L98.551 77.5616ZM99.2681 77.9483C99.0269 77.8128 98.7823 77.6838 98.551 77.5616L97.617 79.3301C97.8524 79.4544 98.0738 79.5714 98.2885 79.692L99.2681 77.9483ZM101.231 81.9412C101.427 81.0579 101.344 80.2407 100.945 79.5204C100.561 78.8263 99.9424 78.3297 99.2706 77.9497L98.286 79.6906C98.7853 79.973 99.0579 80.2407 99.1955 80.4892C99.3185 80.7114 99.388 81.0152 99.2787 81.5076L101.231 81.9412ZM97.5489 84.7874C98.5107 84.8189 99.363 84.5821 100.029 84.036C100.689 83.4955 101.059 82.7404 101.232 81.9351L99.2773 81.5137C99.1709 82.0076 98.9806 82.3097 98.7619 82.489C98.55 82.6625 98.2057 82.8078 97.6145 82.7884L97.5489 84.7874ZM87.9813 84.0182C91.1405 84.3496 94.3248 84.6583 97.5417 84.7871L97.6217 82.7887C94.474 82.6627 91.3445 82.36 88.19 82.0291L87.9813 84.0182ZM85.8406 82.5936C86.0518 82.8472 86.3362 83.1589 86.6651 83.4222C86.9748 83.6701 87.4349 83.9661 87.9908 84.0191L88.1805 82.0281C88.2018 82.0302 88.1145 82.0205 87.915 81.8608C87.7348 81.7165 87.5482 81.5187 87.3775 81.3137L85.8406 82.5936ZM79.4903 74.8099C81.5803 77.4114 83.697 80.0144 85.84 82.5928L87.3781 81.3145C85.2441 78.7468 83.1346 76.1528 81.0494 73.5573L79.4903 74.8099ZM76.2185 68.3603C76.8187 70.79 77.9627 72.9059 79.4898 74.8094L81.0498 73.5578C79.6747 71.8438 78.6801 69.9855 78.1602 67.8806L76.2185 68.3603ZM75.1091 65.9048C75.6014 66.8041 76.0191 67.5788 76.2204 68.3677L78.1583 67.8732C77.8835 66.7962 77.3305 65.7978 76.8634 64.9444L75.1091 65.9048ZM74.6991 65.1443C74.8337 65.4019 74.9739 65.658 75.1091 65.9048L76.8634 64.9444C76.7266 64.6946 76.5958 64.4556 76.4718 64.2182L74.6991 65.1443ZM74.6427 65.1301C74.6317 65.1281 74.6268 65.1264 74.628 65.1268C74.629 65.1271 74.6336 65.1287 74.6412 65.132C74.6574 65.1391 74.6776 65.15 74.6972 65.1634C74.7066 65.1698 74.7143 65.1757 74.7203 65.1807C74.7263 65.1857 74.7293 65.1888 74.7298 65.1892C74.7303 65.1898 74.7266 65.186 74.7202 65.1773C74.7139 65.1687 74.703 65.1525 74.6909 65.1282L76.48 64.2343C76.3141 63.9024 76.0478 63.6637 75.8244 63.5113C75.595 63.3547 75.3067 63.2181 75.0007 63.1624L74.6427 65.1301ZM74.4261 65.0873L74.6272 65.1271L75.0162 63.1654L74.8152 63.1255L74.4261 65.0873ZM70.7235 65.5857C71.6929 64.5986 72.7419 64.7523 74.4255 65.0872L74.8157 63.1256C73.2736 62.8188 71.1136 62.3342 69.2965 64.1843L70.7235 65.5857ZM68.8969 66.5905C69.3373 66.4362 70.1852 66.1633 70.7413 65.5671L69.2787 64.203C69.1254 64.3673 68.8102 64.5017 68.2358 64.7029L68.8969 66.5905ZM68.8892 66.5932L68.8967 66.5906L68.236 64.7028L68.2285 64.7054L68.8892 66.5932ZM68.5256 67.0247C68.4794 66.9038 68.4766 66.8393 68.4772 66.8196C68.4775 66.8102 68.4785 66.8087 68.4775 66.8123C68.4771 66.8137 68.4765 66.8154 68.4758 66.8171C68.475 66.8187 68.4745 66.8196 68.4745 66.8195C68.4747 66.8193 68.5461 66.7109 68.8834 66.5952L68.2343 64.7034C67.6805 64.8934 67.1028 65.2181 66.7592 65.7911C66.389 66.4085 66.4139 67.1015 66.6573 67.7386L68.5256 67.0247ZM69.5879 77.0061C69.676 73.8089 69.7815 70.3942 68.5285 67.0324L66.6544 67.7309C67.7502 70.6709 67.6784 73.6948 67.5887 76.951L69.5879 77.0061ZM69.5883 76.9786V76.9785H67.5883V76.9786H69.5883ZM69.6074 81.7067C69.5016 80.167 69.5436 78.6138 69.5879 77.0062L67.5887 76.9511C67.5448 78.5425 67.4986 80.1921 67.6121 81.8439L69.6074 81.7067ZM69.8164 83.4711C69.7301 82.8541 69.6495 82.275 69.6071 81.7015L67.6125 81.8491C67.6606 82.4985 67.7509 83.1422 67.8357 83.748L69.8164 83.4711ZM70.0673 85.8654C70.0369 85.0415 69.922 84.2265 69.8164 83.4711L67.8357 83.748C67.9437 84.5211 68.0426 85.2347 68.0687 85.9393L70.0673 85.8654ZM69.0318 88.4345C69.4704 88.1053 69.7203 87.5957 69.857 87.2009C70.0031 86.7791 70.0861 86.2963 70.0671 85.8589L68.069 85.9458C68.0754 86.0943 68.0439 86.3249 67.9672 86.5464C67.9304 86.6524 67.8904 86.7356 67.8552 86.7926C67.8174 86.854 67.8033 86.8559 67.8313 86.8349L69.0318 88.4345ZM57.0186 90.1551C61.2087 91.6624 65.3592 91.1977 69.0328 88.4338L67.8303 86.8356C64.7319 89.1668 61.2957 89.5682 57.6955 88.2732L57.0186 90.1551ZM52.8263 84.8316C52.9992 86.1863 53.4623 87.3187 54.2028 88.2235C54.9414 89.126 55.9107 89.7467 57.0111 90.1524L57.703 88.2759C56.8686 87.9683 56.2212 87.5318 55.7505 86.9568C55.2817 86.3839 54.9429 85.6184 54.8102 84.5785L52.8263 84.8316ZM50.4462 70.1076C51.4581 74.9682 52.2428 79.8814 52.8252 84.8221L54.8114 84.5879C54.2227 79.5931 53.4289 74.6218 52.4042 69.6999L50.4462 70.1076ZM48.423 65.0597C49.2952 66.7912 50.1091 68.4212 50.4446 70.0997L52.4058 69.7077C52.0078 67.7166 51.0565 65.8421 50.2092 64.16L48.423 65.0597ZM48.4217 65.057L48.4217 65.0571L50.2106 64.1626L50.2105 64.1625L48.4217 65.057ZM48.4216 65.0568L48.4217 65.057L50.2105 64.1625L50.2105 64.1624L48.4216 65.0568ZM48.4215 65.0567L48.4216 65.0568L50.2105 64.1624L50.2104 64.1623L48.4215 65.0567ZM48.1375 64.4913C48.2322 64.6809 48.3278 64.8707 48.4229 65.0594L50.2091 64.1596C50.1138 63.9705 50.0196 63.7836 49.9266 63.5974L48.1375 64.4913ZM45.7788 48.5753C44.8821 54.1704 45.5945 59.4285 48.1384 64.4932L49.9257 63.5955C47.5815 58.9285 46.9192 54.0983 47.7536 48.8918L45.7788 48.5753ZM50.6599 35.7852C47.4906 39.5529 46.494 44.0771 45.7786 48.5765L47.7538 48.8906C48.4642 44.4226 49.4024 40.387 52.1904 37.0726L50.6599 35.7852ZM52.8484 33.7051C52.1324 34.314 51.3388 34.9859 50.663 35.7815L52.1873 37.0763C52.7403 36.4253 53.4063 35.8561 54.144 35.2287L52.8484 33.7051ZM52.8527 33.7014L52.8526 33.7015L54.1398 35.2323L54.1399 35.2322L52.8527 33.7014ZM52.8617 33.694L52.8616 33.6941L54.1311 35.2395L54.1311 35.2395L52.8617 33.694ZM52.8757 33.6827L52.8757 33.6827L54.1171 35.2508L54.1171 35.2508L52.8757 33.6827ZM53.7102 32.959C53.4339 33.2072 53.1475 33.4507 52.8486 33.7049L54.1442 35.2285C54.4396 34.9773 54.7467 34.7163 55.0465 34.447L53.7102 32.959ZM53.906 32.8009C53.8629 32.8341 53.7947 32.8862 53.7273 32.9439L55.0294 34.462C55.0492 34.4451 55.0742 34.4255 55.1252 34.3863L53.906 32.8009ZM53.9736 32.7876C54.0006 32.7268 54.0311 32.6986 54.0245 32.7051C54.0209 32.7087 54.0112 32.7177 53.9906 32.7346C53.9687 32.7525 53.9443 32.7714 53.906 32.8009L55.1252 34.3863C55.2333 34.3032 55.6044 34.043 55.8015 33.5994L53.9736 32.7876ZM44.3638 36.8762C47.7713 35.2833 51.1669 34.2419 54.9005 34.1934L54.8746 32.1936C50.7669 32.2469 47.085 33.3964 43.5168 35.0644L44.3638 36.8762ZM37.7239 43.4248C39.6399 40.6886 41.3721 38.2491 44.3574 36.8792L43.5232 35.0614C39.9738 36.6903 37.9613 39.5989 36.0856 42.2777L37.7239 43.4248ZM37.7135 43.4395L37.7135 43.4394L36.096 42.2631L36.096 42.2631L37.7135 43.4395ZM36.4185 45.2532C36.8695 44.6451 37.3018 44.0276 37.7239 43.4249L36.0856 42.2777C35.6609 42.8842 35.2442 43.4793 34.8121 44.0617L36.4185 45.2532ZM36.4601 45.6308C36.4488 45.4735 36.447 45.3434 36.4573 45.2443C36.4622 45.197 36.4683 45.1726 36.4703 45.166C36.4725 45.1589 36.4654 45.1868 36.4347 45.2307L34.7959 44.0843C34.5648 44.4147 34.4942 44.7842 34.4679 45.0387C34.4399 45.309 34.4509 45.5738 34.4651 45.7732L36.4601 45.6308ZM39.5029 55.3699C38.1221 52.1052 36.8129 48.9918 36.4571 45.5977L34.468 45.8062C34.8599 49.5448 36.2991 52.9293 37.6609 56.149L39.5029 55.3699ZM39.5914 55.5791L39.503 55.37L37.6609 56.149L37.7493 56.3581L39.5914 55.5791ZM40.2078 57.7501C40.0691 57.0866 39.9079 56.2968 39.5854 55.5652L37.7554 56.372C37.9784 56.8778 38.103 57.4554 38.2501 58.1592L40.2078 57.7501ZM40.3804 58.5347C40.3194 58.2838 40.2655 58.0263 40.2078 57.7501L38.2501 58.1593C38.3066 58.43 38.367 58.7194 38.437 59.0071L40.3804 58.5347ZM40.7626 60.8142C40.7057 60.0175 40.5365 59.2367 40.3849 58.5541L38.4325 58.9877C38.5864 59.6808 38.7227 60.3266 38.7676 60.9566L40.7626 60.8142ZM40.7951 61.2458C40.7837 61.0987 40.7727 60.9557 40.7626 60.8142L38.7676 60.9566C38.7782 61.1051 38.7898 61.254 38.8011 61.4L40.7951 61.2458ZM40.7763 64.289C40.9549 63.2425 40.8655 62.1555 40.7951 61.2458L38.8011 61.4C38.8753 62.3601 38.9344 63.1932 38.8048 63.9526L40.7763 64.289ZM41.4193 65.4762C41.0362 65.4172 40.8201 65.3553 40.7005 65.3023C40.5998 65.2577 40.631 65.2482 40.6636 65.3056C40.6863 65.3457 40.6561 65.3289 40.6595 65.1471C40.663 64.9618 40.6982 64.7006 40.7729 64.3078L38.8082 63.9338C38.7302 64.3435 38.6667 64.7446 38.6599 65.1095C38.6529 65.4777 38.7007 65.8988 38.9239 66.2923C39.3848 67.1049 40.3096 67.3289 41.115 67.4529L41.4193 65.4762ZM42.9523 65.6273C42.4205 65.5745 41.8914 65.522 41.3667 65.4695L41.1676 67.4596C41.6932 67.5122 42.2231 67.5647 42.7548 67.6175L42.9523 65.6273ZM42.9654 65.6286L42.9526 65.6273L42.7546 67.6175L42.7673 67.6188L42.9654 65.6286ZM42.9732 65.6294L42.9653 65.6286L42.7674 67.6188L42.7754 67.6196L42.9732 65.6294ZM42.979 65.6299L42.9731 65.6294L42.7755 67.6196L42.7813 67.6201L42.979 65.6299ZM49.0916 66.2604C47.0929 66.0382 45.0156 65.832 42.9789 65.6299L42.7814 67.6202C44.8203 67.8225 46.8857 68.0274 48.8706 68.2481L49.0916 66.2604ZM57.9685 39.6838C58.1861 41.5077 58.8827 43.4367 60.8701 44.2597L61.6353 42.4118C60.6695 42.0119 60.1441 41.0367 59.9544 39.4469L57.9685 39.6838ZM62.0418 33.7559C60.8306 34.1809 59.7628 35.0812 59.0302 36.1148C58.3044 37.1389 57.814 38.4303 57.9689 39.6876L59.9539 39.4431C59.8797 38.8407 60.1149 38.0431 60.662 37.2712C61.2023 36.5088 61.9548 35.906 62.704 35.6431L62.0418 33.7559ZM67.8511 36.0665C67.2852 35.0672 66.3232 34.335 65.3069 33.9274C64.2948 33.5216 63.1058 33.3894 62.0472 33.7541L62.6986 35.645C63.193 35.4747 63.8752 35.5081 64.5625 35.7837C65.2455 36.0576 65.811 36.5227 66.1107 37.052L67.8511 36.0665ZM67.1498 39.8222C67.8523 39.3269 68.3345 38.7021 68.3862 37.8937C68.432 37.1782 68.112 36.5364 67.8552 36.0739L66.1066 37.0447C66.359 37.4993 66.3954 37.6854 66.3903 37.766C66.3893 37.7818 66.3869 37.8079 66.3507 37.8618C66.3075 37.9263 66.2098 38.0378 65.9974 38.1876L67.1498 39.8222ZM63.5073 42.7405C64.7844 41.6517 65.9255 40.6798 67.1473 39.824L65.9998 38.1859C64.6867 39.1056 63.4733 40.1413 62.2097 41.2186L63.5073 42.7405ZM61.8911 44.1054C62.4559 43.6369 62.9921 43.1798 63.5073 42.7405L62.2097 41.2186C61.6932 41.659 61.167 42.1076 60.6143 42.5661L61.8911 44.1054ZM68.4272 53.6473C67.7034 53.7057 66.7128 52.9188 67.0641 51.3759L65.114 50.9319C64.5488 53.4141 66.1551 55.8372 68.5881 55.6408L68.4272 53.6473ZM67.9658 53.0089C67.8309 53.4496 67.6952 53.8929 67.5535 54.3449L69.4619 54.9432C69.6059 54.4837 69.7436 54.0341 69.8782 53.5942L67.9658 53.0089ZM68.73 50.5831C68.4611 51.3905 68.2146 52.1961 67.9658 53.0089L69.8782 53.5942C70.1282 52.7775 70.3676 51.9955 70.6275 51.2152L68.73 50.5831ZM69.0479 49.867C68.9567 50.0492 68.8302 50.2987 68.7357 50.5666L70.6218 51.2318C70.6674 51.1027 70.7343 50.966 70.8361 50.7628L69.0479 49.867ZM69.0136 49.9435L69.0136 49.9435L70.8705 50.6863L70.8705 50.6862L69.0136 49.9435ZM69.0136 49.9434L69.0136 49.9435L70.8705 50.6862L70.8705 50.6862L69.0136 49.9434ZM69.2794 49.3434C69.2402 49.477 69.17 49.6233 69.048 49.867L70.8362 50.7627C70.9422 50.5509 71.0996 50.243 71.1983 49.9074L69.2794 49.3434ZM69.4932 48.6609C69.555 48.6759 69.5094 48.6779 69.4549 48.6099C69.4073 48.5505 69.4137 48.5125 69.4185 48.5622C69.4238 48.6174 69.4205 48.7151 69.3933 48.8676C69.3666 49.017 69.3249 49.178 69.2748 49.3596L71.2029 49.8912C71.2967 49.5508 71.4648 48.9467 71.4093 48.3703C71.3791 48.057 71.2788 47.6878 71.0157 47.3593C70.7456 47.0223 70.3753 46.8172 69.9662 46.7176L69.4932 48.6609ZM68.2602 48.9163C68.2601 48.9164 68.295 48.8804 68.3942 48.8308C68.4889 48.7834 68.6135 48.738 68.7589 48.7034C69.066 48.6301 69.3532 48.63 69.5126 48.6654L69.9467 46.7131C69.4187 46.5957 68.8149 46.6338 68.2947 46.758C67.7947 46.8773 67.1822 47.1214 66.7693 47.5832L68.2602 48.9163ZM67.0659 51.3682C67.2652 50.4596 67.7075 49.5308 68.2583 48.9184L66.7713 47.581C65.9473 48.4972 65.3712 49.7593 65.1123 50.9397L67.0659 51.3682ZM74.6533 47.2867C74.5464 47.4555 74.4626 47.5868 74.3766 47.7016L75.9769 48.9011C76.1183 48.7125 76.2438 48.5134 76.3429 48.3569L74.6533 47.2867ZM75.8906 46.012C75.5252 46.1744 75.2678 46.4374 75.0932 46.6512C74.919 46.8647 74.7672 47.1069 74.6533 47.2867L76.3429 48.3569C76.4721 48.153 76.5587 48.0187 76.6427 47.9158C76.7264 47.8133 76.7468 47.82 76.7033 47.8394L75.8906 46.012ZM78.3482 46.6252C78.0662 46.3833 77.6896 46.1735 77.3276 46.0426C77.1426 45.9757 76.9285 45.9173 76.7051 45.8948C76.4956 45.8738 76.1869 45.875 75.8777 46.0178L76.7162 47.8335C76.6392 47.8691 76.5773 47.8796 76.5462 47.883C76.5148 47.8865 76.4997 47.8843 76.5053 47.8848C76.5198 47.8863 76.5683 47.8948 76.6474 47.9234C76.7229 47.9507 76.8046 47.9885 76.8812 48.032C76.9594 48.0763 77.0154 48.1169 77.0461 48.1433L78.3482 46.6252ZM78.5847 46.8283C78.5055 46.7604 78.4274 46.6934 78.3499 46.6267L77.0444 48.1418C77.124 48.2103 77.2038 48.2788 77.2827 48.3465L78.5847 46.8283ZM81.0753 49.4028C80.3802 48.3595 79.4074 47.5339 78.5847 46.8283L77.2827 48.3465C78.1471 49.0878 78.8955 49.7382 79.4108 50.5117L81.0753 49.4028ZM81.1626 52.4751C81.3051 52.0633 81.4151 51.5554 81.4392 51.0529C81.4618 50.5807 81.4171 49.9542 81.0935 49.4312L79.3926 50.4834C79.3897 50.4787 79.4095 50.5105 79.4256 50.6032C79.4413 50.6931 79.4484 50.8123 79.4415 50.957C79.4274 51.2506 79.3592 51.5707 79.2725 51.8212L81.1626 52.4751ZM79.0645 54.2242C79.5208 54.1328 79.9569 53.8873 80.2908 53.6208C80.6189 53.359 80.9799 52.972 81.156 52.4937L79.2792 51.8026C79.2821 51.7946 79.2723 51.8227 79.226 51.8799C79.182 51.9343 79.1199 51.9964 79.0433 52.0575C78.8744 52.1923 78.7249 52.2525 78.672 52.263L79.0645 54.2242ZM76.8954 52.9059C77.0656 53.1155 77.3211 53.4195 77.596 53.6703C77.7322 53.7946 77.9055 53.9359 78.1029 54.0455C78.2795 54.1435 78.6138 54.2946 79.0204 54.232L78.7161 52.2552C78.8438 52.2356 78.9427 52.2536 78.9954 52.2677C79.0227 52.2751 79.0425 52.2827 79.0543 52.2877C79.0662 52.2928 79.0727 52.2964 79.0735 52.2968C79.074 52.2971 79.0618 52.2902 79.0365 52.2709C79.0119 52.2522 78.9809 52.2265 78.944 52.1928C78.7861 52.0487 78.6088 51.8432 78.448 51.6452L76.8954 52.9059ZM75.2992 50.6449C75.793 51.4251 76.3007 52.1755 76.8963 52.9069L78.4471 51.6441C77.9226 50.9999 77.4628 50.3237 76.9892 49.5753L75.2992 50.6449ZM74.5947 49.3786C74.8028 49.8085 75.0276 50.2803 75.3389 50.7031L76.9494 49.5172C76.7678 49.2705 76.6215 48.9754 76.3949 48.5072L74.5947 49.3786ZM74.5868 49.3619L74.5868 49.362L76.4027 48.5239L76.4027 48.5238L74.5868 49.3619ZM74.2884 48.7605C74.3993 48.9751 74.4972 49.1771 74.5946 49.3785L76.3948 48.5072C76.2984 48.308 76.1898 48.0834 76.0651 47.8422L74.2884 48.7605ZM76.0052 56.5925L75.9979 56.597L77.0407 58.3037L77.048 58.2991L76.0052 56.5925ZM75.5207 57.5098C75.5311 57.5608 75.5365 57.5879 75.5402 57.6101L77.5131 57.2816C77.5023 57.2168 77.4891 57.1528 77.4803 57.1097L75.5207 57.5098ZM75.4503 56.9363C75.4503 57.1818 75.5 57.4083 75.5207 57.5099L77.4803 57.1096C77.4674 57.0468 77.4601 57.0097 77.4549 56.976C77.4501 56.9444 77.4503 56.9338 77.4503 56.9363H75.4503ZM75.7265 57.7604C75.8556 57.8034 76.0281 57.8615 76.2076 57.9064L76.693 55.9662C76.6009 55.9432 76.5018 55.9107 76.3594 55.8632L75.7265 57.7604ZM75.2283 57.6306C75.3082 57.6306 75.4213 57.6586 75.7265 57.7604L76.3593 55.8632C76.1214 55.7838 75.6915 55.6306 75.2283 55.6306V57.6306ZM72.2464 57.7757C73.202 57.6562 74.1962 57.6306 75.2283 57.6306V55.6306C74.1727 55.6306 73.0793 55.656 71.9982 55.7912L72.2464 57.7757ZM71.917 57.924C71.8984 57.9558 71.8901 57.9578 71.9121 57.9377C71.9319 57.9196 71.9648 57.8943 72.0102 57.8674C72.0551 57.841 72.1033 57.8183 72.1492 57.8016C72.1961 57.7846 72.2298 57.7778 72.2464 57.7757L71.9982 55.7912C71.6345 55.8367 71.2821 55.9747 70.9932 56.1453C70.715 56.3096 70.3947 56.564 70.1891 56.9167L71.917 57.924ZM72.2351 57.6742C72.2224 57.6626 72.1903 57.6294 72.1483 57.5737C72.1078 57.5201 72.0711 57.4629 72.0441 57.4129C72.0136 57.3564 72.0121 57.3403 72.0185 57.3649C72.0218 57.3778 72.0345 57.4295 72.0342 57.5083C72.0338 57.5835 72.0212 57.7415 71.9214 57.9163L70.1846 56.9245C69.9531 57.33 70.0492 57.7382 70.082 57.8652C70.1306 58.053 70.2102 58.2263 70.2847 58.3641C70.4315 58.6355 70.6494 58.9354 70.8893 59.1536L72.2351 57.6742ZM72.3877 57.6984C72.3296 57.6843 72.2894 57.6744 72.2526 57.6642C72.2172 57.6544 72.1975 57.6477 72.187 57.6437C72.1649 57.6352 72.2115 57.6489 72.2695 57.707L70.8549 59.1208C71.2386 59.5048 71.7618 59.6044 71.9141 59.6415L72.3877 57.6984ZM73.0804 57.9412C72.8097 57.7953 72.5196 57.7306 72.3877 57.6984L71.9141 59.6415C71.9983 59.662 72.0475 59.6744 72.0901 59.6876C72.1299 59.6999 72.1387 59.7057 72.1317 59.7019L73.0804 57.9412ZM74.3504 59.6034C74.4233 59.2387 74.2836 58.959 74.2218 58.8521C74.1493 58.7264 74.0645 58.6339 74.0108 58.5797C73.8996 58.4675 73.7726 58.3725 73.6762 58.305C73.4733 58.1629 73.2393 58.0279 73.0851 57.9438L72.1269 59.6993C72.2527 59.768 72.4134 59.8623 72.5287 59.9431C72.5915 59.987 72.6044 60.0019 72.5903 59.9876C72.5851 59.9824 72.5381 59.9359 72.4897 59.8519C72.464 59.8074 72.4264 59.7328 72.4004 59.632C72.3737 59.529 72.3551 59.3821 72.3892 59.2115L74.3504 59.6034ZM73.3483 61.1435C73.7762 60.7867 74.1641 60.2679 74.3313 59.682L72.4082 59.1329C72.3718 59.2603 72.2505 59.4548 72.0674 59.6075L73.3483 61.1435ZM72.3021 61.5879C72.4823 61.5482 72.9896 61.4633 73.3725 61.1227L72.0432 59.6283C72.1045 59.5738 72.1502 59.5635 72.1186 59.5742C72.1033 59.5794 72.0775 59.587 72.0339 59.5978C71.9893 59.6088 71.9396 59.6198 71.8716 59.6348L72.3021 61.5879ZM71.9144 61.6857C72.0378 61.6467 72.1557 61.6202 72.3021 61.5879L71.8716 59.6348C71.7308 59.6658 71.5313 59.7093 71.3118 59.7787L71.9144 61.6857ZM74.3627 59.5402C73.4464 59.605 72.5329 59.6697 71.5476 59.7343L71.6786 61.73C72.6697 61.665 73.5882 61.6 74.504 61.5352L74.3627 59.5402ZM75.9486 59.4288C75.4106 59.466 74.8862 59.5031 74.3627 59.5402L74.504 61.5352C75.0276 61.4981 75.5503 61.4611 76.0863 61.4241L75.9486 59.4288ZM74.924 61.2064C75.2869 61.2491 75.4738 61.2791 75.6111 61.3402L76.4238 59.5128C75.9599 59.3065 75.4581 59.2554 75.1577 59.2201L74.924 61.2064ZM72.6548 59.3031C72.688 59.6357 72.7807 59.9584 72.9627 60.246C73.1482 60.5392 73.3929 60.7427 73.6494 60.8805C74.103 61.124 74.64 61.173 74.924 61.2064L75.1577 59.2201C74.979 59.1991 74.855 59.1839 74.7474 59.1621C74.6421 59.1407 74.6025 59.1221 74.5957 59.1185C74.595 59.1181 74.604 59.1229 74.6173 59.1349C74.6313 59.1475 74.6436 59.1622 74.6527 59.1766C74.6721 59.2071 74.6544 59.1996 74.6449 59.1042L72.6548 59.3031ZM75.9976 56.5972C75.0835 57.1562 74.1695 57.7151 73.129 58.35L74.1707 60.0573C75.2122 59.4218 76.1269 58.8624 77.041 58.3035L75.9976 56.5972Z" fill="black" mask="url(#path-3-inside-1)"/>
<defs>
<filter id="filter0_d" x="4.6665" y="8.50098" width="112" height="112" filterUnits="userSpaceOnUse" color-interpolation-filters="sRGB">
<feFlood flood-opacity="0" result="BackgroundImageFix"/>
<feColorMatrix in="SourceAlpha" type="matrix" values="0 0 0 0 0 0 0 0 0 0 0 0 0 0 0 0 0 0 127 0"/>
<feOffset dy="4"/>
<feGaussianBlur stdDeviation="2"/>
<feColorMatrix type="matrix" values="0 0 0 0 0 0 0 0 0 0 0 0 0 0 0 0 0 0 0.25 0"/>
<feBlend mode="normal" in2="BackgroundImageFix" result="effect1_dropShadow"/>
<feBlend mode="normal" in="SourceGraphic" in2="effect1_dropShadow" result="shape"/>
</filter>
</defs>
</svg>
