<svg width="113" height="112" viewBox="0 0 113 112" fill="none" xmlns="http://www.w3.org/2000/svg">
<g filter="url(#filter0_d)">
<circle cx="56.6667" cy="52" r="52" fill="#F58021"/>
</g>
<path fill-rule="evenodd" clip-rule="evenodd" d="M44.9816 59.7533C41.6975 60.7468 38.3878 60.594 35.0527 58.3776C34.7966 58.6998 34.5341 59.0242 34.269 59.3518C33.6118 60.164 32.9381 60.9965 32.3032 61.8678C31.8322 62.5429 31.3931 63.2434 30.9539 63.944L30.9539 63.944C30.5147 64.6446 30.0756 65.3452 29.6046 66.0203C28.5608 67.5233 28.1789 69.1538 28.2807 70.9625C28.408 73.2808 27.4915 74.4527 25.2257 74.8603C20.5668 75.701 16.3916 72.2363 16.3661 67.5233C16.3661 67.0631 16.3579 66.6029 16.3497 66.1443C16.3375 65.4606 16.3254 64.7805 16.3406 64.1096C16.3834 62.3106 17.164 60.7456 17.941 59.1876C18.0883 58.8924 18.2354 58.5974 18.3773 58.3012C18.7446 57.539 19.1154 56.7781 19.4862 56.017C20.8629 53.1911 22.2402 50.3642 23.4436 47.4741C25.2126 43.2384 27.8699 39.5954 30.5367 35.9395C31.0939 35.1757 31.6514 34.4113 32.2014 33.6409C32.2278 33.6079 32.2558 33.5749 32.2843 33.5415L32.2844 33.5413L32.2845 33.5413L32.2845 33.5412L32.2845 33.5412L32.2845 33.5412C32.3659 33.4456 32.4503 33.3464 32.5069 33.2333C35.4855 27.807 40.781 26.5332 46.2291 25.4632C47.5727 25.2038 48.9053 24.8788 50.2371 24.554C51.7823 24.1772 53.3263 23.8007 54.8851 23.5271C57.7364 23.0176 60.6642 22.61 63.5665 22.5081C67.0034 22.3807 69.9057 23.9856 72.477 26.202C68.5818 24.2149 64.4066 23.5271 60.0786 23.629C58.9839 23.6545 57.8892 23.7564 56.7945 23.8837C55.216 24.0621 54.5541 25.2339 54.1213 26.5841C53.0011 30.0233 53.2302 33.4116 54.4268 36.8253C54.7152 37.6455 54.895 38.5109 55.0741 39.373L55.0741 39.3731L55.0741 39.3731L55.0741 39.3731L55.0741 39.3732C55.1954 39.9571 55.3164 40.5394 55.4706 41.1052C55.6672 41.8102 55.8591 42.5175 56.0511 43.2252L56.0513 43.2258C56.7543 45.8167 57.4585 48.4121 58.3983 50.9133C58.7802 51.9578 60.0532 52.9768 61.1479 53.3844C65.4504 54.9384 69.8548 55.7791 74.4119 54.2251C80.1401 52.2635 83.0933 46.1494 80.9293 40.4683C80.2359 38.6686 79.4134 36.9243 78.5874 35.1725L78.5873 35.1724L78.5873 35.1724C78.4428 34.866 78.2983 34.5594 78.1543 34.2523C78.0224 33.9695 77.7512 33.7426 77.4849 33.5198L77.4849 33.5198C77.3913 33.4415 77.2984 33.3637 77.2123 33.2842C76.883 32.9716 76.5398 32.6675 76.1955 32.3624C75.5017 31.7475 74.8037 31.1291 74.2082 30.431C73.368 29.4374 73.3935 28.1891 74.1318 27.1191C74.8446 26.0746 75.9903 25.8199 77.1868 26.0237C79.0453 26.3294 80.2419 27.4758 80.8529 29.1827C81.4384 30.8386 80.8784 32.2652 79.4272 33.5135C81.3366 35.093 81.9731 37.3603 82.5332 39.6021C82.7452 40.451 82.8592 41.3271 82.9734 42.2052V42.2053C83.1059 43.2247 83.2388 44.2468 83.526 45.2322C84.0057 46.864 84.5811 48.4736 85.1572 50.0849C85.6515 51.4672 86.1461 52.8507 86.5811 54.2506C87.1459 56.0427 87.6661 57.8498 88.1858 59.6557L88.186 59.6564C88.6267 61.1874 89.0671 62.7176 89.5343 64.237C89.7946 65.0838 90.1279 65.9097 90.4607 66.7348L90.4608 66.735L90.4609 66.7352L90.4609 66.7354L90.4611 66.7357C90.6489 67.2012 90.8365 67.6663 91.0109 68.1347C91.5688 69.6164 92.8323 70.2836 94.0845 70.9449C94.3179 71.0681 94.5508 71.1911 94.7788 71.3192C95.9499 71.9816 96.5609 72.8477 96.2554 74.2234C95.9753 75.5226 95.1352 76.3379 93.5822 76.2869C90.3999 76.1595 87.243 75.8538 84.0861 75.5227C83.5515 75.4717 82.9914 74.9112 82.6095 74.4527C80.471 71.8796 78.3579 69.2811 76.2703 66.6826C74.8192 64.8739 73.7499 62.8868 73.1898 60.6195C72.9518 59.6865 72.4664 58.8 71.9867 57.9236C71.8507 57.6753 71.7152 57.4278 71.5859 57.1803C71.4586 56.9255 71.1022 56.6962 70.8222 56.6453L70.6211 56.6054C69.0082 56.2846 67.4038 55.9654 66.0105 57.3841C65.6558 57.7643 65.0743 57.968 64.5668 58.1457L64.5593 58.1483C63.6683 58.454 63.261 59.0145 63.5919 59.8807C64.7664 63.0316 64.6777 66.2509 64.5888 69.4775V69.4776C64.5447 71.0772 64.5006 72.6786 64.6103 74.2743C64.6555 74.8858 64.741 75.4972 64.8265 76.1086C64.9334 76.8729 65.0402 77.6371 65.0685 78.4014C65.094 78.9873 64.8394 79.828 64.4321 80.1337C61.0461 82.6813 57.2527 83.1144 53.3575 81.7132C51.4227 80.9999 50.1243 79.5987 49.8188 77.204C49.2332 72.2363 48.444 67.2941 47.4257 62.4028C47.0589 60.5679 46.1763 58.8157 45.3166 57.1089L45.3166 57.1088L45.3165 57.1086L45.3165 57.1085C45.2213 56.9196 45.1264 56.7312 45.0325 56.5434C42.5885 51.6776 41.9011 46.6334 42.7667 41.2326C43.4796 36.7489 44.447 32.469 47.4257 28.9279C48.04 28.2046 48.7698 27.584 49.4967 26.9659L49.4968 26.9658L49.4969 26.9658L49.4969 26.9657C49.7941 26.713 50.0908 26.4607 50.3789 26.202C50.4224 26.1646 50.469 26.1288 50.5161 26.0926C50.6615 25.9808 50.8111 25.8657 50.888 25.6925C46.9674 25.7435 43.4286 26.8389 39.9408 28.4693C36.6735 29.9687 34.8011 32.6427 32.9052 35.3503L32.9052 35.3503C32.4819 35.9549 32.0573 36.5612 31.6158 37.1565C31.4376 37.4112 31.4376 37.8443 31.4631 38.201C31.8369 41.7673 33.2111 45.0162 34.5824 48.2585L34.6709 48.4676C34.9436 49.0863 35.0865 49.77 35.2294 50.4537C35.2866 50.7272 35.3437 51.0006 35.4092 51.2699C35.5619 51.9578 35.7147 52.6711 35.7656 53.3844C35.776 53.5294 35.7872 53.6754 35.7986 53.8219C35.8709 54.7568 35.9451 55.7169 35.7911 56.6198C35.4855 58.2248 35.6128 58.7088 37.2677 58.9636C37.7928 59.0161 38.3223 59.0686 38.8541 59.1214L38.8668 59.1227L38.8748 59.1235L38.8807 59.1241C40.9184 59.3263 42.9898 59.5318 44.9816 59.7533ZM57.2532 35.8348C55.7766 35.2234 55.1656 33.7712 54.9619 32.0644C54.7328 30.2047 56.4131 27.8864 58.3734 27.1986C59.9264 26.6636 62.1158 27.5297 62.9814 29.0583C63.4906 29.9754 63.6942 30.7142 62.5741 31.5039C61.3066 32.3917 60.1293 33.3955 58.859 34.4786C58.3431 34.9184 57.812 35.3713 57.2532 35.8348ZM62.0896 43.653C61.6313 45.6655 62.9297 47.2705 64.5082 47.1431C64.6511 46.6873 64.7877 46.2409 64.9225 45.8006C65.1718 44.9858 65.4148 44.192 65.6793 43.3982C65.7493 43.1997 65.846 43.0066 65.9425 42.8139L65.9425 42.8139L65.9426 42.8138C66.0566 42.5861 66.1704 42.359 66.2393 42.1244C66.443 41.3856 66.6721 40.4176 65.7302 40.1883C65.0428 40.0354 63.9481 40.2647 63.5153 40.7488C62.8279 41.513 62.3187 42.6085 62.0896 43.653ZM71.1772 40.8004C71.2909 40.6487 71.3956 40.4835 71.4986 40.3208C71.7417 39.9371 71.9756 39.5678 72.2974 39.4247C72.6284 39.2718 73.3412 39.5775 73.6977 39.8832C73.7762 39.9509 73.8551 40.0186 73.9342 40.0864L73.9342 40.0864C74.7777 40.8098 75.6383 41.5479 76.2435 42.4563C76.5745 42.9913 76.4472 43.9848 76.2181 44.6472C76.0398 45.1312 75.3779 45.6407 74.8688 45.7426C74.5378 45.7936 74.0032 45.1822 73.6722 44.7746C73.1121 44.0867 72.6284 43.3734 72.1447 42.6091C71.8982 42.2744 71.7126 41.891 71.4953 41.4419L71.4952 41.4419C71.3983 41.2416 71.295 41.0282 71.1772 40.8004ZM72.5124 49.9538L72.5271 49.9449C72.5199 49.9014 72.5106 49.8558 72.501 49.8088C72.4768 49.6905 72.4508 49.5629 72.4508 49.4353C72.315 49.4014 72.1792 49.3561 72.0434 49.3108C71.7719 49.2202 71.5003 49.1296 71.2287 49.1296C70.1849 49.1296 69.1411 49.1551 68.1228 49.2825C67.7154 49.3335 67.2317 49.6137 67.0535 49.9194C66.9517 50.0977 67.2826 50.6582 67.5627 50.9129C67.7114 51.0617 67.9296 51.1149 68.1514 51.169C68.3092 51.2075 68.4689 51.2464 68.6065 51.3205C68.8866 51.4734 69.3957 51.7791 69.3703 51.9065C69.2684 52.2631 69.0138 52.6198 68.7083 52.8745C68.5604 53.0061 68.3489 53.0527 68.0873 53.1104C67.9437 53.142 67.7851 53.177 67.6136 53.2312C68.6018 53.1664 69.5178 53.1015 70.4338 53.0367C70.9574 52.9996 71.4809 52.9626 72.018 52.9255C71.7174 52.7918 71.373 52.7513 71.0414 52.7123C70.3618 52.6323 69.7358 52.5587 69.6503 51.7027C70.6885 51.0692 71.6008 50.5113 72.5124 49.9538Z" fill="#20113D"/>
<defs>
<filter id="filter0_d" x="0.666748" y="0" width="112" height="112" filterUnits="userSpaceOnUse" color-interpolation-filters="sRGB">
<feFlood flood-opacity="0" result="BackgroundImageFix"/>
<feColorMatrix in="SourceAlpha" type="matrix" values="0 0 0 0 0 0 0 0 0 0 0 0 0 0 0 0 0 0 127 0"/>
<feOffset dy="4"/>
<feGaussianBlur stdDeviation="2"/>
<feColorMatrix type="matrix" values="0 0 0 0 0 0 0 0 0 0 0 0 0 0 0 0 0 0 0.25 0"/>
<feBlend mode="normal" in2="BackgroundImageFix" result="effect1_dropShadow"/>
<feBlend mode="normal" in="SourceGraphic" in2="effect1_dropShadow" result="shape"/>
</filter>
</defs>
</svg>
