<svg width="55" height="48" viewBox="0 0 55 48" fill="none" xmlns="http://www.w3.org/2000/svg">
<path d="M14.9307 32.6531C14.9045 32.7088 14.8841 32.7732 14.8317 32.8845C14.0474 31.5893 13.7399 30.2046 13.3901 28.8355C13.3448 28.8148 13.2923 28.799 13.2529 28.7871C13.1366 29.1828 12.9692 29.5489 12.9126 29.9555C12.7111 31.2857 12.9121 32.6524 13.3217 34.0325C13.819 35.672 14.3164 37.3115 14.7597 38.9489C15.0904 40.1782 15.3249 41.4208 15.1757 42.6397C15.0136 43.9818 14.5361 45.0382 13.2938 45.4478C12.7397 45.6269 12.1707 45.498 11.6264 45.1363C11.0952 44.7787 10.9853 44.2161 11.3904 43.8438C11.6309 43.6197 11.9064 43.3849 12.2155 43.2803C12.8264 43.076 13.1119 42.6183 13.1084 41.9465C13.1064 41.3246 13.0737 40.6723 12.923 40.0479C12.5102 38.3774 12.042 36.7184 11.5534 35.0603C11.0048 33.2007 10.624 31.3562 10.7711 29.5154C10.8995 27.916 11.4453 26.5977 12.5617 25.6489C12.6434 25.5817 12.7177 25.5194 12.7993 25.4521C12.8503 25.4181 12.8999 25.3977 12.9932 25.3481C13.0941 25.6751 13.1775 25.9755 13.2682 26.2712C13.5086 24.2537 13.4571 22.113 14.929 20.6852C17.3807 22.292 18.8515 24.5918 19.5949 27.428C19.8124 24.281 17.8661 21.9298 15.9547 19.5044C16.3658 19.2681 16.7551 19.0464 17.1443 18.8247C17.4752 18.642 17.8062 18.4592 18.1385 18.2628C18.8878 17.8389 18.9097 17.8243 19.5085 18.6965C20.0707 19.5295 20.5747 20.4014 21.0947 21.2499C21.1925 21.4136 21.2831 21.582 21.4233 21.7302C21.2207 20.25 20.5573 18.8994 19.7685 17.5181C20.5149 17.1215 21.2409 16.7259 21.9903 16.3656C22.0909 16.3111 22.3142 16.4419 22.4528 16.5402C24.0217 17.6551 25.0135 19.2317 25.7545 21.0011C25.9766 21.5269 26.1769 22.0673 26.4268 22.5874C26.2189 20.0042 24.8401 17.7957 23.4277 15.5205C24.2659 14.961 25.0822 14.416 25.9495 13.837C26.8999 14.9069 27.5181 16.2369 28.1843 17.5601C28.1601 16.5714 27.8384 15.6414 27.3228 14.7519C27.1402 14.4286 26.9503 14.1102 26.7385 13.8063C26.48 13.432 26.4593 13.1151 26.7202 12.8265C27.2477 12.2581 27.7635 11.6721 28.291 11.1037C30.7093 12.8981 32.2545 15.1991 32.9935 18.0764C33.001 16.596 32.5228 15.1599 31.9119 13.7616C31.3025 12.3495 30.3956 11.1233 29.2861 9.95603C30.3645 8.91813 31.405 7.91825 32.4747 6.8989C33.6472 8.30397 34.6285 9.65855 35.1754 11.2777C34.9259 9.53631 34.2769 7.92172 33.1335 6.37007C33.6598 6.13319 34.1191 5.89022 34.6046 5.71872C34.7096 5.68679 34.9183 5.8273 35.0628 5.93436C35.6976 6.4009 36.3586 6.68468 37.0879 6.7066C36.2286 6.44077 35.7044 5.76043 35.272 4.98066C34.9637 4.43597 35.1166 4.14311 35.6388 4.13797C36.508 4.11733 37.3671 4.06536 38.2217 3.99089C38.8095 3.94196 39.3679 3.78536 39.9557 3.73643C40.8439 3.665 41.6872 3.95426 42.5554 4.45578C43.2063 4.83535 43.9473 5.00204 44.6578 5.20188C45.0911 5.33236 45.5145 5.74932 45.5674 6.21006C45.6012 6.53091 45.6423 6.84689 45.7039 7.16195C45.8811 8.04846 45.6907 8.7607 45.1851 9.37803C45.1267 9.28983 45.0785 9.23296 45.0449 9.16636C44.738 8.48086 44.7438 8.48968 44.1168 8.59032C43.5232 8.694 42.9575 8.85546 42.5845 9.37152C42.1548 9.97639 42.1627 10.7343 42.6344 11.3352C43.0155 11.8312 43.9754 12.0426 44.5133 11.7598C44.6139 11.7054 44.7145 11.651 44.8151 11.5965C45.1527 12.3124 45.0977 12.8325 44.627 13.2485C44.2539 13.5739 43.8384 13.8512 43.4099 14.1882C42.8553 13.7952 42.2642 13.363 41.6615 12.9768C41.0457 12.5866 40.4139 12.2833 39.657 12.4579C39.9693 12.6437 40.2043 12.7921 40.5283 12.9956C39.2947 13.4502 38.5049 14.2573 38.1356 15.5723C37.9324 15.0592 37.7351 14.555 37.4939 13.9528C37.5243 16.9979 40.0557 21.3116 44.5014 23.0882C44.306 23.1423 44.1529 23.1809 43.9983 23.2332C44.0071 23.2782 44.0086 23.3281 44.0174 23.3731C44.1997 23.3786 44.3792 23.4114 44.5512 23.3856C45.1433 23.2956 45.7252 23.1743 46.3231 23.0931C46.9006 23.0129 47.4463 23.2337 48.033 23.7069C47.2969 24.1983 46.6191 24.6508 45.9486 25.0985C45.3742 25.4691 44.8057 25.8487 44.2197 26.2017C44.1045 26.2659 43.9004 26.275 43.7792 26.2032C41.2401 24.7184 38.6111 23.9549 35.9287 23.6978C35.0564 23.6187 34.2612 23.3228 33.5066 22.7072C33.3067 22.5482 33.0805 22.4448 32.815 22.393C33.1348 22.7647 33.4472 23.1412 33.8268 23.5874C30.6197 23.8077 27.7647 24.7342 25.2079 26.4283C24.8121 25.7513 24.4396 25.1096 24.0729 24.4768C24.0452 24.4825 24.0248 24.4834 23.9971 24.4892C24.0585 24.6772 24.1054 24.8748 24.1872 25.0619C24.5935 26.0244 24.5987 26.9368 24.3997 27.8582C23.9421 29.9445 22.7605 31.4455 21.4827 32.8964C20.7745 33.6998 20.1569 34.6082 19.548 35.498C19.0833 36.1771 18.8799 37.0125 18.9376 37.9407C18.9494 38.0854 18.9203 38.232 18.9073 38.4187C18.7614 38.3254 18.6403 38.2536 18.4885 38.1514C18.5075 38.2277 18.509 38.2776 18.5266 38.3041C19.2801 39.3782 20.1632 40.1243 21.3897 39.9924C21.8418 39.9449 22.2838 40.0569 22.6942 40.597C22.5338 40.704 22.3807 40.8062 22.235 40.9035C21.1053 41.6577 19.9697 42.403 18.859 43.17C18.6039 43.3402 18.4391 43.2977 18.1705 43.0826C17.2218 42.3168 16.5908 41.3007 16.0036 40.2555C15.7874 39.8656 15.6979 39.3656 15.6698 38.9265C15.5636 37.4965 15.5317 36.0678 15.4196 34.629C15.3738 33.9727 15.1938 33.3042 15.0809 32.6419C15.0314 32.6622 14.9847 32.6552 14.9307 32.6531ZM40.2749 5.13872C40.2735 5.21597 40.2794 5.28835 40.278 5.36559C40.688 5.52436 41.0995 5.733 41.5152 5.83703C41.667 5.87566 41.833 5.65032 41.9934 5.54328C41.8328 5.39608 41.6648 5.12662 41.5175 5.1105C41.096 5.06121 40.6832 5.1205 40.2749 5.13872Z" fill="#F58021"/>
<path d="M26.7855 32.7946C26.7183 32.7885 26.5652 32.7635 26.3303 32.7423C27.0573 33.4275 27.7795 33.5178 28.4928 33.4995C29.3418 33.4797 30.1791 33.3786 31.0281 33.3588C31.5299 33.3545 32.0275 33.5185 32.3912 34.1155C32.2877 34.1974 32.1973 34.2832 32.0952 34.3514C30.8851 35.1597 29.6808 35.9768 28.4517 36.7723C28.2841 36.8843 28.0054 36.8922 27.788 36.8338C27.1358 36.6586 26.4952 36.4374 25.8474 36.2211C25.0886 35.9643 24.598 35.4774 24.4675 34.5974C24.4249 34.2949 24.2481 33.9803 24.0816 33.697C23.7529 33.1529 23.3878 32.6332 23.0197 32.0773C24.1232 30.9966 24.5026 29.4577 24.9332 27.9484C25.1238 27.2993 25.4794 26.8836 26.0802 26.6477C26.6395 27.3177 27.1156 28.0051 27.0011 28.8961C26.9503 29.2482 26.8937 29.5915 26.875 29.9603C26.8393 30.875 26.8153 31.8074 26.7855 32.7946Z" fill="#F58021"/>
<path d="M30.0879 24.7739C31.6269 24.5733 33.0418 24.3918 34.5049 24.2037C34.8593 25.8506 34.5601 27.4632 35.3609 29.0538C35.1363 29.1275 34.9335 29.1866 34.7294 29.2593C34.7367 29.318 34.7513 29.3719 34.7587 29.4306C35.0884 29.4522 35.4342 29.514 35.7507 29.468C36.2671 29.3904 36.7469 29.2099 37.2589 29.1097C37.8395 29.002 38.3211 29.3166 38.7841 29.8729C38.3102 30.1894 37.8509 30.4962 37.3989 30.7981C36.5751 31.3483 35.763 31.9162 34.9216 32.44C34.77 32.5286 34.4928 32.5228 34.3045 32.4449C33.5501 32.1471 33.0068 31.5171 32.6721 30.7734C31.7879 28.8185 30.9679 26.8335 30.0879 24.7739Z" fill="#F58021"/>
</svg>
