<svg width="60" height="60" viewBox="0 0 60 60" fill="none" xmlns="http://www.w3.org/2000/svg">
<path d="M60 5C60 2.23858 57.7614 0 55 0H5C2.23858 0 0 2.23858 0 5V55C0 57.7614 2.23858 60 5 60H55C57.7614 60 60 57.7614 60 55V5Z" fill="#20113D"/>
<path fill-rule="evenodd" clip-rule="evenodd" d="M28.9313 19.12C29.1134 19.1992 29.2789 19.3153 29.4182 19.4616C29.5578 19.6075 29.6686 19.7809 29.7442 19.9717C29.8197 20.1626 29.8586 20.3672 29.8586 20.5739C29.8586 20.7805 29.8197 20.9852 29.7442 21.176C29.6686 21.3669 29.5578 21.5403 29.4182 21.6862L23.3905 28H40.5411C40.9655 28 41.3724 28.2107 41.6725 28.5858C41.9725 28.9609 42.1411 29.4696 42.1411 30C42.1411 30.5304 41.9725 31.0391 41.6725 31.4142C41.3724 31.7893 40.9655 32 40.5411 32H23.3897L29.4182 38.3146C29.6997 38.6096 29.8579 39.0097 29.8579 39.4269C29.8579 39.8441 29.6997 40.2443 29.4182 40.5393C29.1366 40.8343 28.7548 41 28.3566 41C27.9585 41 27.5766 40.8343 27.2951 40.5393L18.2991 31.1127C18.1595 30.9668 18.0487 30.7934 17.9731 30.6026C17.8976 30.4117 17.8586 30.2071 17.8586 30.0004C17.8586 29.7938 17.8976 29.5891 17.9731 29.3983C18.0487 29.2074 18.1595 29.034 18.2991 28.8881L27.2951 19.4616C27.4344 19.3153 27.5998 19.1992 27.782 19.12C27.9641 19.0408 28.1594 19 28.3566 19C28.5539 19 28.7491 19.0408 28.9313 19.12Z" fill="white"/>
<path d="M55 1H5V-1H55V1ZM1 5V55H-1V5H1ZM5 59H55V61H5V59ZM59 55V5H61V55H59ZM55 59C57.2091 59 59 57.2091 59 55H61C61 58.3137 58.3137 61 55 61V59ZM1 55C1 57.2091 2.79086 59 5 59V61C1.68629 61 -1 58.3137 -1 55H1ZM5 1C2.79086 1 1 2.79086 1 5H-1C-1 1.68629 1.68629 -1 5 -1V1ZM55 -1C58.3137 -1 61 1.68629 61 5H59C59 2.79086 57.2091 1 55 1V-1Z" fill="#20113D"/>
</svg>
