<svg width="60" height="60" viewBox="0 0 60 60" fill="none" xmlns="http://www.w3.org/2000/svg">
<path fill-rule="evenodd" clip-rule="evenodd" d="M31.0687 19.12C30.8866 19.1992 30.7211 19.3153 30.5818 19.4616C30.4422 19.6075 30.3314 19.7809 30.2558 19.9717C30.1803 20.1626 30.1414 20.3672 30.1414 20.5739C30.1414 20.7805 30.1803 20.9852 30.2558 21.176C30.3314 21.3669 30.4422 21.5403 30.5818 21.6862L36.6095 28H19.4589C19.0345 28 18.6276 28.2107 18.3275 28.5858C18.0275 28.9609 17.8589 29.4696 17.8589 30C17.8589 30.5304 18.0275 31.0391 18.3275 31.4142C18.6276 31.7893 19.0345 32 19.4589 32H36.6103L30.5818 38.3146C30.3003 38.6096 30.1421 39.0097 30.1421 39.4269C30.1421 39.8441 30.3003 40.2443 30.5818 40.5393C30.8634 40.8343 31.2452 41 31.6434 41C32.0415 41 32.4234 40.8343 32.7049 40.5393L41.7009 31.1127C41.8405 30.9668 41.9513 30.7934 42.0269 30.6026C42.1024 30.4117 42.1414 30.2071 42.1414 30.0004C42.1414 29.7938 42.1024 29.5891 42.0269 29.3983C41.9513 29.2074 41.8405 29.034 41.7009 28.8881L32.7049 19.4616C32.5656 19.3153 32.4002 19.1992 32.218 19.12C32.0359 19.0408 31.8406 19 31.6434 19C31.4461 19 31.2509 19.0408 31.0687 19.12Z" fill="#20113D"/>
<path d="M5 1H55V-1H5V1ZM59 5V55H61V5H59ZM55 59H5V61H55V59ZM1 55V5H-1V55H1ZM5 59C2.79086 59 1 57.2091 1 55H-1C-1 58.3137 1.68629 61 5 61V59ZM59 55C59 57.2091 57.2091 59 55 59V61C58.3137 61 61 58.3137 61 55H59ZM55 1C57.2091 1 59 2.79086 59 5H61C61 1.68629 58.3137 -1 55 -1V1ZM5 -1C1.68629 -1 -1 1.68629 -1 5H1C1 2.79086 2.79086 1 5 1V-1Z" fill="#20113D"/>
</svg>
